<mxfile host="app.diagrams.net" modified="2022-05-20T01:06:31.037Z" agent="5.0 (Windows NT 10.0; Win64; x64) AppleWebKit/537.36 (KHTML, like Gecko) Chrome/101.0.4951.64 Safari/537.36 Edg/101.0.1210.47" etag="yUJty7CILdRdsxnp7wpy" version="18.0.8" type="github">
  <diagram id="V3n78JNuvsSNz12MiZu3" name="Page-1">
    <mxGraphModel dx="3412" dy="1385" grid="1" gridSize="10" guides="1" tooltips="1" connect="1" arrows="1" fold="1" page="1" pageScale="1" pageWidth="827" pageHeight="1169" math="0" shadow="0">
      <root>
        <mxCell id="0" />
        <mxCell id="1" parent="0" />
        <mxCell id="V7FUhbb8tERKfh7leYHK-1" value="DOENÇA" style="shape=table;startSize=30;container=1;collapsible=1;childLayout=tableLayout;fixedRows=1;rowLines=0;fontStyle=1;align=center;resizeLast=1;fillColor=#dae8fc;strokeColor=#6c8ebf;" parent="1" vertex="1">
          <mxGeometry x="-762.5" y="70" width="180" height="90" as="geometry">
            <mxRectangle x="70" y="130" width="60" height="30" as="alternateBounds" />
          </mxGeometry>
        </mxCell>
        <mxCell id="V7FUhbb8tERKfh7leYHK-2" value="" style="shape=tableRow;horizontal=0;startSize=0;swimlaneHead=0;swimlaneBody=0;fillColor=none;collapsible=0;dropTarget=0;points=[[0,0.5],[1,0.5]];portConstraint=eastwest;top=0;left=0;right=0;bottom=1;" parent="V7FUhbb8tERKfh7leYHK-1" vertex="1">
          <mxGeometry y="30" width="180" height="30" as="geometry" />
        </mxCell>
        <mxCell id="V7FUhbb8tERKfh7leYHK-3" value="PK" style="shape=partialRectangle;connectable=0;fillColor=#fff2cc;top=0;left=0;bottom=0;right=0;fontStyle=1;overflow=hidden;strokeColor=#d6b656;" parent="V7FUhbb8tERKfh7leYHK-2" vertex="1">
          <mxGeometry width="30" height="30" as="geometry">
            <mxRectangle width="30" height="30" as="alternateBounds" />
          </mxGeometry>
        </mxCell>
        <mxCell id="V7FUhbb8tERKfh7leYHK-4" value="idDoença" style="shape=partialRectangle;connectable=0;fillColor=#f5f5f5;top=0;left=0;bottom=0;right=0;align=left;spacingLeft=6;fontStyle=5;overflow=hidden;fontColor=#333333;strokeColor=#666666;" parent="V7FUhbb8tERKfh7leYHK-2" vertex="1">
          <mxGeometry x="30" width="150" height="30" as="geometry">
            <mxRectangle width="150" height="30" as="alternateBounds" />
          </mxGeometry>
        </mxCell>
        <mxCell id="V7FUhbb8tERKfh7leYHK-5" value="" style="shape=tableRow;horizontal=0;startSize=0;swimlaneHead=0;swimlaneBody=0;fillColor=none;collapsible=0;dropTarget=0;points=[[0,0.5],[1,0.5]];portConstraint=eastwest;top=0;left=0;right=0;bottom=0;" parent="V7FUhbb8tERKfh7leYHK-1" vertex="1">
          <mxGeometry y="60" width="180" height="30" as="geometry" />
        </mxCell>
        <mxCell id="V7FUhbb8tERKfh7leYHK-6" value="" style="shape=partialRectangle;connectable=0;fillColor=#f5f5f5;top=0;left=0;bottom=0;right=0;editable=1;overflow=hidden;fontColor=#333333;strokeColor=#666666;" parent="V7FUhbb8tERKfh7leYHK-5" vertex="1">
          <mxGeometry width="30" height="30" as="geometry">
            <mxRectangle width="30" height="30" as="alternateBounds" />
          </mxGeometry>
        </mxCell>
        <mxCell id="V7FUhbb8tERKfh7leYHK-7" value="nome" style="shape=partialRectangle;connectable=0;fillColor=#f5f5f5;top=0;left=0;bottom=0;right=0;align=left;spacingLeft=6;overflow=hidden;fontColor=#333333;strokeColor=#666666;" parent="V7FUhbb8tERKfh7leYHK-5" vertex="1">
          <mxGeometry x="30" width="150" height="30" as="geometry">
            <mxRectangle width="150" height="30" as="alternateBounds" />
          </mxGeometry>
        </mxCell>
        <mxCell id="V7FUhbb8tERKfh7leYHK-14" value="DOEN-SINTOMA" style="shape=table;startSize=30;container=1;collapsible=1;childLayout=tableLayout;fixedRows=1;rowLines=0;fontStyle=1;align=center;resizeLast=1;fillColor=#dae8fc;strokeColor=#6c8ebf;swimlaneFillColor=none;gradientColor=none;rounded=0;shadow=0;" parent="1" vertex="1">
          <mxGeometry x="-418.5" y="70" width="180" height="120" as="geometry">
            <mxRectangle x="-418.5" y="70" width="60" height="30" as="alternateBounds" />
          </mxGeometry>
        </mxCell>
        <mxCell id="V7FUhbb8tERKfh7leYHK-15" value="" style="shape=tableRow;horizontal=0;startSize=0;swimlaneHead=0;swimlaneBody=0;fillColor=none;collapsible=0;dropTarget=0;points=[[0,0.5],[1,0.5]];portConstraint=eastwest;top=0;left=0;right=0;bottom=1;" parent="V7FUhbb8tERKfh7leYHK-14" vertex="1">
          <mxGeometry y="30" width="180" height="30" as="geometry" />
        </mxCell>
        <mxCell id="V7FUhbb8tERKfh7leYHK-16" value="PK" style="shape=partialRectangle;connectable=0;fillColor=#fff2cc;top=0;left=0;bottom=0;right=0;fontStyle=1;overflow=hidden;strokeColor=#d6b656;" parent="V7FUhbb8tERKfh7leYHK-15" vertex="1">
          <mxGeometry width="30" height="30" as="geometry">
            <mxRectangle width="30" height="30" as="alternateBounds" />
          </mxGeometry>
        </mxCell>
        <mxCell id="V7FUhbb8tERKfh7leYHK-17" value="IdDoe-sin" style="shape=partialRectangle;connectable=0;fillColor=#f5f5f5;top=0;left=0;bottom=0;right=0;align=left;spacingLeft=6;fontStyle=5;overflow=hidden;fontColor=#333333;strokeColor=#666666;" parent="V7FUhbb8tERKfh7leYHK-15" vertex="1">
          <mxGeometry x="30" width="150" height="30" as="geometry">
            <mxRectangle width="150" height="30" as="alternateBounds" />
          </mxGeometry>
        </mxCell>
        <mxCell id="V7FUhbb8tERKfh7leYHK-18" value="" style="shape=tableRow;horizontal=0;startSize=0;swimlaneHead=0;swimlaneBody=0;fillColor=none;collapsible=0;dropTarget=0;points=[[0,0.5],[1,0.5]];portConstraint=eastwest;top=0;left=0;right=0;bottom=0;" parent="V7FUhbb8tERKfh7leYHK-14" vertex="1">
          <mxGeometry y="60" width="180" height="30" as="geometry" />
        </mxCell>
        <mxCell id="V7FUhbb8tERKfh7leYHK-19" value="FK" style="shape=partialRectangle;connectable=0;fillColor=#f8cecc;top=0;left=0;bottom=0;right=0;editable=1;overflow=hidden;strokeColor=#b85450;" parent="V7FUhbb8tERKfh7leYHK-18" vertex="1">
          <mxGeometry width="30" height="30" as="geometry">
            <mxRectangle width="30" height="30" as="alternateBounds" />
          </mxGeometry>
        </mxCell>
        <mxCell id="V7FUhbb8tERKfh7leYHK-20" value="IdDoença" style="shape=partialRectangle;connectable=0;fillColor=#f5f5f5;top=0;left=0;bottom=0;right=0;align=left;spacingLeft=6;overflow=hidden;fontColor=#333333;strokeColor=#666666;" parent="V7FUhbb8tERKfh7leYHK-18" vertex="1">
          <mxGeometry x="30" width="150" height="30" as="geometry">
            <mxRectangle width="150" height="30" as="alternateBounds" />
          </mxGeometry>
        </mxCell>
        <mxCell id="V7FUhbb8tERKfh7leYHK-92" style="shape=tableRow;horizontal=0;startSize=0;swimlaneHead=0;swimlaneBody=0;fillColor=none;collapsible=0;dropTarget=0;points=[[0,0.5],[1,0.5]];portConstraint=eastwest;top=0;left=0;right=0;bottom=0;" parent="V7FUhbb8tERKfh7leYHK-14" vertex="1">
          <mxGeometry y="90" width="180" height="30" as="geometry" />
        </mxCell>
        <mxCell id="V7FUhbb8tERKfh7leYHK-93" value="FK" style="shape=partialRectangle;connectable=0;fillColor=#f8cecc;top=0;left=0;bottom=0;right=0;editable=1;overflow=hidden;strokeColor=#b85450;" parent="V7FUhbb8tERKfh7leYHK-92" vertex="1">
          <mxGeometry width="30" height="30" as="geometry">
            <mxRectangle width="30" height="30" as="alternateBounds" />
          </mxGeometry>
        </mxCell>
        <mxCell id="V7FUhbb8tERKfh7leYHK-94" value="IdSintoma" style="shape=partialRectangle;connectable=0;fillColor=#f5f5f5;top=0;left=0;bottom=0;right=0;align=left;spacingLeft=6;overflow=hidden;fontColor=#333333;strokeColor=#666666;" parent="V7FUhbb8tERKfh7leYHK-92" vertex="1">
          <mxGeometry x="30" width="150" height="30" as="geometry">
            <mxRectangle width="150" height="30" as="alternateBounds" />
          </mxGeometry>
        </mxCell>
        <mxCell id="V7FUhbb8tERKfh7leYHK-36" value="DOENÇA" style="shape=table;startSize=30;container=1;collapsible=1;childLayout=tableLayout;fixedRows=1;rowLines=0;fontStyle=1;align=center;resizeLast=1;fillColor=#dae8fc;strokeColor=#6c8ebf;" parent="1" vertex="1">
          <mxGeometry x="-62.5" y="70" width="180" height="90" as="geometry">
            <mxRectangle x="70" y="130" width="60" height="30" as="alternateBounds" />
          </mxGeometry>
        </mxCell>
        <mxCell id="V7FUhbb8tERKfh7leYHK-37" value="" style="shape=tableRow;horizontal=0;startSize=0;swimlaneHead=0;swimlaneBody=0;fillColor=none;collapsible=0;dropTarget=0;points=[[0,0.5],[1,0.5]];portConstraint=eastwest;top=0;left=0;right=0;bottom=1;" parent="V7FUhbb8tERKfh7leYHK-36" vertex="1">
          <mxGeometry y="30" width="180" height="30" as="geometry" />
        </mxCell>
        <mxCell id="V7FUhbb8tERKfh7leYHK-38" value="PK" style="shape=partialRectangle;connectable=0;fillColor=#fff2cc;top=0;left=0;bottom=0;right=0;fontStyle=1;overflow=hidden;strokeColor=#d6b656;" parent="V7FUhbb8tERKfh7leYHK-37" vertex="1">
          <mxGeometry width="30" height="30" as="geometry">
            <mxRectangle width="30" height="30" as="alternateBounds" />
          </mxGeometry>
        </mxCell>
        <mxCell id="V7FUhbb8tERKfh7leYHK-39" value="idSintoma" style="shape=partialRectangle;connectable=0;fillColor=#f5f5f5;top=0;left=0;bottom=0;right=0;align=left;spacingLeft=6;fontStyle=5;overflow=hidden;fontColor=#333333;strokeColor=#666666;" parent="V7FUhbb8tERKfh7leYHK-37" vertex="1">
          <mxGeometry x="30" width="150" height="30" as="geometry">
            <mxRectangle width="150" height="30" as="alternateBounds" />
          </mxGeometry>
        </mxCell>
        <mxCell id="V7FUhbb8tERKfh7leYHK-77" style="shape=tableRow;horizontal=0;startSize=0;swimlaneHead=0;swimlaneBody=0;fillColor=none;collapsible=0;dropTarget=0;points=[[0,0.5],[1,0.5]];portConstraint=eastwest;top=0;left=0;right=0;bottom=1;" parent="V7FUhbb8tERKfh7leYHK-36" vertex="1">
          <mxGeometry y="60" width="180" height="30" as="geometry" />
        </mxCell>
        <mxCell id="V7FUhbb8tERKfh7leYHK-78" style="shape=partialRectangle;connectable=0;fillColor=#f5f5f5;top=0;left=0;bottom=0;right=0;fontStyle=1;overflow=hidden;fontColor=#333333;strokeColor=#666666;" parent="V7FUhbb8tERKfh7leYHK-77" vertex="1">
          <mxGeometry width="30" height="30" as="geometry">
            <mxRectangle width="30" height="30" as="alternateBounds" />
          </mxGeometry>
        </mxCell>
        <mxCell id="V7FUhbb8tERKfh7leYHK-79" value="descrição" style="shape=partialRectangle;connectable=0;fillColor=#f5f5f5;top=0;left=0;bottom=0;right=0;align=left;spacingLeft=6;fontStyle=5;overflow=hidden;fontColor=#333333;strokeColor=#666666;" parent="V7FUhbb8tERKfh7leYHK-77" vertex="1">
          <mxGeometry x="30" width="150" height="30" as="geometry">
            <mxRectangle width="150" height="30" as="alternateBounds" />
          </mxGeometry>
        </mxCell>
        <mxCell id="V7FUhbb8tERKfh7leYHK-111" style="edgeStyle=orthogonalEdgeStyle;rounded=0;orthogonalLoop=1;jettySize=auto;html=1;entryX=0;entryY=0.5;entryDx=0;entryDy=0;endArrow=ERmany;endFill=0;startArrow=ERone;startFill=0;" parent="1" source="V7FUhbb8tERKfh7leYHK-2" target="V7FUhbb8tERKfh7leYHK-18" edge="1">
          <mxGeometry relative="1" as="geometry" />
        </mxCell>
        <mxCell id="V7FUhbb8tERKfh7leYHK-112" style="edgeStyle=orthogonalEdgeStyle;rounded=0;orthogonalLoop=1;jettySize=auto;html=1;entryX=1;entryY=0.5;entryDx=0;entryDy=0;endArrow=ERmany;endFill=0;startArrow=ERone;startFill=0;" parent="1" source="V7FUhbb8tERKfh7leYHK-37" target="V7FUhbb8tERKfh7leYHK-92" edge="1">
          <mxGeometry relative="1" as="geometry" />
        </mxCell>
        <mxCell id="V7FUhbb8tERKfh7leYHK-113" value="RECEITA" style="shape=table;startSize=30;container=1;collapsible=1;childLayout=tableLayout;fixedRows=1;rowLines=0;fontStyle=1;align=center;resizeLast=1;fillColor=#dae8fc;strokeColor=#6c8ebf;" parent="1" vertex="1">
          <mxGeometry x="-762.5" y="384" width="180" height="120" as="geometry">
            <mxRectangle x="70" y="130" width="60" height="30" as="alternateBounds" />
          </mxGeometry>
        </mxCell>
        <mxCell id="V7FUhbb8tERKfh7leYHK-114" value="" style="shape=tableRow;horizontal=0;startSize=0;swimlaneHead=0;swimlaneBody=0;fillColor=none;collapsible=0;dropTarget=0;points=[[0,0.5],[1,0.5]];portConstraint=eastwest;top=0;left=0;right=0;bottom=1;" parent="V7FUhbb8tERKfh7leYHK-113" vertex="1">
          <mxGeometry y="30" width="180" height="30" as="geometry" />
        </mxCell>
        <mxCell id="V7FUhbb8tERKfh7leYHK-115" value="PK" style="shape=partialRectangle;connectable=0;fillColor=#fff2cc;top=0;left=0;bottom=0;right=0;fontStyle=1;overflow=hidden;strokeColor=#d6b656;" parent="V7FUhbb8tERKfh7leYHK-114" vertex="1">
          <mxGeometry width="30" height="30" as="geometry">
            <mxRectangle width="30" height="30" as="alternateBounds" />
          </mxGeometry>
        </mxCell>
        <mxCell id="V7FUhbb8tERKfh7leYHK-116" value="IdReceita" style="shape=partialRectangle;connectable=0;fillColor=#f5f5f5;top=0;left=0;bottom=0;right=0;align=left;spacingLeft=6;fontStyle=5;overflow=hidden;fontColor=#333333;strokeColor=#666666;" parent="V7FUhbb8tERKfh7leYHK-114" vertex="1">
          <mxGeometry x="30" width="150" height="30" as="geometry">
            <mxRectangle width="150" height="30" as="alternateBounds" />
          </mxGeometry>
        </mxCell>
        <mxCell id="V7FUhbb8tERKfh7leYHK-117" value="" style="shape=tableRow;horizontal=0;startSize=0;swimlaneHead=0;swimlaneBody=0;fillColor=#f5f5f5;collapsible=0;dropTarget=0;points=[[0,0.5],[1,0.5]];portConstraint=eastwest;top=0;left=0;right=0;bottom=0;fontColor=#333333;strokeColor=#666666;" parent="V7FUhbb8tERKfh7leYHK-113" vertex="1">
          <mxGeometry y="60" width="180" height="30" as="geometry" />
        </mxCell>
        <mxCell id="V7FUhbb8tERKfh7leYHK-118" value="" style="shape=partialRectangle;connectable=0;fillColor=#f5f5f5;top=0;left=0;bottom=0;right=0;editable=1;overflow=hidden;fontColor=#333333;strokeColor=#666666;" parent="V7FUhbb8tERKfh7leYHK-117" vertex="1">
          <mxGeometry width="30" height="30" as="geometry">
            <mxRectangle width="30" height="30" as="alternateBounds" />
          </mxGeometry>
        </mxCell>
        <mxCell id="V7FUhbb8tERKfh7leYHK-119" value="nome" style="shape=partialRectangle;connectable=0;fillColor=#f5f5f5;top=0;left=0;bottom=0;right=0;align=left;spacingLeft=6;overflow=hidden;fontColor=#333333;strokeColor=#666666;" parent="V7FUhbb8tERKfh7leYHK-117" vertex="1">
          <mxGeometry x="30" width="150" height="30" as="geometry">
            <mxRectangle width="150" height="30" as="alternateBounds" />
          </mxGeometry>
        </mxCell>
        <mxCell id="V7FUhbb8tERKfh7leYHK-204" style="shape=tableRow;horizontal=0;startSize=0;swimlaneHead=0;swimlaneBody=0;fillColor=#f5f5f5;collapsible=0;dropTarget=0;points=[[0,0.5],[1,0.5]];portConstraint=eastwest;top=0;left=0;right=0;bottom=0;fontColor=#333333;strokeColor=#666666;" parent="V7FUhbb8tERKfh7leYHK-113" vertex="1">
          <mxGeometry y="90" width="180" height="30" as="geometry" />
        </mxCell>
        <mxCell id="V7FUhbb8tERKfh7leYHK-205" style="shape=partialRectangle;connectable=0;fillColor=#f5f5f5;top=0;left=0;bottom=0;right=0;editable=1;overflow=hidden;fontColor=#333333;strokeColor=#666666;" parent="V7FUhbb8tERKfh7leYHK-204" vertex="1">
          <mxGeometry width="30" height="30" as="geometry">
            <mxRectangle width="30" height="30" as="alternateBounds" />
          </mxGeometry>
        </mxCell>
        <mxCell id="V7FUhbb8tERKfh7leYHK-206" value="qtdeCalorias" style="shape=partialRectangle;connectable=0;fillColor=#f5f5f5;top=0;left=0;bottom=0;right=0;align=left;spacingLeft=6;overflow=hidden;fontColor=#333333;strokeColor=#666666;" parent="V7FUhbb8tERKfh7leYHK-204" vertex="1">
          <mxGeometry x="30" width="150" height="30" as="geometry">
            <mxRectangle width="150" height="30" as="alternateBounds" />
          </mxGeometry>
        </mxCell>
        <mxCell id="V7FUhbb8tERKfh7leYHK-120" value="RECEITA-INGREDIENTE" style="shape=table;startSize=30;container=1;collapsible=1;childLayout=tableLayout;fixedRows=1;rowLines=0;fontStyle=1;align=center;resizeLast=1;fillColor=#dae8fc;strokeColor=#6c8ebf;" parent="1" vertex="1">
          <mxGeometry x="-402.5" y="384" width="180" height="180" as="geometry">
            <mxRectangle x="70" y="130" width="60" height="30" as="alternateBounds" />
          </mxGeometry>
        </mxCell>
        <mxCell id="V7FUhbb8tERKfh7leYHK-121" value="" style="shape=tableRow;horizontal=0;startSize=0;swimlaneHead=0;swimlaneBody=0;fillColor=none;collapsible=0;dropTarget=0;points=[[0,0.5],[1,0.5]];portConstraint=eastwest;top=0;left=0;right=0;bottom=1;" parent="V7FUhbb8tERKfh7leYHK-120" vertex="1">
          <mxGeometry y="30" width="180" height="30" as="geometry" />
        </mxCell>
        <mxCell id="V7FUhbb8tERKfh7leYHK-122" value="PK" style="shape=partialRectangle;connectable=0;fillColor=#fff2cc;top=0;left=0;bottom=0;right=0;fontStyle=1;overflow=hidden;strokeColor=#d6b656;" parent="V7FUhbb8tERKfh7leYHK-121" vertex="1">
          <mxGeometry width="30" height="30" as="geometry">
            <mxRectangle width="30" height="30" as="alternateBounds" />
          </mxGeometry>
        </mxCell>
        <mxCell id="V7FUhbb8tERKfh7leYHK-123" value="IdRec_Ingred" style="shape=partialRectangle;connectable=0;fillColor=#f5f5f5;top=0;left=0;bottom=0;right=0;align=left;spacingLeft=6;fontStyle=5;overflow=hidden;fontColor=#333333;strokeColor=#666666;" parent="V7FUhbb8tERKfh7leYHK-121" vertex="1">
          <mxGeometry x="30" width="150" height="30" as="geometry">
            <mxRectangle width="150" height="30" as="alternateBounds" />
          </mxGeometry>
        </mxCell>
        <mxCell id="V7FUhbb8tERKfh7leYHK-124" value="" style="shape=tableRow;horizontal=0;startSize=0;swimlaneHead=0;swimlaneBody=0;fillColor=none;collapsible=0;dropTarget=0;points=[[0,0.5],[1,0.5]];portConstraint=eastwest;top=0;left=0;right=0;bottom=0;" parent="V7FUhbb8tERKfh7leYHK-120" vertex="1">
          <mxGeometry y="60" width="180" height="30" as="geometry" />
        </mxCell>
        <mxCell id="V7FUhbb8tERKfh7leYHK-125" value="FK" style="shape=partialRectangle;connectable=0;fillColor=#f8cecc;top=0;left=0;bottom=0;right=0;editable=1;overflow=hidden;strokeColor=#b85450;" parent="V7FUhbb8tERKfh7leYHK-124" vertex="1">
          <mxGeometry width="30" height="30" as="geometry">
            <mxRectangle width="30" height="30" as="alternateBounds" />
          </mxGeometry>
        </mxCell>
        <mxCell id="V7FUhbb8tERKfh7leYHK-126" value="IdReceita" style="shape=partialRectangle;connectable=0;fillColor=#f5f5f5;top=0;left=0;bottom=0;right=0;align=left;spacingLeft=6;overflow=hidden;fontColor=#333333;strokeColor=#666666;" parent="V7FUhbb8tERKfh7leYHK-124" vertex="1">
          <mxGeometry x="30" width="150" height="30" as="geometry">
            <mxRectangle width="150" height="30" as="alternateBounds" />
          </mxGeometry>
        </mxCell>
        <mxCell id="V7FUhbb8tERKfh7leYHK-127" style="shape=tableRow;horizontal=0;startSize=0;swimlaneHead=0;swimlaneBody=0;fillColor=none;collapsible=0;dropTarget=0;points=[[0,0.5],[1,0.5]];portConstraint=eastwest;top=0;left=0;right=0;bottom=0;" parent="V7FUhbb8tERKfh7leYHK-120" vertex="1">
          <mxGeometry y="90" width="180" height="30" as="geometry" />
        </mxCell>
        <mxCell id="V7FUhbb8tERKfh7leYHK-128" value="FK" style="shape=partialRectangle;connectable=0;fillColor=#f8cecc;top=0;left=0;bottom=0;right=0;editable=1;overflow=hidden;strokeColor=#b85450;" parent="V7FUhbb8tERKfh7leYHK-127" vertex="1">
          <mxGeometry width="30" height="30" as="geometry">
            <mxRectangle width="30" height="30" as="alternateBounds" />
          </mxGeometry>
        </mxCell>
        <mxCell id="V7FUhbb8tERKfh7leYHK-129" value="IdIngrediente" style="shape=partialRectangle;connectable=0;fillColor=#f5f5f5;top=0;left=0;bottom=0;right=0;align=left;spacingLeft=6;overflow=hidden;fontColor=#333333;strokeColor=#666666;" parent="V7FUhbb8tERKfh7leYHK-127" vertex="1">
          <mxGeometry x="30" width="150" height="30" as="geometry">
            <mxRectangle width="150" height="30" as="alternateBounds" />
          </mxGeometry>
        </mxCell>
        <mxCell id="V7FUhbb8tERKfh7leYHK-207" style="shape=tableRow;horizontal=0;startSize=0;swimlaneHead=0;swimlaneBody=0;fillColor=none;collapsible=0;dropTarget=0;points=[[0,0.5],[1,0.5]];portConstraint=eastwest;top=0;left=0;right=0;bottom=0;" parent="V7FUhbb8tERKfh7leYHK-120" vertex="1">
          <mxGeometry y="120" width="180" height="30" as="geometry" />
        </mxCell>
        <mxCell id="V7FUhbb8tERKfh7leYHK-208" style="shape=partialRectangle;connectable=0;fillColor=#f5f5f5;top=0;left=0;bottom=0;right=0;editable=1;overflow=hidden;fontColor=#333333;strokeColor=#666666;" parent="V7FUhbb8tERKfh7leYHK-207" vertex="1">
          <mxGeometry width="30" height="30" as="geometry">
            <mxRectangle width="30" height="30" as="alternateBounds" />
          </mxGeometry>
        </mxCell>
        <mxCell id="V7FUhbb8tERKfh7leYHK-209" value="qtde" style="shape=partialRectangle;connectable=0;fillColor=#f5f5f5;top=0;left=0;bottom=0;right=0;align=left;spacingLeft=6;overflow=hidden;fontColor=#333333;strokeColor=#666666;" parent="V7FUhbb8tERKfh7leYHK-207" vertex="1">
          <mxGeometry x="30" width="150" height="30" as="geometry">
            <mxRectangle width="150" height="30" as="alternateBounds" />
          </mxGeometry>
        </mxCell>
        <mxCell id="V7FUhbb8tERKfh7leYHK-213" style="shape=tableRow;horizontal=0;startSize=0;swimlaneHead=0;swimlaneBody=0;fillColor=none;collapsible=0;dropTarget=0;points=[[0,0.5],[1,0.5]];portConstraint=eastwest;top=0;left=0;right=0;bottom=0;" parent="V7FUhbb8tERKfh7leYHK-120" vertex="1">
          <mxGeometry y="150" width="180" height="30" as="geometry" />
        </mxCell>
        <mxCell id="V7FUhbb8tERKfh7leYHK-214" style="shape=partialRectangle;connectable=0;fillColor=#f5f5f5;top=0;left=0;bottom=0;right=0;editable=1;overflow=hidden;fontColor=#333333;strokeColor=#666666;" parent="V7FUhbb8tERKfh7leYHK-213" vertex="1">
          <mxGeometry width="30" height="30" as="geometry">
            <mxRectangle width="30" height="30" as="alternateBounds" />
          </mxGeometry>
        </mxCell>
        <mxCell id="V7FUhbb8tERKfh7leYHK-215" value="modo_preparo" style="shape=partialRectangle;connectable=0;fillColor=#f5f5f5;top=0;left=0;bottom=0;right=0;align=left;spacingLeft=6;overflow=hidden;fontColor=#333333;strokeColor=#666666;" parent="V7FUhbb8tERKfh7leYHK-213" vertex="1">
          <mxGeometry x="30" width="150" height="30" as="geometry">
            <mxRectangle width="150" height="30" as="alternateBounds" />
          </mxGeometry>
        </mxCell>
        <mxCell id="V7FUhbb8tERKfh7leYHK-132" style="edgeStyle=orthogonalEdgeStyle;rounded=0;orthogonalLoop=1;jettySize=auto;html=1;entryX=0;entryY=0.5;entryDx=0;entryDy=0;endArrow=ERmany;endFill=0;startArrow=ERone;startFill=0;" parent="1" source="V7FUhbb8tERKfh7leYHK-114" target="V7FUhbb8tERKfh7leYHK-124" edge="1">
          <mxGeometry relative="1" as="geometry" />
        </mxCell>
        <mxCell id="V7FUhbb8tERKfh7leYHK-134" value="INGREDIENTE" style="shape=table;startSize=30;container=1;collapsible=1;childLayout=tableLayout;fixedRows=1;rowLines=0;fontStyle=1;align=center;resizeLast=1;fillColor=#dae8fc;strokeColor=#6c8ebf;" parent="1" vertex="1">
          <mxGeometry x="-55" y="384" width="180" height="120" as="geometry">
            <mxRectangle x="70" y="130" width="60" height="30" as="alternateBounds" />
          </mxGeometry>
        </mxCell>
        <mxCell id="V7FUhbb8tERKfh7leYHK-135" value="" style="shape=tableRow;horizontal=0;startSize=0;swimlaneHead=0;swimlaneBody=0;fillColor=none;collapsible=0;dropTarget=0;points=[[0,0.5],[1,0.5]];portConstraint=eastwest;top=0;left=0;right=0;bottom=1;" parent="V7FUhbb8tERKfh7leYHK-134" vertex="1">
          <mxGeometry y="30" width="180" height="30" as="geometry" />
        </mxCell>
        <mxCell id="V7FUhbb8tERKfh7leYHK-136" value="PK" style="shape=partialRectangle;connectable=0;fillColor=#fff2cc;top=0;left=0;bottom=0;right=0;fontStyle=1;overflow=hidden;strokeColor=#d6b656;" parent="V7FUhbb8tERKfh7leYHK-135" vertex="1">
          <mxGeometry width="30" height="30" as="geometry">
            <mxRectangle width="30" height="30" as="alternateBounds" />
          </mxGeometry>
        </mxCell>
        <mxCell id="V7FUhbb8tERKfh7leYHK-137" value="IdIngred" style="shape=partialRectangle;connectable=0;fillColor=#f5f5f5;top=0;left=0;bottom=0;right=0;align=left;spacingLeft=6;fontStyle=5;overflow=hidden;fontColor=#333333;strokeColor=#666666;" parent="V7FUhbb8tERKfh7leYHK-135" vertex="1">
          <mxGeometry x="30" width="150" height="30" as="geometry">
            <mxRectangle width="150" height="30" as="alternateBounds" />
          </mxGeometry>
        </mxCell>
        <mxCell id="V7FUhbb8tERKfh7leYHK-138" style="shape=tableRow;horizontal=0;startSize=0;swimlaneHead=0;swimlaneBody=0;fillColor=none;collapsible=0;dropTarget=0;points=[[0,0.5],[1,0.5]];portConstraint=eastwest;top=0;left=0;right=0;bottom=1;" parent="V7FUhbb8tERKfh7leYHK-134" vertex="1">
          <mxGeometry y="60" width="180" height="30" as="geometry" />
        </mxCell>
        <mxCell id="V7FUhbb8tERKfh7leYHK-139" style="shape=partialRectangle;connectable=0;fillColor=#f5f5f5;top=0;left=0;bottom=0;right=0;fontStyle=1;overflow=hidden;fontColor=#333333;strokeColor=#666666;" parent="V7FUhbb8tERKfh7leYHK-138" vertex="1">
          <mxGeometry width="30" height="30" as="geometry">
            <mxRectangle width="30" height="30" as="alternateBounds" />
          </mxGeometry>
        </mxCell>
        <mxCell id="V7FUhbb8tERKfh7leYHK-140" value="quantidade" style="shape=partialRectangle;connectable=0;fillColor=#f5f5f5;top=0;left=0;bottom=0;right=0;align=left;spacingLeft=6;fontStyle=0;overflow=hidden;fontColor=#333333;strokeColor=#666666;" parent="V7FUhbb8tERKfh7leYHK-138" vertex="1">
          <mxGeometry x="30" width="150" height="30" as="geometry">
            <mxRectangle width="150" height="30" as="alternateBounds" />
          </mxGeometry>
        </mxCell>
        <mxCell id="V7FUhbb8tERKfh7leYHK-210" style="shape=tableRow;horizontal=0;startSize=0;swimlaneHead=0;swimlaneBody=0;fillColor=none;collapsible=0;dropTarget=0;points=[[0,0.5],[1,0.5]];portConstraint=eastwest;top=0;left=0;right=0;bottom=1;" parent="V7FUhbb8tERKfh7leYHK-134" vertex="1">
          <mxGeometry y="90" width="180" height="30" as="geometry" />
        </mxCell>
        <mxCell id="V7FUhbb8tERKfh7leYHK-211" style="shape=partialRectangle;connectable=0;fillColor=#f5f5f5;top=0;left=0;bottom=0;right=0;fontStyle=1;overflow=hidden;fontColor=#333333;strokeColor=#666666;" parent="V7FUhbb8tERKfh7leYHK-210" vertex="1">
          <mxGeometry width="30" height="30" as="geometry">
            <mxRectangle width="30" height="30" as="alternateBounds" />
          </mxGeometry>
        </mxCell>
        <mxCell id="V7FUhbb8tERKfh7leYHK-212" value="preço" style="shape=partialRectangle;connectable=0;fillColor=#f5f5f5;top=0;left=0;bottom=0;right=0;align=left;spacingLeft=6;fontStyle=0;overflow=hidden;fontColor=#333333;strokeColor=#666666;" parent="V7FUhbb8tERKfh7leYHK-210" vertex="1">
          <mxGeometry x="30" width="150" height="30" as="geometry">
            <mxRectangle width="150" height="30" as="alternateBounds" />
          </mxGeometry>
        </mxCell>
        <mxCell id="V7FUhbb8tERKfh7leYHK-141" style="edgeStyle=orthogonalEdgeStyle;rounded=0;orthogonalLoop=1;jettySize=auto;html=1;startArrow=ERone;startFill=0;endArrow=ERmany;endFill=0;" parent="1" source="V7FUhbb8tERKfh7leYHK-135" target="V7FUhbb8tERKfh7leYHK-127" edge="1">
          <mxGeometry relative="1" as="geometry" />
        </mxCell>
        <mxCell id="V7FUhbb8tERKfh7leYHK-165" value="Nota-produto" style="shape=table;startSize=30;container=1;collapsible=1;childLayout=tableLayout;fixedRows=1;rowLines=0;fontStyle=1;align=center;resizeLast=1;fillColor=#dae8fc;strokeColor=#6c8ebf;" parent="1" vertex="1">
          <mxGeometry x="-412.5" y="830" width="180" height="150" as="geometry">
            <mxRectangle x="70" y="130" width="60" height="30" as="alternateBounds" />
          </mxGeometry>
        </mxCell>
        <mxCell id="V7FUhbb8tERKfh7leYHK-166" value="" style="shape=tableRow;horizontal=0;startSize=0;swimlaneHead=0;swimlaneBody=0;fillColor=none;collapsible=0;dropTarget=0;points=[[0,0.5],[1,0.5]];portConstraint=eastwest;top=0;left=0;right=0;bottom=1;" parent="V7FUhbb8tERKfh7leYHK-165" vertex="1">
          <mxGeometry y="30" width="180" height="30" as="geometry" />
        </mxCell>
        <mxCell id="V7FUhbb8tERKfh7leYHK-167" value="PK" style="shape=partialRectangle;connectable=0;fillColor=#fff2cc;top=0;left=0;bottom=0;right=0;fontStyle=1;overflow=hidden;strokeColor=#d6b656;" parent="V7FUhbb8tERKfh7leYHK-166" vertex="1">
          <mxGeometry width="30" height="30" as="geometry">
            <mxRectangle width="30" height="30" as="alternateBounds" />
          </mxGeometry>
        </mxCell>
        <mxCell id="V7FUhbb8tERKfh7leYHK-168" value="IdNota-Porduto" style="shape=partialRectangle;connectable=0;fillColor=#f5f5f5;top=0;left=0;bottom=0;right=0;align=left;spacingLeft=6;fontStyle=5;overflow=hidden;strokeColor=#666666;" parent="V7FUhbb8tERKfh7leYHK-166" vertex="1">
          <mxGeometry x="30" width="150" height="30" as="geometry">
            <mxRectangle width="150" height="30" as="alternateBounds" />
          </mxGeometry>
        </mxCell>
        <mxCell id="V7FUhbb8tERKfh7leYHK-169" value="" style="shape=tableRow;horizontal=0;startSize=0;swimlaneHead=0;swimlaneBody=0;fillColor=none;collapsible=0;dropTarget=0;points=[[0,0.5],[1,0.5]];portConstraint=eastwest;top=0;left=0;right=0;bottom=0;" parent="V7FUhbb8tERKfh7leYHK-165" vertex="1">
          <mxGeometry y="60" width="180" height="30" as="geometry" />
        </mxCell>
        <mxCell id="V7FUhbb8tERKfh7leYHK-170" value="FK" style="shape=partialRectangle;connectable=0;fillColor=#f8cecc;top=0;left=0;bottom=0;right=0;editable=1;overflow=hidden;strokeColor=#b85450;" parent="V7FUhbb8tERKfh7leYHK-169" vertex="1">
          <mxGeometry width="30" height="30" as="geometry">
            <mxRectangle width="30" height="30" as="alternateBounds" />
          </mxGeometry>
        </mxCell>
        <mxCell id="V7FUhbb8tERKfh7leYHK-171" value="IdNota" style="shape=partialRectangle;connectable=0;fillColor=#f5f5f5;top=0;left=0;bottom=0;right=0;align=left;spacingLeft=6;overflow=hidden;strokeColor=#666666;" parent="V7FUhbb8tERKfh7leYHK-169" vertex="1">
          <mxGeometry x="30" width="150" height="30" as="geometry">
            <mxRectangle width="150" height="30" as="alternateBounds" />
          </mxGeometry>
        </mxCell>
        <mxCell id="V7FUhbb8tERKfh7leYHK-172" style="shape=tableRow;horizontal=0;startSize=0;swimlaneHead=0;swimlaneBody=0;fillColor=none;collapsible=0;dropTarget=0;points=[[0,0.5],[1,0.5]];portConstraint=eastwest;top=0;left=0;right=0;bottom=0;" parent="V7FUhbb8tERKfh7leYHK-165" vertex="1">
          <mxGeometry y="90" width="180" height="30" as="geometry" />
        </mxCell>
        <mxCell id="V7FUhbb8tERKfh7leYHK-173" value="FK" style="shape=partialRectangle;connectable=0;fillColor=#f8cecc;top=0;left=0;bottom=0;right=0;editable=1;overflow=hidden;strokeColor=#b85450;" parent="V7FUhbb8tERKfh7leYHK-172" vertex="1">
          <mxGeometry width="30" height="30" as="geometry">
            <mxRectangle width="30" height="30" as="alternateBounds" />
          </mxGeometry>
        </mxCell>
        <mxCell id="V7FUhbb8tERKfh7leYHK-174" value="IdProduto" style="shape=partialRectangle;connectable=0;fillColor=#f5f5f5;top=0;left=0;bottom=0;right=0;align=left;spacingLeft=6;overflow=hidden;strokeColor=#666666;" parent="V7FUhbb8tERKfh7leYHK-172" vertex="1">
          <mxGeometry x="30" width="150" height="30" as="geometry">
            <mxRectangle width="150" height="30" as="alternateBounds" />
          </mxGeometry>
        </mxCell>
        <mxCell id="V7FUhbb8tERKfh7leYHK-232" style="shape=tableRow;horizontal=0;startSize=0;swimlaneHead=0;swimlaneBody=0;fillColor=none;collapsible=0;dropTarget=0;points=[[0,0.5],[1,0.5]];portConstraint=eastwest;top=0;left=0;right=0;bottom=0;" parent="V7FUhbb8tERKfh7leYHK-165" vertex="1">
          <mxGeometry y="120" width="180" height="30" as="geometry" />
        </mxCell>
        <mxCell id="V7FUhbb8tERKfh7leYHK-233" style="shape=partialRectangle;connectable=0;fillColor=#f5f5f5;top=0;left=0;bottom=0;right=0;editable=1;overflow=hidden;strokeColor=#666666;" parent="V7FUhbb8tERKfh7leYHK-232" vertex="1">
          <mxGeometry width="30" height="30" as="geometry">
            <mxRectangle width="30" height="30" as="alternateBounds" />
          </mxGeometry>
        </mxCell>
        <mxCell id="V7FUhbb8tERKfh7leYHK-234" value="valor_nota" style="shape=partialRectangle;connectable=0;fillColor=#f5f5f5;top=0;left=0;bottom=0;right=0;align=left;spacingLeft=6;overflow=hidden;strokeColor=#666666;" parent="V7FUhbb8tERKfh7leYHK-232" vertex="1">
          <mxGeometry x="30" width="150" height="30" as="geometry">
            <mxRectangle width="150" height="30" as="alternateBounds" />
          </mxGeometry>
        </mxCell>
        <mxCell id="V7FUhbb8tERKfh7leYHK-176" value="Produto" style="shape=table;startSize=30;container=1;collapsible=1;childLayout=tableLayout;fixedRows=1;rowLines=0;fontStyle=1;align=center;resizeLast=1;fillColor=#dae8fc;strokeColor=#6c8ebf;" parent="1" vertex="1">
          <mxGeometry x="-62.5" y="830" width="180" height="210" as="geometry">
            <mxRectangle x="70" y="130" width="60" height="30" as="alternateBounds" />
          </mxGeometry>
        </mxCell>
        <mxCell id="V7FUhbb8tERKfh7leYHK-177" value="" style="shape=tableRow;horizontal=0;startSize=0;swimlaneHead=0;swimlaneBody=0;fillColor=none;collapsible=0;dropTarget=0;points=[[0,0.5],[1,0.5]];portConstraint=eastwest;top=0;left=0;right=0;bottom=1;" parent="V7FUhbb8tERKfh7leYHK-176" vertex="1">
          <mxGeometry y="30" width="180" height="30" as="geometry" />
        </mxCell>
        <mxCell id="V7FUhbb8tERKfh7leYHK-178" value="PK" style="shape=partialRectangle;connectable=0;fillColor=#fff2cc;top=0;left=0;bottom=0;right=0;fontStyle=1;overflow=hidden;strokeColor=#d6b656;" parent="V7FUhbb8tERKfh7leYHK-177" vertex="1">
          <mxGeometry width="30" height="30" as="geometry">
            <mxRectangle width="30" height="30" as="alternateBounds" />
          </mxGeometry>
        </mxCell>
        <mxCell id="V7FUhbb8tERKfh7leYHK-179" value="Idproduto" style="shape=partialRectangle;connectable=0;fillColor=#f5f5f5;top=0;left=0;bottom=0;right=0;align=left;spacingLeft=6;fontStyle=5;overflow=hidden;fontColor=#333333;strokeColor=#666666;" parent="V7FUhbb8tERKfh7leYHK-177" vertex="1">
          <mxGeometry x="30" width="150" height="30" as="geometry">
            <mxRectangle width="150" height="30" as="alternateBounds" />
          </mxGeometry>
        </mxCell>
        <mxCell id="V7FUhbb8tERKfh7leYHK-180" style="shape=tableRow;horizontal=0;startSize=0;swimlaneHead=0;swimlaneBody=0;fillColor=#f5f5f5;collapsible=0;dropTarget=0;points=[[0,0.5],[1,0.5]];portConstraint=eastwest;top=0;left=0;right=0;bottom=1;fontColor=#333333;strokeColor=#666666;" parent="V7FUhbb8tERKfh7leYHK-176" vertex="1">
          <mxGeometry y="60" width="180" height="30" as="geometry" />
        </mxCell>
        <mxCell id="V7FUhbb8tERKfh7leYHK-181" style="shape=partialRectangle;connectable=0;fillColor=#f5f5f5;top=0;left=0;bottom=0;right=0;fontStyle=1;overflow=hidden;fontColor=#333333;strokeColor=#666666;" parent="V7FUhbb8tERKfh7leYHK-180" vertex="1">
          <mxGeometry width="30" height="30" as="geometry">
            <mxRectangle width="30" height="30" as="alternateBounds" />
          </mxGeometry>
        </mxCell>
        <mxCell id="V7FUhbb8tERKfh7leYHK-182" value="Produto    " style="shape=partialRectangle;connectable=0;fillColor=#f5f5f5;top=0;left=0;bottom=0;right=0;align=left;spacingLeft=6;fontStyle=0;overflow=hidden;fontColor=#333333;strokeColor=#666666;" parent="V7FUhbb8tERKfh7leYHK-180" vertex="1">
          <mxGeometry x="30" width="150" height="30" as="geometry">
            <mxRectangle width="150" height="30" as="alternateBounds" />
          </mxGeometry>
        </mxCell>
        <mxCell id="V7FUhbb8tERKfh7leYHK-217" style="shape=tableRow;horizontal=0;startSize=0;swimlaneHead=0;swimlaneBody=0;fillColor=#f5f5f5;collapsible=0;dropTarget=0;points=[[0,0.5],[1,0.5]];portConstraint=eastwest;top=0;left=0;right=0;bottom=1;fontColor=#333333;strokeColor=#666666;" parent="V7FUhbb8tERKfh7leYHK-176" vertex="1">
          <mxGeometry y="90" width="180" height="30" as="geometry" />
        </mxCell>
        <mxCell id="V7FUhbb8tERKfh7leYHK-218" style="shape=partialRectangle;connectable=0;fillColor=#f5f5f5;top=0;left=0;bottom=0;right=0;fontStyle=1;overflow=hidden;fontColor=#333333;strokeColor=#666666;" parent="V7FUhbb8tERKfh7leYHK-217" vertex="1">
          <mxGeometry width="30" height="30" as="geometry">
            <mxRectangle width="30" height="30" as="alternateBounds" />
          </mxGeometry>
        </mxCell>
        <mxCell id="V7FUhbb8tERKfh7leYHK-219" value="Peso" style="shape=partialRectangle;connectable=0;fillColor=#f5f5f5;top=0;left=0;bottom=0;right=0;align=left;spacingLeft=6;fontStyle=0;overflow=hidden;fontColor=#333333;strokeColor=#666666;" parent="V7FUhbb8tERKfh7leYHK-217" vertex="1">
          <mxGeometry x="30" width="150" height="30" as="geometry">
            <mxRectangle width="150" height="30" as="alternateBounds" />
          </mxGeometry>
        </mxCell>
        <mxCell id="V7FUhbb8tERKfh7leYHK-220" style="shape=tableRow;horizontal=0;startSize=0;swimlaneHead=0;swimlaneBody=0;fillColor=#f5f5f5;collapsible=0;dropTarget=0;points=[[0,0.5],[1,0.5]];portConstraint=eastwest;top=0;left=0;right=0;bottom=1;fontColor=#333333;strokeColor=#666666;" parent="V7FUhbb8tERKfh7leYHK-176" vertex="1">
          <mxGeometry y="120" width="180" height="30" as="geometry" />
        </mxCell>
        <mxCell id="V7FUhbb8tERKfh7leYHK-221" style="shape=partialRectangle;connectable=0;fillColor=#f5f5f5;top=0;left=0;bottom=0;right=0;fontStyle=1;overflow=hidden;fontColor=#333333;strokeColor=#666666;" parent="V7FUhbb8tERKfh7leYHK-220" vertex="1">
          <mxGeometry width="30" height="30" as="geometry">
            <mxRectangle width="30" height="30" as="alternateBounds" />
          </mxGeometry>
        </mxCell>
        <mxCell id="V7FUhbb8tERKfh7leYHK-222" value="Preço" style="shape=partialRectangle;connectable=0;fillColor=#f5f5f5;top=0;left=0;bottom=0;right=0;align=left;spacingLeft=6;fontStyle=0;overflow=hidden;fontColor=#333333;strokeColor=#666666;" parent="V7FUhbb8tERKfh7leYHK-220" vertex="1">
          <mxGeometry x="30" width="150" height="30" as="geometry">
            <mxRectangle width="150" height="30" as="alternateBounds" />
          </mxGeometry>
        </mxCell>
        <mxCell id="V7FUhbb8tERKfh7leYHK-223" style="shape=tableRow;horizontal=0;startSize=0;swimlaneHead=0;swimlaneBody=0;fillColor=#f5f5f5;collapsible=0;dropTarget=0;points=[[0,0.5],[1,0.5]];portConstraint=eastwest;top=0;left=0;right=0;bottom=1;fontColor=#333333;strokeColor=#666666;" parent="V7FUhbb8tERKfh7leYHK-176" vertex="1">
          <mxGeometry y="150" width="180" height="30" as="geometry" />
        </mxCell>
        <mxCell id="V7FUhbb8tERKfh7leYHK-224" style="shape=partialRectangle;connectable=0;fillColor=#f5f5f5;top=0;left=0;bottom=0;right=0;fontStyle=1;overflow=hidden;fontColor=#333333;strokeColor=#666666;" parent="V7FUhbb8tERKfh7leYHK-223" vertex="1">
          <mxGeometry width="30" height="30" as="geometry">
            <mxRectangle width="30" height="30" as="alternateBounds" />
          </mxGeometry>
        </mxCell>
        <mxCell id="V7FUhbb8tERKfh7leYHK-225" value="menor_preço" style="shape=partialRectangle;connectable=0;fillColor=#f5f5f5;top=0;left=0;bottom=0;right=0;align=left;spacingLeft=6;fontStyle=0;overflow=hidden;fontColor=#333333;strokeColor=#666666;" parent="V7FUhbb8tERKfh7leYHK-223" vertex="1">
          <mxGeometry x="30" width="150" height="30" as="geometry">
            <mxRectangle width="150" height="30" as="alternateBounds" />
          </mxGeometry>
        </mxCell>
        <mxCell id="V7FUhbb8tERKfh7leYHK-226" style="shape=tableRow;horizontal=0;startSize=0;swimlaneHead=0;swimlaneBody=0;fillColor=#f5f5f5;collapsible=0;dropTarget=0;points=[[0,0.5],[1,0.5]];portConstraint=eastwest;top=0;left=0;right=0;bottom=1;fontColor=#333333;strokeColor=#666666;" parent="V7FUhbb8tERKfh7leYHK-176" vertex="1">
          <mxGeometry y="180" width="180" height="30" as="geometry" />
        </mxCell>
        <mxCell id="V7FUhbb8tERKfh7leYHK-227" style="shape=partialRectangle;connectable=0;fillColor=#f5f5f5;top=0;left=0;bottom=0;right=0;fontStyle=1;overflow=hidden;fontColor=#333333;strokeColor=#666666;" parent="V7FUhbb8tERKfh7leYHK-226" vertex="1">
          <mxGeometry width="30" height="30" as="geometry">
            <mxRectangle width="30" height="30" as="alternateBounds" />
          </mxGeometry>
        </mxCell>
        <mxCell id="V7FUhbb8tERKfh7leYHK-228" value="maior_preço" style="shape=partialRectangle;connectable=0;fillColor=#f5f5f5;top=0;left=0;bottom=0;right=0;align=left;spacingLeft=6;fontStyle=0;overflow=hidden;fontColor=#333333;strokeColor=#666666;" parent="V7FUhbb8tERKfh7leYHK-226" vertex="1">
          <mxGeometry x="30" width="150" height="30" as="geometry">
            <mxRectangle width="150" height="30" as="alternateBounds" />
          </mxGeometry>
        </mxCell>
        <mxCell id="V7FUhbb8tERKfh7leYHK-183" style="edgeStyle=orthogonalEdgeStyle;rounded=0;orthogonalLoop=1;jettySize=auto;html=1;startArrow=ERone;startFill=0;endArrow=ERmany;endFill=0;" parent="1" source="V7FUhbb8tERKfh7leYHK-177" target="V7FUhbb8tERKfh7leYHK-172" edge="1">
          <mxGeometry relative="1" as="geometry" />
        </mxCell>
        <mxCell id="V7FUhbb8tERKfh7leYHK-184" value="Nota Fiscal" style="shape=table;startSize=30;container=1;collapsible=1;childLayout=tableLayout;fixedRows=1;rowLines=0;fontStyle=1;align=center;resizeLast=1;fillColor=#dae8fc;strokeColor=#6c8ebf;" parent="1" vertex="1">
          <mxGeometry x="-762.5" y="850" width="180" height="120" as="geometry">
            <mxRectangle x="70" y="130" width="60" height="30" as="alternateBounds" />
          </mxGeometry>
        </mxCell>
        <mxCell id="V7FUhbb8tERKfh7leYHK-185" value="" style="shape=tableRow;horizontal=0;startSize=0;swimlaneHead=0;swimlaneBody=0;fillColor=none;collapsible=0;dropTarget=0;points=[[0,0.5],[1,0.5]];portConstraint=eastwest;top=0;left=0;right=0;bottom=1;" parent="V7FUhbb8tERKfh7leYHK-184" vertex="1">
          <mxGeometry y="30" width="180" height="30" as="geometry" />
        </mxCell>
        <mxCell id="V7FUhbb8tERKfh7leYHK-186" value="PK" style="shape=partialRectangle;connectable=0;fillColor=#fff2cc;top=0;left=0;bottom=0;right=0;fontStyle=1;overflow=hidden;strokeColor=#d6b656;" parent="V7FUhbb8tERKfh7leYHK-185" vertex="1">
          <mxGeometry width="30" height="30" as="geometry">
            <mxRectangle width="30" height="30" as="alternateBounds" />
          </mxGeometry>
        </mxCell>
        <mxCell id="V7FUhbb8tERKfh7leYHK-187" value="NrNota" style="shape=partialRectangle;connectable=0;fillColor=#f5f5f5;top=0;left=0;bottom=0;right=0;align=left;spacingLeft=6;fontStyle=5;overflow=hidden;fontColor=#333333;strokeColor=#666666;" parent="V7FUhbb8tERKfh7leYHK-185" vertex="1">
          <mxGeometry x="30" width="150" height="30" as="geometry">
            <mxRectangle width="150" height="30" as="alternateBounds" />
          </mxGeometry>
        </mxCell>
        <mxCell id="V7FUhbb8tERKfh7leYHK-188" value="" style="shape=tableRow;horizontal=0;startSize=0;swimlaneHead=0;swimlaneBody=0;fillColor=none;collapsible=0;dropTarget=0;points=[[0,0.5],[1,0.5]];portConstraint=eastwest;top=0;left=0;right=0;bottom=0;" parent="V7FUhbb8tERKfh7leYHK-184" vertex="1">
          <mxGeometry y="60" width="180" height="30" as="geometry" />
        </mxCell>
        <mxCell id="V7FUhbb8tERKfh7leYHK-189" value="" style="shape=partialRectangle;connectable=0;fillColor=#f5f5f5;top=0;left=0;bottom=0;right=0;editable=1;overflow=hidden;fontColor=#333333;strokeColor=#666666;" parent="V7FUhbb8tERKfh7leYHK-188" vertex="1">
          <mxGeometry width="30" height="30" as="geometry">
            <mxRectangle width="30" height="30" as="alternateBounds" />
          </mxGeometry>
        </mxCell>
        <mxCell id="V7FUhbb8tERKfh7leYHK-190" value="Total_Nota" style="shape=partialRectangle;connectable=0;fillColor=#f5f5f5;top=0;left=0;bottom=0;right=0;align=left;spacingLeft=6;overflow=hidden;fontColor=#333333;strokeColor=#666666;" parent="V7FUhbb8tERKfh7leYHK-188" vertex="1">
          <mxGeometry x="30" width="150" height="30" as="geometry">
            <mxRectangle width="150" height="30" as="alternateBounds" />
          </mxGeometry>
        </mxCell>
        <mxCell id="V7FUhbb8tERKfh7leYHK-229" style="shape=tableRow;horizontal=0;startSize=0;swimlaneHead=0;swimlaneBody=0;fillColor=none;collapsible=0;dropTarget=0;points=[[0,0.5],[1,0.5]];portConstraint=eastwest;top=0;left=0;right=0;bottom=0;" parent="V7FUhbb8tERKfh7leYHK-184" vertex="1">
          <mxGeometry y="90" width="180" height="30" as="geometry" />
        </mxCell>
        <mxCell id="V7FUhbb8tERKfh7leYHK-230" style="shape=partialRectangle;connectable=0;fillColor=#f5f5f5;top=0;left=0;bottom=0;right=0;editable=1;overflow=hidden;fontColor=#333333;strokeColor=#666666;" parent="V7FUhbb8tERKfh7leYHK-229" vertex="1">
          <mxGeometry width="30" height="30" as="geometry">
            <mxRectangle width="30" height="30" as="alternateBounds" />
          </mxGeometry>
        </mxCell>
        <mxCell id="V7FUhbb8tERKfh7leYHK-231" value="DT_Nota" style="shape=partialRectangle;connectable=0;fillColor=#f5f5f5;top=0;left=0;bottom=0;right=0;align=left;spacingLeft=6;overflow=hidden;fontColor=#333333;strokeColor=#666666;" parent="V7FUhbb8tERKfh7leYHK-229" vertex="1">
          <mxGeometry x="30" width="150" height="30" as="geometry">
            <mxRectangle width="150" height="30" as="alternateBounds" />
          </mxGeometry>
        </mxCell>
        <mxCell id="V7FUhbb8tERKfh7leYHK-191" style="edgeStyle=orthogonalEdgeStyle;rounded=0;orthogonalLoop=1;jettySize=auto;html=1;startArrow=ERone;startFill=0;endArrow=ERmany;endFill=0;" parent="1" source="V7FUhbb8tERKfh7leYHK-185" target="V7FUhbb8tERKfh7leYHK-169" edge="1">
          <mxGeometry relative="1" as="geometry" />
        </mxCell>
        <mxCell id="V7FUhbb8tERKfh7leYHK-195" style="edgeStyle=orthogonalEdgeStyle;rounded=0;orthogonalLoop=1;jettySize=auto;html=1;entryX=0;entryY=0.5;entryDx=0;entryDy=0;startArrow=none;startFill=0;endArrow=none;endFill=0;" parent="1" source="V7FUhbb8tERKfh7leYHK-192" target="V7FUhbb8tERKfh7leYHK-193" edge="1">
          <mxGeometry relative="1" as="geometry" />
        </mxCell>
        <mxCell id="V7FUhbb8tERKfh7leYHK-192" value="Produto" style="rounded=0;whiteSpace=wrap;html=1;shadow=0;sketch=0;strokeWidth=1;fillColor=#dae8fc;strokeColor=#6c8ebf;" parent="1" vertex="1">
          <mxGeometry x="-747.25" y="1270" width="120" height="60" as="geometry" />
        </mxCell>
        <mxCell id="V7FUhbb8tERKfh7leYHK-196" style="edgeStyle=orthogonalEdgeStyle;rounded=0;orthogonalLoop=1;jettySize=auto;html=1;entryX=0;entryY=0.5;entryDx=0;entryDy=0;startArrow=none;startFill=0;endArrow=none;endFill=0;" parent="1" source="V7FUhbb8tERKfh7leYHK-193" target="V7FUhbb8tERKfh7leYHK-194" edge="1">
          <mxGeometry relative="1" as="geometry" />
        </mxCell>
        <mxCell id="V7FUhbb8tERKfh7leYHK-193" value="Produto-peça" style="rhombus;whiteSpace=wrap;html=1;shadow=0;sketch=0;strokeWidth=1;fillColor=#e1d5e7;strokeColor=#9673a6;" parent="1" vertex="1">
          <mxGeometry x="-432.25" y="1240" width="125" height="120" as="geometry" />
        </mxCell>
        <mxCell id="V7FUhbb8tERKfh7leYHK-194" value="Peça" style="rounded=0;whiteSpace=wrap;html=1;shadow=0;sketch=0;strokeWidth=1;fillColor=#f8cecc;strokeColor=#b85450;" parent="1" vertex="1">
          <mxGeometry x="-107.25" y="1270" width="120" height="60" as="geometry" />
        </mxCell>
        <mxCell id="V7FUhbb8tERKfh7leYHK-197" value="1" style="text;html=1;align=center;verticalAlign=middle;resizable=0;points=[];autosize=1;strokeColor=none;fillColor=none;fontSize=18;fontStyle=1" parent="1" vertex="1">
          <mxGeometry x="-622.25" y="1315" width="30" height="30" as="geometry" />
        </mxCell>
        <mxCell id="V7FUhbb8tERKfh7leYHK-198" value="1" style="text;html=1;align=center;verticalAlign=middle;resizable=0;points=[];autosize=1;strokeColor=none;fillColor=none;fontSize=18;fontStyle=1" parent="1" vertex="1">
          <mxGeometry x="-142.25" y="1315" width="30" height="30" as="geometry" />
        </mxCell>
        <mxCell id="V7FUhbb8tERKfh7leYHK-199" value="N" style="text;html=1;align=center;verticalAlign=middle;resizable=0;points=[];autosize=1;strokeColor=none;fillColor=none;fontStyle=1;fontSize=18;" parent="1" vertex="1">
          <mxGeometry x="-462.25" y="1315" width="30" height="30" as="geometry" />
        </mxCell>
        <mxCell id="V7FUhbb8tERKfh7leYHK-200" value="N" style="text;html=1;align=center;verticalAlign=middle;resizable=0;points=[];autosize=1;strokeColor=none;fillColor=none;fontStyle=1;fontSize=18;" parent="1" vertex="1">
          <mxGeometry x="-328.25" y="1315" width="30" height="30" as="geometry" />
        </mxCell>
        <mxCell id="V7FUhbb8tERKfh7leYHK-202" value="Produto (#IdProduto, nome, qntde)&lt;br&gt;Peça (#IdPeça, nome)&lt;br&gt;Produto-peça (#Produto-peça, &amp;amp;IdProduto, &amp;amp;IdPeça" style="text;html=1;align=left;verticalAlign=middle;resizable=0;points=[];autosize=1;strokeColor=none;fillColor=none;fontSize=18;" parent="1" vertex="1">
          <mxGeometry x="-772.25" y="1520" width="430" height="70" as="geometry" />
        </mxCell>
        <mxCell id="V7FUhbb8tERKfh7leYHK-203" value="Receita &lt;b&gt;N&lt;/b&gt; ---- &lt;b&gt;N&lt;/b&gt; Ingredientes&lt;br&gt;Receita (#cdReceita, nome, qtdeCalorias)&lt;br&gt;Ingredientes (#IdIngred, Nome, preço)&lt;br&gt;Rec_Ingred (#IdRec_Ingred, &amp;amp;cdReceita, &amp;amp;IdIngred, qtde, Modo_preparo" style="text;html=1;align=left;verticalAlign=middle;resizable=0;points=[];autosize=1;strokeColor=none;fillColor=none;fontSize=18;" parent="1" vertex="1">
          <mxGeometry x="-762.5" y="600" width="600" height="90" as="geometry" />
        </mxCell>
        <mxCell id="V7FUhbb8tERKfh7leYHK-216" value="Nota Fiscal &lt;b&gt;N &lt;/b&gt;----- &lt;b&gt;N&lt;/b&gt;&amp;nbsp;Produto&lt;br&gt;NotaFiscal (#NrNota, Total_Nota, Dt_Nota)&lt;br&gt;Produto (#IdProduto, Produto, Peso, Preço, menor_preço, maior_preço&lt;br&gt;Itens_Nota (#idItens_Nota, &amp;amp;idProduto, &amp;amp;IdNota, valor_nota)" style="text;html=1;align=left;verticalAlign=middle;resizable=0;points=[];autosize=1;strokeColor=none;fillColor=none;fontSize=18;" parent="1" vertex="1">
          <mxGeometry x="-762.5" y="1070" width="580" height="90" as="geometry" />
        </mxCell>
        <mxCell id="V7FUhbb8tERKfh7leYHK-259" value="&lt;div style=&quot;text-align: justify;&quot;&gt;&lt;span style=&quot;font-size: 40px; background-color: initial;&quot;&gt;Estudo de caso&lt;/span&gt;&lt;/div&gt;" style="text;html=1;align=center;verticalAlign=middle;resizable=0;points=[];autosize=1;fontSize=18;" parent="1" vertex="1">
          <mxGeometry x="-570" y="1840" width="290" height="40" as="geometry" />
        </mxCell>
        <mxCell id="V7FUhbb8tERKfh7leYHK-260" value="&lt;font style=&quot;font-size: 20px;&quot;&gt;ler o enunciado de inteiro;&lt;br&gt;ler e identificar as entidades;&lt;br&gt;ler e identificar os relacionamentos; (&lt;font color=&quot;#ff1212&quot;&gt;possui, trabalha com, aluga, contrata&lt;/font&gt;)&lt;br&gt;substituir os relacionamentos N-N pelas entidades associativas;&amp;nbsp;&lt;br&gt;identificar os campos de tabelas básicas;&lt;br&gt;identificar as chaves primárias das tabelas básicas;&lt;br&gt;identificar as chaves estrangeiras;&lt;br&gt;identificar os outros campos das tabelas associativas;&lt;br&gt;identificar as chaves primárias das tabelas associativas;&lt;br&gt;identificar os atributos dos campos (tipos dos dados) de todas&amp;nbsp;&lt;br&gt;&lt;/font&gt;" style="text;html=1;align=left;verticalAlign=middle;resizable=0;points=[];autosize=1;strokeColor=none;fillColor=none;fontSize=40;" parent="1" vertex="1">
          <mxGeometry x="-792.25" y="1940" width="680" height="560" as="geometry" />
        </mxCell>
        <mxCell id="V7FUhbb8tERKfh7leYHK-261" value="&lt;font color=&quot;#000000&quot;&gt;Elaborar o modelo entidade relacionamento, bem como identificar os atributos de cada entidade e relacionamentos, para uma vídeo locadora, sabendo-se que:&lt;br&gt;cada &lt;b&gt;título&lt;/b&gt; possui &lt;b&gt;DVD&#39;s&lt;/b&gt; os quais são &lt;u&gt;alugados&lt;/u&gt; pelos &lt;b&gt;clientes&lt;/b&gt;;&lt;br&gt;os DVDS possuem um local fixo para serem guardados, conforme seu código;&lt;br&gt;o cliente pode &lt;u&gt;reservar&lt;/u&gt; os títulos que estejam emprestados para outros clientes;&lt;br&gt;Os títulos estão classificados em &lt;b&gt;categorias&lt;/b&gt; como por exemplo: Comédia, drama, terror;entre outros.&lt;br&gt;&lt;br&gt;&lt;br&gt;&lt;/font&gt;" style="text;html=1;align=left;verticalAlign=middle;resizable=0;points=[];autosize=1;strokeColor=none;fillColor=none;fontSize=20;fontColor=#FF1212;" parent="1" vertex="1">
          <mxGeometry x="-792.25" y="2500" width="1430" height="170" as="geometry" />
        </mxCell>
        <mxCell id="V7FUhbb8tERKfh7leYHK-271" value="Elaborar o diagrama de entidades relacionamentos , bem como identificar os atributos e relacionamentos para cada entidade,&lt;br&gt;&amp;nbsp;para uma escola genérica onde precisamos guardar informações sobre&lt;br&gt;&lt;b&gt;turma, alunos, matérias e professores.&amp;nbsp;&lt;/b&gt;" style="text;html=1;align=left;verticalAlign=middle;resizable=0;points=[];autosize=1;strokeColor=none;fillColor=none;fontSize=20;fontColor=#000000;" parent="1" vertex="1">
          <mxGeometry x="-792.25" y="2670" width="1130" height="80" as="geometry" />
        </mxCell>
        <mxCell id="V7FUhbb8tERKfh7leYHK-272" value="Turma (#idTurma, qtde_aluno&lt;br&gt;alunos (#idAluno, idade, série, média)&lt;br&gt;matérias (&lt;br&gt;professores" style="text;html=1;align=left;verticalAlign=middle;resizable=0;points=[];autosize=1;strokeColor=none;fillColor=none;fontSize=20;fontColor=#000000;" parent="1" vertex="1">
          <mxGeometry x="-792.25" y="3110" width="350" height="100" as="geometry" />
        </mxCell>
        <mxCell id="V7FUhbb8tERKfh7leYHK-274" value="&lt;div style=&quot;text-align: left;&quot;&gt;&lt;span style=&quot;background-color: initial;&quot;&gt;turma 1---N&amp;nbsp;alunos&lt;/span&gt;&lt;/div&gt;&lt;div style=&quot;text-align: left;&quot;&gt;&lt;span style=&quot;background-color: initial;&quot;&gt;alunos N---N professores&lt;/span&gt;&lt;/div&gt;&lt;div style=&quot;text-align: left;&quot;&gt;&lt;span style=&quot;background-color: initial;&quot;&gt;matérias N----N professores&lt;/span&gt;&lt;/div&gt;&lt;div style=&quot;text-align: left;&quot;&gt;&lt;span style=&quot;background-color: initial;&quot;&gt;alunos&amp;nbsp; N---N&amp;nbsp; matérias&lt;/span&gt;&lt;/div&gt;" style="text;html=1;align=center;verticalAlign=middle;resizable=0;points=[];autosize=1;strokeColor=none;fillColor=none;fontSize=20;fontColor=#000000;" parent="1" vertex="1">
          <mxGeometry x="-792.25" y="2823" width="260" height="100" as="geometry" />
        </mxCell>
        <mxCell id="V7FUhbb8tERKfh7leYHK-289" style="edgeStyle=orthogonalEdgeStyle;rounded=0;orthogonalLoop=1;jettySize=auto;html=1;fontSize=20;fontColor=#000000;startArrow=none;startFill=0;endArrow=none;endFill=0;strokeWidth=4;" parent="1" source="V7FUhbb8tERKfh7leYHK-281" target="V7FUhbb8tERKfh7leYHK-284" edge="1">
          <mxGeometry relative="1" as="geometry" />
        </mxCell>
        <mxCell id="V7FUhbb8tERKfh7leYHK-281" value="Aluno" style="whiteSpace=wrap;html=1;rounded=0;shadow=0;sketch=0;fontSize=20;strokeWidth=4;gradientDirection=south;fontStyle=1;fillColor=#fff2cc;strokeColor=#d6b656;labelBackgroundColor=none;labelBorderColor=none;fontColor=#000000;" parent="1" vertex="1">
          <mxGeometry x="30" y="3447" width="120" height="60" as="geometry" />
        </mxCell>
        <mxCell id="V7FUhbb8tERKfh7leYHK-288" style="rounded=0;orthogonalLoop=1;jettySize=auto;html=1;fontSize=20;fontColor=#A680B8;startArrow=none;startFill=0;endArrow=none;endFill=0;strokeWidth=4;" parent="1" source="V7FUhbb8tERKfh7leYHK-303" target="V7FUhbb8tERKfh7leYHK-281" edge="1">
          <mxGeometry relative="1" as="geometry" />
        </mxCell>
        <mxCell id="V7FUhbb8tERKfh7leYHK-290" style="edgeStyle=orthogonalEdgeStyle;rounded=0;orthogonalLoop=1;jettySize=auto;html=1;fontSize=20;fontColor=#A680B8;startArrow=none;startFill=0;endArrow=none;endFill=0;strokeWidth=4;" parent="1" source="V7FUhbb8tERKfh7leYHK-282" target="V7FUhbb8tERKfh7leYHK-283" edge="1">
          <mxGeometry relative="1" as="geometry" />
        </mxCell>
        <mxCell id="V7FUhbb8tERKfh7leYHK-282" value="turma" style="whiteSpace=wrap;html=1;rounded=0;shadow=0;sketch=0;fontSize=20;strokeWidth=4;gradientDirection=south;fontStyle=1;fillColor=#fff2cc;strokeColor=#d6b656;labelBackgroundColor=none;labelBorderColor=none;fontColor=#000000;" parent="1" vertex="1">
          <mxGeometry x="-712.25" y="3447" width="120" height="60" as="geometry" />
        </mxCell>
        <mxCell id="V7FUhbb8tERKfh7leYHK-291" style="edgeStyle=orthogonalEdgeStyle;rounded=0;orthogonalLoop=1;jettySize=auto;html=1;fontSize=20;fontColor=#000000;startArrow=none;startFill=0;endArrow=none;endFill=0;" parent="1" source="V7FUhbb8tERKfh7leYHK-305" target="V7FUhbb8tERKfh7leYHK-284" edge="1">
          <mxGeometry relative="1" as="geometry" />
        </mxCell>
        <mxCell id="V7FUhbb8tERKfh7leYHK-283" value="professores" style="whiteSpace=wrap;html=1;rounded=0;shadow=0;sketch=0;fontSize=20;strokeWidth=4;gradientDirection=south;fontStyle=1;fillColor=#fff2cc;strokeColor=#d6b656;labelBackgroundColor=none;labelBorderColor=none;fontColor=#000000;" parent="1" vertex="1">
          <mxGeometry x="-712.5" y="3940" width="120" height="60" as="geometry" />
        </mxCell>
        <mxCell id="V7FUhbb8tERKfh7leYHK-284" value="matérias" style="whiteSpace=wrap;html=1;rounded=0;shadow=0;sketch=0;fontSize=20;strokeWidth=4;gradientDirection=south;fontStyle=1;fillColor=#fff2cc;strokeColor=#d6b656;labelBackgroundColor=none;labelBorderColor=none;fontColor=#000000;" parent="1" vertex="1">
          <mxGeometry x="30" y="3940" width="120" height="60" as="geometry" />
        </mxCell>
        <mxCell id="V7FUhbb8tERKfh7leYHK-285" value="Turma N --- N matérias" style="text;html=1;align=left;verticalAlign=middle;resizable=0;points=[];autosize=1;strokeColor=none;fillColor=none;fontSize=20;fontColor=#000000;rotation=0;" parent="1" vertex="1">
          <mxGeometry x="-792.25" y="2923" width="220" height="30" as="geometry" />
        </mxCell>
        <mxCell id="V7FUhbb8tERKfh7leYHK-292" value="&lt;b&gt;N&lt;/b&gt;" style="text;html=1;align=center;verticalAlign=middle;resizable=0;points=[];autosize=1;strokeColor=none;fillColor=none;fontSize=20;fontColor=#000000;" parent="1" vertex="1">
          <mxGeometry x="-384.75" y="3440" width="30" height="30" as="geometry" />
        </mxCell>
        <mxCell id="V7FUhbb8tERKfh7leYHK-293" value="&lt;b&gt;N&lt;/b&gt;" style="text;html=1;align=center;verticalAlign=middle;resizable=0;points=[];autosize=1;strokeColor=none;fillColor=none;fontSize=20;fontColor=#000000;" parent="1" vertex="1">
          <mxGeometry x="-222.5" y="3440" width="30" height="30" as="geometry" />
        </mxCell>
        <mxCell id="V7FUhbb8tERKfh7leYHK-294" value="&lt;b&gt;N&lt;/b&gt;" style="text;html=1;align=center;verticalAlign=middle;resizable=0;points=[];autosize=1;strokeColor=none;fillColor=none;fontSize=20;fontColor=#000000;" parent="1" vertex="1">
          <mxGeometry x="-384.75" y="3940" width="30" height="30" as="geometry" />
        </mxCell>
        <mxCell id="V7FUhbb8tERKfh7leYHK-295" value="&lt;b&gt;N&lt;/b&gt;" style="text;html=1;align=center;verticalAlign=middle;resizable=0;points=[];autosize=1;strokeColor=none;fillColor=none;fontSize=20;fontColor=#000000;" parent="1" vertex="1">
          <mxGeometry x="87.5" y="3750" width="30" height="30" as="geometry" />
        </mxCell>
        <mxCell id="V7FUhbb8tERKfh7leYHK-297" value="&lt;b&gt;N&lt;/b&gt;" style="text;html=1;align=center;verticalAlign=middle;resizable=0;points=[];autosize=1;strokeColor=none;fillColor=none;fontSize=20;fontColor=#000000;" parent="1" vertex="1">
          <mxGeometry x="95" y="3630" width="30" height="30" as="geometry" />
        </mxCell>
        <mxCell id="V7FUhbb8tERKfh7leYHK-298" value="&lt;b&gt;N&lt;/b&gt;" style="text;html=1;align=center;verticalAlign=middle;resizable=0;points=[];autosize=1;strokeColor=none;fillColor=none;fontSize=20;fontColor=#000000;" parent="1" vertex="1">
          <mxGeometry x="-222.5" y="3940" width="30" height="30" as="geometry" />
        </mxCell>
        <mxCell id="V7FUhbb8tERKfh7leYHK-299" value="&lt;b style=&quot;color: rgb(0, 0, 0); font-family: Helvetica; font-size: 20px; font-style: normal; font-variant-ligatures: normal; font-variant-caps: normal; letter-spacing: normal; orphans: 2; text-align: center; text-indent: 0px; text-transform: none; widows: 2; word-spacing: 0px; -webkit-text-stroke-width: 0px; background-color: rgb(248, 249, 250); text-decoration-thickness: initial; text-decoration-style: initial; text-decoration-color: initial;&quot;&gt;N&lt;/b&gt;" style="text;whiteSpace=wrap;html=1;fontSize=20;fontColor=#000000;" parent="1" vertex="1">
          <mxGeometry x="-650" y="3600" width="40" height="40" as="geometry" />
        </mxCell>
        <mxCell id="V7FUhbb8tERKfh7leYHK-300" value="&lt;b&gt;N&lt;/b&gt;" style="text;html=1;align=center;verticalAlign=middle;resizable=0;points=[];autosize=1;strokeColor=none;fillColor=none;fontSize=20;fontColor=#000000;" parent="1" vertex="1">
          <mxGeometry x="-650" y="3740" width="30" height="30" as="geometry" />
        </mxCell>
        <mxCell id="V7FUhbb8tERKfh7leYHK-301" value="grade_hora" style="rhombus;whiteSpace=wrap;html=1;rounded=0;shadow=0;sketch=0;fontSize=20;strokeWidth=4;gradientDirection=south;fontStyle=1;fillColor=#fff2cc;strokeColor=#d6b656;labelBackgroundColor=none;labelBorderColor=none;fontColor=#000000;" parent="1" vertex="1">
          <mxGeometry x="-724.75" y="3630" width="142.25" height="110" as="geometry" />
        </mxCell>
        <mxCell id="V7FUhbb8tERKfh7leYHK-302" value="boletim" style="rhombus;whiteSpace=wrap;html=1;rounded=0;shadow=0;sketch=0;fontSize=20;strokeWidth=4;gradientDirection=south;fontStyle=1;fillColor=#fff2cc;strokeColor=#d6b656;labelBackgroundColor=none;labelBorderColor=none;fontColor=#000000;" parent="1" vertex="1">
          <mxGeometry x="20" y="3650" width="140" height="100" as="geometry" />
        </mxCell>
        <mxCell id="V7FUhbb8tERKfh7leYHK-303" value="ensalamento" style="rhombus;whiteSpace=wrap;html=1;rounded=0;shadow=0;sketch=0;fontSize=20;strokeWidth=4;gradientDirection=south;fontStyle=1;fillColor=#fff2cc;strokeColor=#d6b656;labelBackgroundColor=none;labelBorderColor=none;fontColor=#000000;" parent="1" vertex="1">
          <mxGeometry x="-360" y="3417" width="150" height="120" as="geometry" />
        </mxCell>
        <mxCell id="V7FUhbb8tERKfh7leYHK-304" value="" style="rounded=0;orthogonalLoop=1;jettySize=auto;html=1;fontSize=20;fontColor=#A680B8;startArrow=none;startFill=0;endArrow=none;endFill=0;strokeWidth=4;" parent="1" source="V7FUhbb8tERKfh7leYHK-282" target="V7FUhbb8tERKfh7leYHK-303" edge="1">
          <mxGeometry relative="1" as="geometry">
            <mxPoint x="-592.25" y="3477" as="sourcePoint" />
            <mxPoint x="30" y="3477" as="targetPoint" />
          </mxGeometry>
        </mxCell>
        <mxCell id="V7FUhbb8tERKfh7leYHK-305" value="grade_2" style="rhombus;whiteSpace=wrap;html=1;rounded=0;shadow=0;sketch=0;fontSize=20;strokeWidth=4;gradientDirection=south;fontStyle=1;fillColor=#fff2cc;strokeColor=#d6b656;labelBackgroundColor=none;labelBorderColor=none;fontColor=#000000;" parent="1" vertex="1">
          <mxGeometry x="-360" y="3910" width="150" height="120" as="geometry" />
        </mxCell>
        <mxCell id="V7FUhbb8tERKfh7leYHK-306" value="" style="edgeStyle=orthogonalEdgeStyle;rounded=0;orthogonalLoop=1;jettySize=auto;html=1;fontSize=20;fontColor=#A680B8;startArrow=none;startFill=0;endArrow=none;endFill=0;strokeWidth=4;" parent="1" source="V7FUhbb8tERKfh7leYHK-283" target="V7FUhbb8tERKfh7leYHK-305" edge="1">
          <mxGeometry relative="1" as="geometry">
            <mxPoint x="-592.5000000000005" y="3970" as="sourcePoint" />
            <mxPoint x="30" y="3970" as="targetPoint" />
          </mxGeometry>
        </mxCell>
        <mxCell id="V7FUhbb8tERKfh7leYHK-307" value="&lt;b&gt;1&lt;/b&gt;" style="text;html=1;align=center;verticalAlign=middle;resizable=0;points=[];autosize=1;strokeColor=none;fillColor=none;fontSize=20;fontColor=#000000;" parent="1" vertex="1">
          <mxGeometry x="-592.5" y="3477" width="30" height="30" as="geometry" />
        </mxCell>
        <mxCell id="V7FUhbb8tERKfh7leYHK-308" value="&lt;b&gt;1&lt;/b&gt;" style="text;html=1;align=center;verticalAlign=middle;resizable=0;points=[];autosize=1;strokeColor=none;fillColor=none;fontSize=20;fontColor=#000000;" parent="1" vertex="1">
          <mxGeometry x="-657.25" y="3507" width="30" height="30" as="geometry" />
        </mxCell>
        <mxCell id="V7FUhbb8tERKfh7leYHK-309" value="&lt;b&gt;1&lt;/b&gt;" style="text;html=1;align=center;verticalAlign=middle;resizable=0;points=[];autosize=1;strokeColor=none;fillColor=none;fontSize=20;fontColor=#000000;" parent="1" vertex="1">
          <mxGeometry x="57.5" y="3910" width="30" height="30" as="geometry" />
        </mxCell>
        <mxCell id="V7FUhbb8tERKfh7leYHK-310" value="&lt;b&gt;1&lt;/b&gt;" style="text;html=1;align=center;verticalAlign=middle;resizable=0;points=[];autosize=1;strokeColor=none;fillColor=none;fontSize=20;fontColor=#000000;" parent="1" vertex="1">
          <mxGeometry x="57.5" y="3510" width="30" height="30" as="geometry" />
        </mxCell>
        <mxCell id="V7FUhbb8tERKfh7leYHK-311" value="&lt;b&gt;1&lt;/b&gt;" style="text;html=1;align=center;verticalAlign=middle;resizable=0;points=[];autosize=1;strokeColor=none;fillColor=none;fontSize=20;fontColor=#000000;" parent="1" vertex="1">
          <mxGeometry y="3480" width="30" height="30" as="geometry" />
        </mxCell>
        <mxCell id="V7FUhbb8tERKfh7leYHK-312" value="&lt;b&gt;1&lt;/b&gt;" style="text;html=1;align=center;verticalAlign=middle;resizable=0;points=[];autosize=1;strokeColor=none;fillColor=none;fontSize=20;fontColor=#000000;" parent="1" vertex="1">
          <mxGeometry y="3940" width="30" height="30" as="geometry" />
        </mxCell>
        <mxCell id="V7FUhbb8tERKfh7leYHK-313" value="&lt;b&gt;1&lt;/b&gt;" style="text;html=1;align=center;verticalAlign=middle;resizable=0;points=[];autosize=1;strokeColor=none;fillColor=none;fontSize=20;fontColor=#000000;" parent="1" vertex="1">
          <mxGeometry x="-592.5" y="3940" width="30" height="30" as="geometry" />
        </mxCell>
        <mxCell id="V7FUhbb8tERKfh7leYHK-314" value="&lt;b&gt;1&lt;/b&gt;" style="text;html=1;align=center;verticalAlign=middle;resizable=0;points=[];autosize=1;strokeColor=none;fillColor=none;fontSize=20;fontColor=#000000;" parent="1" vertex="1">
          <mxGeometry x="-650" y="3910" width="30" height="30" as="geometry" />
        </mxCell>
        <mxCell id="RLxwgoSpKKGLo3sov7BY-2" style="edgeStyle=orthogonalEdgeStyle;rounded=0;orthogonalLoop=1;jettySize=auto;html=1;fontSize=20;fontColor=#A680B8;startArrow=none;startFill=0;endArrow=none;endFill=0;strokeWidth=4;" edge="1" parent="1">
          <mxGeometry relative="1" as="geometry">
            <mxPoint x="-210" y="3970" as="sourcePoint" />
            <mxPoint x="30" y="3970" as="targetPoint" />
          </mxGeometry>
        </mxCell>
        <mxCell id="RLxwgoSpKKGLo3sov7BY-6" style="edgeStyle=orthogonalEdgeStyle;rounded=0;orthogonalLoop=1;jettySize=auto;html=1;fontSize=20;fontColor=#000000;startArrow=none;startFill=0;endArrow=none;endFill=0;strokeWidth=4;" edge="1" parent="1" source="RLxwgoSpKKGLo3sov7BY-7" target="RLxwgoSpKKGLo3sov7BY-13">
          <mxGeometry relative="1" as="geometry" />
        </mxCell>
        <mxCell id="RLxwgoSpKKGLo3sov7BY-7" value="Aluno" style="whiteSpace=wrap;html=1;rounded=0;shadow=0;sketch=0;fontSize=20;strokeWidth=4;gradientDirection=south;fontStyle=1;fillColor=#fff2cc;strokeColor=#d6b656;labelBackgroundColor=none;labelBorderColor=none;fontColor=#000000;" vertex="1" parent="1">
          <mxGeometry x="64.75" y="4170" width="120" height="60" as="geometry" />
        </mxCell>
        <mxCell id="RLxwgoSpKKGLo3sov7BY-8" style="rounded=0;orthogonalLoop=1;jettySize=auto;html=1;fontSize=20;fontColor=#A680B8;startArrow=none;startFill=0;endArrow=none;endFill=0;strokeWidth=4;" edge="1" parent="1" source="RLxwgoSpKKGLo3sov7BY-24" target="RLxwgoSpKKGLo3sov7BY-7">
          <mxGeometry relative="1" as="geometry" />
        </mxCell>
        <mxCell id="RLxwgoSpKKGLo3sov7BY-9" style="edgeStyle=orthogonalEdgeStyle;rounded=0;orthogonalLoop=1;jettySize=auto;html=1;fontSize=20;fontColor=#A680B8;startArrow=none;startFill=0;endArrow=none;endFill=0;strokeWidth=4;entryX=0.5;entryY=0;entryDx=0;entryDy=0;" edge="1" parent="1" source="RLxwgoSpKKGLo3sov7BY-10" target="RLxwgoSpKKGLo3sov7BY-26">
          <mxGeometry relative="1" as="geometry">
            <mxPoint x="-618.875" y="4353" as="targetPoint" />
            <Array as="points">
              <mxPoint x="-617" y="4450" />
              <mxPoint x="-250" y="4450" />
            </Array>
          </mxGeometry>
        </mxCell>
        <mxCell id="RLxwgoSpKKGLo3sov7BY-10" value="turma" style="whiteSpace=wrap;html=1;rounded=0;shadow=0;sketch=0;fontSize=20;strokeWidth=4;gradientDirection=south;fontStyle=1;fillColor=#fff2cc;strokeColor=#d6b656;labelBackgroundColor=none;labelBorderColor=none;fontColor=#000000;" vertex="1" parent="1">
          <mxGeometry x="-677.5" y="4170" width="120" height="60" as="geometry" />
        </mxCell>
        <mxCell id="RLxwgoSpKKGLo3sov7BY-11" style="edgeStyle=orthogonalEdgeStyle;rounded=0;orthogonalLoop=1;jettySize=auto;html=1;fontSize=20;fontColor=#000000;startArrow=none;startFill=0;endArrow=none;endFill=0;" edge="1" parent="1" source="RLxwgoSpKKGLo3sov7BY-26" target="RLxwgoSpKKGLo3sov7BY-13">
          <mxGeometry relative="1" as="geometry" />
        </mxCell>
        <mxCell id="RLxwgoSpKKGLo3sov7BY-12" value="professores" style="whiteSpace=wrap;html=1;rounded=0;shadow=0;sketch=0;fontSize=20;strokeWidth=4;gradientDirection=south;fontStyle=1;fillColor=#fff2cc;strokeColor=#d6b656;labelBackgroundColor=none;labelBorderColor=none;fontColor=#000000;" vertex="1" parent="1">
          <mxGeometry x="-677.75" y="4663" width="120" height="60" as="geometry" />
        </mxCell>
        <mxCell id="RLxwgoSpKKGLo3sov7BY-13" value="matérias" style="whiteSpace=wrap;html=1;rounded=0;shadow=0;sketch=0;fontSize=20;strokeWidth=4;gradientDirection=south;fontStyle=1;fillColor=#fff2cc;strokeColor=#d6b656;labelBackgroundColor=none;labelBorderColor=none;fontColor=#000000;" vertex="1" parent="1">
          <mxGeometry x="64.75" y="4663" width="120" height="60" as="geometry" />
        </mxCell>
        <mxCell id="RLxwgoSpKKGLo3sov7BY-14" value="&lt;b&gt;N&lt;/b&gt;" style="text;html=1;align=center;verticalAlign=middle;resizable=0;points=[];autosize=1;strokeColor=none;fillColor=none;fontSize=20;fontColor=#000000;" vertex="1" parent="1">
          <mxGeometry x="-350" y="4163" width="30" height="30" as="geometry" />
        </mxCell>
        <mxCell id="RLxwgoSpKKGLo3sov7BY-15" value="&lt;b&gt;N&lt;/b&gt;" style="text;html=1;align=center;verticalAlign=middle;resizable=0;points=[];autosize=1;strokeColor=none;fillColor=none;fontSize=20;fontColor=#000000;" vertex="1" parent="1">
          <mxGeometry x="-187.75" y="4163" width="30" height="30" as="geometry" />
        </mxCell>
        <mxCell id="RLxwgoSpKKGLo3sov7BY-16" value="&lt;b&gt;N&lt;/b&gt;" style="text;html=1;align=center;verticalAlign=middle;resizable=0;points=[];autosize=1;strokeColor=none;fillColor=none;fontSize=20;fontColor=#000000;" vertex="1" parent="1">
          <mxGeometry x="-350" y="4663" width="30" height="30" as="geometry" />
        </mxCell>
        <mxCell id="RLxwgoSpKKGLo3sov7BY-17" value="&lt;b&gt;N&lt;/b&gt;" style="text;html=1;align=center;verticalAlign=middle;resizable=0;points=[];autosize=1;strokeColor=none;fillColor=none;fontSize=20;fontColor=#000000;" vertex="1" parent="1">
          <mxGeometry x="122.25" y="4473" width="30" height="30" as="geometry" />
        </mxCell>
        <mxCell id="RLxwgoSpKKGLo3sov7BY-18" value="&lt;b&gt;N&lt;/b&gt;" style="text;html=1;align=center;verticalAlign=middle;resizable=0;points=[];autosize=1;strokeColor=none;fillColor=none;fontSize=20;fontColor=#000000;" vertex="1" parent="1">
          <mxGeometry x="129.75" y="4353" width="30" height="30" as="geometry" />
        </mxCell>
        <mxCell id="RLxwgoSpKKGLo3sov7BY-19" value="&lt;b&gt;N&lt;/b&gt;" style="text;html=1;align=center;verticalAlign=middle;resizable=0;points=[];autosize=1;strokeColor=none;fillColor=none;fontSize=20;fontColor=#000000;" vertex="1" parent="1">
          <mxGeometry x="-187.75" y="4663" width="30" height="30" as="geometry" />
        </mxCell>
        <mxCell id="RLxwgoSpKKGLo3sov7BY-20" value="&lt;b style=&quot;color: rgb(0, 0, 0); font-family: Helvetica; font-size: 20px; font-style: normal; font-variant-ligatures: normal; font-variant-caps: normal; letter-spacing: normal; orphans: 2; text-align: center; text-indent: 0px; text-transform: none; widows: 2; word-spacing: 0px; -webkit-text-stroke-width: 0px; background-color: rgb(248, 249, 250); text-decoration-thickness: initial; text-decoration-style: initial; text-decoration-color: initial;&quot;&gt;N&lt;/b&gt;" style="text;whiteSpace=wrap;html=1;fontSize=20;fontColor=#000000;" vertex="1" parent="1">
          <mxGeometry x="-247.25" y="4600" width="40" height="40" as="geometry" />
        </mxCell>
        <mxCell id="RLxwgoSpKKGLo3sov7BY-23" value="boletim" style="rhombus;whiteSpace=wrap;html=1;rounded=0;shadow=0;sketch=0;fontSize=20;strokeWidth=4;gradientDirection=south;fontStyle=1;fillColor=#fff2cc;strokeColor=#d6b656;labelBackgroundColor=none;labelBorderColor=none;fontColor=#000000;" vertex="1" parent="1">
          <mxGeometry x="54.75" y="4373" width="140" height="100" as="geometry" />
        </mxCell>
        <mxCell id="RLxwgoSpKKGLo3sov7BY-24" value="ensalamento" style="rhombus;whiteSpace=wrap;html=1;rounded=0;shadow=0;sketch=0;fontSize=20;strokeWidth=4;gradientDirection=south;fontStyle=1;fillColor=#fff2cc;strokeColor=#d6b656;labelBackgroundColor=none;labelBorderColor=none;fontColor=#000000;" vertex="1" parent="1">
          <mxGeometry x="-325.25" y="4140" width="150" height="120" as="geometry" />
        </mxCell>
        <mxCell id="RLxwgoSpKKGLo3sov7BY-25" value="" style="rounded=0;orthogonalLoop=1;jettySize=auto;html=1;fontSize=20;fontColor=#A680B8;startArrow=none;startFill=0;endArrow=none;endFill=0;strokeWidth=4;" edge="1" parent="1" source="RLxwgoSpKKGLo3sov7BY-10" target="RLxwgoSpKKGLo3sov7BY-24">
          <mxGeometry relative="1" as="geometry">
            <mxPoint x="-557.5" y="4200" as="sourcePoint" />
            <mxPoint x="64.75" y="4200" as="targetPoint" />
          </mxGeometry>
        </mxCell>
        <mxCell id="RLxwgoSpKKGLo3sov7BY-26" value="Grade_horario" style="rhombus;whiteSpace=wrap;html=1;rounded=0;shadow=0;sketch=0;fontSize=20;strokeWidth=4;gradientDirection=south;fontStyle=1;fillColor=#fff2cc;strokeColor=#d6b656;labelBackgroundColor=none;labelBorderColor=none;fontColor=#000000;" vertex="1" parent="1">
          <mxGeometry x="-325.25" y="4633" width="150" height="120" as="geometry" />
        </mxCell>
        <mxCell id="RLxwgoSpKKGLo3sov7BY-27" value="" style="edgeStyle=orthogonalEdgeStyle;rounded=0;orthogonalLoop=1;jettySize=auto;html=1;fontSize=20;fontColor=#A680B8;startArrow=none;startFill=0;endArrow=none;endFill=0;strokeWidth=4;" edge="1" parent="1" source="RLxwgoSpKKGLo3sov7BY-12" target="RLxwgoSpKKGLo3sov7BY-26">
          <mxGeometry relative="1" as="geometry">
            <mxPoint x="-557.7500000000005" y="4693" as="sourcePoint" />
            <mxPoint x="64.75" y="4693" as="targetPoint" />
          </mxGeometry>
        </mxCell>
        <mxCell id="RLxwgoSpKKGLo3sov7BY-28" value="&lt;b&gt;1&lt;/b&gt;" style="text;html=1;align=center;verticalAlign=middle;resizable=0;points=[];autosize=1;strokeColor=none;fillColor=none;fontSize=20;fontColor=#000000;" vertex="1" parent="1">
          <mxGeometry x="-557.75" y="4200" width="30" height="30" as="geometry" />
        </mxCell>
        <mxCell id="RLxwgoSpKKGLo3sov7BY-29" value="&lt;b&gt;1&lt;/b&gt;" style="text;html=1;align=center;verticalAlign=middle;resizable=0;points=[];autosize=1;strokeColor=none;fillColor=none;fontSize=20;fontColor=#000000;" vertex="1" parent="1">
          <mxGeometry x="-622.5" y="4230" width="30" height="30" as="geometry" />
        </mxCell>
        <mxCell id="RLxwgoSpKKGLo3sov7BY-30" value="&lt;b&gt;1&lt;/b&gt;" style="text;html=1;align=center;verticalAlign=middle;resizable=0;points=[];autosize=1;strokeColor=none;fillColor=none;fontSize=20;fontColor=#000000;" vertex="1" parent="1">
          <mxGeometry x="92.25" y="4633" width="30" height="30" as="geometry" />
        </mxCell>
        <mxCell id="RLxwgoSpKKGLo3sov7BY-31" value="&lt;b&gt;1&lt;/b&gt;" style="text;html=1;align=center;verticalAlign=middle;resizable=0;points=[];autosize=1;strokeColor=none;fillColor=none;fontSize=20;fontColor=#000000;" vertex="1" parent="1">
          <mxGeometry x="92.25" y="4233" width="30" height="30" as="geometry" />
        </mxCell>
        <mxCell id="RLxwgoSpKKGLo3sov7BY-32" value="&lt;b&gt;1&lt;/b&gt;" style="text;html=1;align=center;verticalAlign=middle;resizable=0;points=[];autosize=1;strokeColor=none;fillColor=none;fontSize=20;fontColor=#000000;" vertex="1" parent="1">
          <mxGeometry x="34.75" y="4203" width="30" height="30" as="geometry" />
        </mxCell>
        <mxCell id="RLxwgoSpKKGLo3sov7BY-33" value="&lt;b&gt;1&lt;/b&gt;" style="text;html=1;align=center;verticalAlign=middle;resizable=0;points=[];autosize=1;strokeColor=none;fillColor=none;fontSize=20;fontColor=#000000;" vertex="1" parent="1">
          <mxGeometry x="34.75" y="4663" width="30" height="30" as="geometry" />
        </mxCell>
        <mxCell id="RLxwgoSpKKGLo3sov7BY-34" value="&lt;b&gt;1&lt;/b&gt;" style="text;html=1;align=center;verticalAlign=middle;resizable=0;points=[];autosize=1;strokeColor=none;fillColor=none;fontSize=20;fontColor=#000000;" vertex="1" parent="1">
          <mxGeometry x="-557.75" y="4663" width="30" height="30" as="geometry" />
        </mxCell>
        <mxCell id="RLxwgoSpKKGLo3sov7BY-35" value="&lt;b&gt;1&lt;/b&gt;" style="text;html=1;align=center;verticalAlign=middle;resizable=0;points=[];autosize=1;strokeColor=none;fillColor=none;fontSize=20;fontColor=#000000;" vertex="1" parent="1">
          <mxGeometry x="-615.25" y="4633" width="30" height="30" as="geometry" />
        </mxCell>
        <mxCell id="RLxwgoSpKKGLo3sov7BY-36" style="edgeStyle=orthogonalEdgeStyle;rounded=0;orthogonalLoop=1;jettySize=auto;html=1;fontSize=20;fontColor=#A680B8;startArrow=none;startFill=0;endArrow=none;endFill=0;strokeWidth=4;" edge="1" parent="1">
          <mxGeometry relative="1" as="geometry">
            <mxPoint x="-175.25" y="4693" as="sourcePoint" />
            <mxPoint x="64.75" y="4693" as="targetPoint" />
          </mxGeometry>
        </mxCell>
        <mxCell id="RLxwgoSpKKGLo3sov7BY-41" style="edgeStyle=orthogonalEdgeStyle;rounded=0;orthogonalLoop=1;jettySize=auto;html=1;fontSize=20;fontColor=#000000;strokeWidth=4;endArrow=none;endFill=0;" edge="1" parent="1" source="RLxwgoSpKKGLo3sov7BY-37" target="RLxwgoSpKKGLo3sov7BY-39">
          <mxGeometry relative="1" as="geometry" />
        </mxCell>
        <mxCell id="RLxwgoSpKKGLo3sov7BY-45" style="edgeStyle=orthogonalEdgeStyle;rounded=0;orthogonalLoop=1;jettySize=auto;html=1;entryX=0;entryY=0.5;entryDx=0;entryDy=0;fontSize=20;fontColor=#000000;endArrow=none;endFill=0;strokeWidth=4;" edge="1" parent="1" source="RLxwgoSpKKGLo3sov7BY-37" target="RLxwgoSpKKGLo3sov7BY-40">
          <mxGeometry relative="1" as="geometry">
            <Array as="points">
              <mxPoint x="-617.25" y="5090" />
            </Array>
          </mxGeometry>
        </mxCell>
        <mxCell id="RLxwgoSpKKGLo3sov7BY-37" value="&lt;b&gt;Cliente&lt;/b&gt;" style="rounded=0;whiteSpace=wrap;html=1;labelBackgroundColor=none;labelBorderColor=none;fontSize=20;strokeWidth=4;fillColor=#fff2cc;strokeColor=#d6b656;" vertex="1" parent="1">
          <mxGeometry x="-677.5" y="4900" width="120" height="60" as="geometry" />
        </mxCell>
        <mxCell id="RLxwgoSpKKGLo3sov7BY-44" style="edgeStyle=orthogonalEdgeStyle;rounded=0;orthogonalLoop=1;jettySize=auto;html=1;entryX=1;entryY=0.5;entryDx=0;entryDy=0;fontSize=20;fontColor=#000000;endArrow=none;endFill=0;strokeWidth=4;" edge="1" parent="1" source="RLxwgoSpKKGLo3sov7BY-38" target="RLxwgoSpKKGLo3sov7BY-40">
          <mxGeometry relative="1" as="geometry">
            <Array as="points">
              <mxPoint x="-99.25" y="5090" />
            </Array>
          </mxGeometry>
        </mxCell>
        <mxCell id="RLxwgoSpKKGLo3sov7BY-38" value="&lt;b&gt;DVD&lt;/b&gt;" style="rounded=0;whiteSpace=wrap;html=1;labelBackgroundColor=none;labelBorderColor=none;fontSize=20;strokeWidth=4;fillColor=#fff2cc;strokeColor=#D6B656;" vertex="1" parent="1">
          <mxGeometry x="-159.5" y="4900" width="120" height="60" as="geometry" />
        </mxCell>
        <mxCell id="RLxwgoSpKKGLo3sov7BY-42" style="edgeStyle=orthogonalEdgeStyle;rounded=0;orthogonalLoop=1;jettySize=auto;html=1;entryX=0;entryY=0.5;entryDx=0;entryDy=0;fontSize=20;fontColor=#000000;strokeWidth=4;endArrow=none;endFill=0;" edge="1" parent="1" source="RLxwgoSpKKGLo3sov7BY-39" target="RLxwgoSpKKGLo3sov7BY-38">
          <mxGeometry relative="1" as="geometry" />
        </mxCell>
        <mxCell id="RLxwgoSpKKGLo3sov7BY-39" value="&lt;b&gt;Alugar&lt;/b&gt;" style="rhombus;whiteSpace=wrap;html=1;labelBackgroundColor=none;labelBorderColor=none;fontSize=20;strokeWidth=4;fillColor=#fff2cc;strokeColor=#D6B656;" vertex="1" parent="1">
          <mxGeometry x="-422.25" y="4890" width="110" height="80" as="geometry" />
        </mxCell>
        <mxCell id="RLxwgoSpKKGLo3sov7BY-40" value="&lt;b&gt;Reservar&lt;/b&gt;" style="rhombus;whiteSpace=wrap;html=1;labelBackgroundColor=none;labelBorderColor=none;fontSize=20;strokeWidth=4;fillColor=#fff2cc;strokeColor=#d6b656;" vertex="1" parent="1">
          <mxGeometry x="-422.25" y="5050" width="110" height="80" as="geometry" />
        </mxCell>
        <mxCell id="RLxwgoSpKKGLo3sov7BY-46" value="Elaborar o modelo entidade relacionamento, bem como os atributos dos dados de cada entidade e relacionamentos,&lt;br&gt;&amp;nbsp;para a área de controle acadêmico de uma escola genérica, onde temos as seguintes informações:&lt;br&gt;&lt;br&gt;* É composta de &lt;b&gt;diversos departamentos&lt;/b&gt;, os quais podem oferecer&lt;b&gt; diversos cursos&lt;/b&gt;;&lt;br&gt;&lt;br&gt;* &lt;b&gt;Uma&lt;/b&gt; disciplina é &lt;b&gt;oferecida&lt;/b&gt; por &lt;b&gt;um único departamento&lt;/b&gt;;&lt;br&gt;&lt;br&gt;* &lt;b&gt;Todo aluno&lt;/b&gt; está matriculado em &lt;b&gt;único curso&lt;/b&gt;;&lt;br&gt;&lt;br&gt;* Sobre os &lt;b&gt;departamentos&lt;/b&gt; deseja-se saber: &lt;b&gt;código, denominação, e os cursos que o compõem&lt;/b&gt;;&lt;br&gt;&lt;br&gt;* Sobre as &lt;b&gt;disciplinas&lt;/b&gt; deseja-se saber: &lt;b&gt;código, denominação, sigla&lt;/b&gt;;&lt;br&gt;&lt;br&gt;* Quando o &lt;b&gt;aluno&lt;/b&gt; se matricula cadastra-se: &lt;b&gt;matrícula, nome, endereço, telefone, filiação e data de nascimento&lt;/b&gt;;&lt;br&gt;&lt;br&gt;* Para os &lt;b&gt;professores&lt;/b&gt; deseja-se armazenar: &lt;b&gt;código, nome, formação, endereço, telefone&lt;/b&gt;;&lt;br&gt;&lt;br&gt;* Para os &lt;b&gt;cursos&lt;/b&gt;, deseja-se sobre: &lt;b&gt;código, denominação, sigla.&lt;/b&gt;" style="text;html=1;align=left;verticalAlign=middle;resizable=0;points=[];autosize=1;strokeColor=none;fillColor=none;fontSize=20;fontColor=#000000;" vertex="1" parent="1">
          <mxGeometry x="-752.25" y="5180" width="1050" height="440" as="geometry" />
        </mxCell>
        <mxCell id="RLxwgoSpKKGLo3sov7BY-47" value="Departamento" style="shape=table;startSize=30;container=1;collapsible=1;childLayout=tableLayout;fixedRows=1;rowLines=0;fontStyle=1;align=center;resizeLast=1;labelBackgroundColor=none;labelBorderColor=none;fontSize=20;fontColor=#000000;strokeColor=#D6B656;strokeWidth=4;" vertex="1" parent="1">
          <mxGeometry x="-712.25" y="6540" width="180" height="160" as="geometry" />
        </mxCell>
        <mxCell id="RLxwgoSpKKGLo3sov7BY-48" value="" style="shape=tableRow;horizontal=0;startSize=0;swimlaneHead=0;swimlaneBody=0;fillColor=none;collapsible=0;dropTarget=0;points=[[0,0.5],[1,0.5]];portConstraint=eastwest;top=0;left=0;right=0;bottom=1;labelBackgroundColor=none;labelBorderColor=none;fontSize=20;fontColor=#000000;strokeColor=#D6B656;strokeWidth=4;" vertex="1" parent="RLxwgoSpKKGLo3sov7BY-47">
          <mxGeometry y="30" width="180" height="30" as="geometry" />
        </mxCell>
        <mxCell id="RLxwgoSpKKGLo3sov7BY-49" value="PK" style="shape=partialRectangle;connectable=0;fillColor=none;top=0;left=0;bottom=0;right=0;fontStyle=1;overflow=hidden;labelBackgroundColor=none;labelBorderColor=none;fontSize=20;fontColor=#000000;strokeColor=#D6B656;strokeWidth=4;" vertex="1" parent="RLxwgoSpKKGLo3sov7BY-48">
          <mxGeometry width="30" height="30" as="geometry">
            <mxRectangle width="30" height="30" as="alternateBounds" />
          </mxGeometry>
        </mxCell>
        <mxCell id="RLxwgoSpKKGLo3sov7BY-50" value="Id_Dep" style="shape=partialRectangle;connectable=0;fillColor=none;top=0;left=0;bottom=0;right=0;align=left;spacingLeft=6;fontStyle=5;overflow=hidden;labelBackgroundColor=none;labelBorderColor=none;fontSize=20;fontColor=#000000;strokeColor=#D6B656;strokeWidth=4;" vertex="1" parent="RLxwgoSpKKGLo3sov7BY-48">
          <mxGeometry x="30" width="150" height="30" as="geometry">
            <mxRectangle width="150" height="30" as="alternateBounds" />
          </mxGeometry>
        </mxCell>
        <mxCell id="RLxwgoSpKKGLo3sov7BY-51" value="" style="shape=tableRow;horizontal=0;startSize=0;swimlaneHead=0;swimlaneBody=0;fillColor=none;collapsible=0;dropTarget=0;points=[[0,0.5],[1,0.5]];portConstraint=eastwest;top=0;left=0;right=0;bottom=0;labelBackgroundColor=none;labelBorderColor=none;fontSize=20;fontColor=#000000;strokeColor=#D6B656;strokeWidth=4;" vertex="1" parent="RLxwgoSpKKGLo3sov7BY-47">
          <mxGeometry y="60" width="180" height="30" as="geometry" />
        </mxCell>
        <mxCell id="RLxwgoSpKKGLo3sov7BY-52" value="" style="shape=partialRectangle;connectable=0;fillColor=none;top=0;left=0;bottom=0;right=0;editable=1;overflow=hidden;labelBackgroundColor=none;labelBorderColor=none;fontSize=20;fontColor=#000000;strokeColor=#D6B656;strokeWidth=4;" vertex="1" parent="RLxwgoSpKKGLo3sov7BY-51">
          <mxGeometry width="30" height="30" as="geometry">
            <mxRectangle width="30" height="30" as="alternateBounds" />
          </mxGeometry>
        </mxCell>
        <mxCell id="RLxwgoSpKKGLo3sov7BY-53" value="Demonimacao" style="shape=partialRectangle;connectable=0;fillColor=none;top=0;left=0;bottom=0;right=0;align=left;spacingLeft=6;overflow=hidden;labelBackgroundColor=none;labelBorderColor=none;fontSize=20;fontColor=#000000;strokeColor=#D6B656;strokeWidth=4;" vertex="1" parent="RLxwgoSpKKGLo3sov7BY-51">
          <mxGeometry x="30" width="150" height="30" as="geometry">
            <mxRectangle width="150" height="30" as="alternateBounds" />
          </mxGeometry>
        </mxCell>
        <mxCell id="RLxwgoSpKKGLo3sov7BY-54" value="" style="shape=tableRow;horizontal=0;startSize=0;swimlaneHead=0;swimlaneBody=0;fillColor=none;collapsible=0;dropTarget=0;points=[[0,0.5],[1,0.5]];portConstraint=eastwest;top=0;left=0;right=0;bottom=0;labelBackgroundColor=none;labelBorderColor=none;fontSize=20;fontColor=#000000;strokeColor=#D6B656;strokeWidth=4;" vertex="1" parent="RLxwgoSpKKGLo3sov7BY-47">
          <mxGeometry y="90" width="180" height="30" as="geometry" />
        </mxCell>
        <mxCell id="RLxwgoSpKKGLo3sov7BY-55" value="" style="shape=partialRectangle;connectable=0;fillColor=none;top=0;left=0;bottom=0;right=0;editable=1;overflow=hidden;labelBackgroundColor=none;labelBorderColor=none;fontSize=20;fontColor=#000000;strokeColor=#D6B656;strokeWidth=4;" vertex="1" parent="RLxwgoSpKKGLo3sov7BY-54">
          <mxGeometry width="30" height="30" as="geometry">
            <mxRectangle width="30" height="30" as="alternateBounds" />
          </mxGeometry>
        </mxCell>
        <mxCell id="RLxwgoSpKKGLo3sov7BY-56" value="cursos" style="shape=partialRectangle;connectable=0;fillColor=none;top=0;left=0;bottom=0;right=0;align=left;spacingLeft=6;overflow=hidden;labelBackgroundColor=none;labelBorderColor=none;fontSize=20;fontColor=#000000;strokeColor=#D6B656;strokeWidth=4;" vertex="1" parent="RLxwgoSpKKGLo3sov7BY-54">
          <mxGeometry x="30" width="150" height="30" as="geometry">
            <mxRectangle width="150" height="30" as="alternateBounds" />
          </mxGeometry>
        </mxCell>
        <mxCell id="RLxwgoSpKKGLo3sov7BY-57" value="" style="shape=tableRow;horizontal=0;startSize=0;swimlaneHead=0;swimlaneBody=0;fillColor=none;collapsible=0;dropTarget=0;points=[[0,0.5],[1,0.5]];portConstraint=eastwest;top=0;left=0;right=0;bottom=0;labelBackgroundColor=none;labelBorderColor=none;fontSize=20;fontColor=#000000;strokeColor=#D6B656;strokeWidth=4;" vertex="1" parent="RLxwgoSpKKGLo3sov7BY-47">
          <mxGeometry y="120" width="180" height="30" as="geometry" />
        </mxCell>
        <mxCell id="RLxwgoSpKKGLo3sov7BY-58" value="" style="shape=partialRectangle;connectable=0;fillColor=none;top=0;left=0;bottom=0;right=0;editable=1;overflow=hidden;labelBackgroundColor=none;labelBorderColor=none;fontSize=20;fontColor=#000000;strokeColor=#D6B656;strokeWidth=4;fontStyle=0" vertex="1" parent="RLxwgoSpKKGLo3sov7BY-57">
          <mxGeometry width="30" height="30" as="geometry">
            <mxRectangle width="30" height="30" as="alternateBounds" />
          </mxGeometry>
        </mxCell>
        <mxCell id="RLxwgoSpKKGLo3sov7BY-59" value="" style="shape=partialRectangle;connectable=0;fillColor=none;top=0;left=0;bottom=0;right=0;align=left;spacingLeft=6;overflow=hidden;labelBackgroundColor=none;labelBorderColor=none;fontSize=20;fontColor=#000000;strokeColor=#D6B656;strokeWidth=4;" vertex="1" parent="RLxwgoSpKKGLo3sov7BY-57">
          <mxGeometry x="30" width="150" height="30" as="geometry">
            <mxRectangle width="150" height="30" as="alternateBounds" />
          </mxGeometry>
        </mxCell>
        <mxCell id="RLxwgoSpKKGLo3sov7BY-73" value="Cursos" style="shape=table;startSize=30;container=1;collapsible=1;childLayout=tableLayout;fixedRows=1;rowLines=0;fontStyle=1;align=center;resizeLast=1;labelBackgroundColor=none;labelBorderColor=none;fontSize=20;fontColor=#000000;strokeColor=#D6B656;strokeWidth=4;" vertex="1" parent="1">
          <mxGeometry x="-287.25" y="6540" width="180" height="160" as="geometry" />
        </mxCell>
        <mxCell id="RLxwgoSpKKGLo3sov7BY-74" value="" style="shape=tableRow;horizontal=0;startSize=0;swimlaneHead=0;swimlaneBody=0;fillColor=none;collapsible=0;dropTarget=0;points=[[0,0.5],[1,0.5]];portConstraint=eastwest;top=0;left=0;right=0;bottom=1;labelBackgroundColor=none;labelBorderColor=none;fontSize=20;fontColor=#000000;strokeColor=#D6B656;strokeWidth=4;" vertex="1" parent="RLxwgoSpKKGLo3sov7BY-73">
          <mxGeometry y="30" width="180" height="30" as="geometry" />
        </mxCell>
        <mxCell id="RLxwgoSpKKGLo3sov7BY-75" value="PK" style="shape=partialRectangle;connectable=0;fillColor=none;top=0;left=0;bottom=0;right=0;fontStyle=1;overflow=hidden;labelBackgroundColor=none;labelBorderColor=none;fontSize=20;fontColor=#000000;strokeColor=#D6B656;strokeWidth=4;" vertex="1" parent="RLxwgoSpKKGLo3sov7BY-74">
          <mxGeometry width="30" height="30" as="geometry">
            <mxRectangle width="30" height="30" as="alternateBounds" />
          </mxGeometry>
        </mxCell>
        <mxCell id="RLxwgoSpKKGLo3sov7BY-76" value="Id_Cursos" style="shape=partialRectangle;connectable=0;fillColor=none;top=0;left=0;bottom=0;right=0;align=left;spacingLeft=6;fontStyle=5;overflow=hidden;labelBackgroundColor=none;labelBorderColor=none;fontSize=20;fontColor=#000000;strokeColor=#D6B656;strokeWidth=4;" vertex="1" parent="RLxwgoSpKKGLo3sov7BY-74">
          <mxGeometry x="30" width="150" height="30" as="geometry">
            <mxRectangle width="150" height="30" as="alternateBounds" />
          </mxGeometry>
        </mxCell>
        <mxCell id="RLxwgoSpKKGLo3sov7BY-77" value="" style="shape=tableRow;horizontal=0;startSize=0;swimlaneHead=0;swimlaneBody=0;fillColor=none;collapsible=0;dropTarget=0;points=[[0,0.5],[1,0.5]];portConstraint=eastwest;top=0;left=0;right=0;bottom=0;labelBackgroundColor=none;labelBorderColor=none;fontSize=20;fontColor=#000000;strokeColor=#D6B656;strokeWidth=4;" vertex="1" parent="RLxwgoSpKKGLo3sov7BY-73">
          <mxGeometry y="60" width="180" height="30" as="geometry" />
        </mxCell>
        <mxCell id="RLxwgoSpKKGLo3sov7BY-78" value="" style="shape=partialRectangle;connectable=0;fillColor=none;top=0;left=0;bottom=0;right=0;editable=1;overflow=hidden;labelBackgroundColor=none;labelBorderColor=none;fontSize=20;fontColor=#000000;strokeColor=#D6B656;strokeWidth=4;" vertex="1" parent="RLxwgoSpKKGLo3sov7BY-77">
          <mxGeometry width="30" height="30" as="geometry">
            <mxRectangle width="30" height="30" as="alternateBounds" />
          </mxGeometry>
        </mxCell>
        <mxCell id="RLxwgoSpKKGLo3sov7BY-79" value="Denominacao" style="shape=partialRectangle;connectable=0;fillColor=none;top=0;left=0;bottom=0;right=0;align=left;spacingLeft=6;overflow=hidden;labelBackgroundColor=none;labelBorderColor=none;fontSize=20;fontColor=#000000;strokeColor=#D6B656;strokeWidth=4;" vertex="1" parent="RLxwgoSpKKGLo3sov7BY-77">
          <mxGeometry x="30" width="150" height="30" as="geometry">
            <mxRectangle width="150" height="30" as="alternateBounds" />
          </mxGeometry>
        </mxCell>
        <mxCell id="RLxwgoSpKKGLo3sov7BY-83" value="" style="shape=tableRow;horizontal=0;startSize=0;swimlaneHead=0;swimlaneBody=0;fillColor=none;collapsible=0;dropTarget=0;points=[[0,0.5],[1,0.5]];portConstraint=eastwest;top=0;left=0;right=0;bottom=0;labelBackgroundColor=none;labelBorderColor=none;fontSize=20;fontColor=#000000;strokeColor=#D6B656;strokeWidth=4;" vertex="1" parent="RLxwgoSpKKGLo3sov7BY-73">
          <mxGeometry y="90" width="180" height="30" as="geometry" />
        </mxCell>
        <mxCell id="RLxwgoSpKKGLo3sov7BY-84" value="" style="shape=partialRectangle;connectable=0;fillColor=none;top=0;left=0;bottom=0;right=0;editable=1;overflow=hidden;labelBackgroundColor=none;labelBorderColor=none;fontSize=20;fontColor=#000000;strokeColor=#D6B656;strokeWidth=4;" vertex="1" parent="RLxwgoSpKKGLo3sov7BY-83">
          <mxGeometry width="30" height="30" as="geometry">
            <mxRectangle width="30" height="30" as="alternateBounds" />
          </mxGeometry>
        </mxCell>
        <mxCell id="RLxwgoSpKKGLo3sov7BY-85" value="Sigla" style="shape=partialRectangle;connectable=0;fillColor=none;top=0;left=0;bottom=0;right=0;align=left;spacingLeft=6;overflow=hidden;labelBackgroundColor=none;labelBorderColor=none;fontSize=20;fontColor=#000000;strokeColor=#D6B656;strokeWidth=4;" vertex="1" parent="RLxwgoSpKKGLo3sov7BY-83">
          <mxGeometry x="30" width="150" height="30" as="geometry">
            <mxRectangle width="150" height="30" as="alternateBounds" />
          </mxGeometry>
        </mxCell>
        <mxCell id="RLxwgoSpKKGLo3sov7BY-80" value="" style="shape=tableRow;horizontal=0;startSize=0;swimlaneHead=0;swimlaneBody=0;fillColor=none;collapsible=0;dropTarget=0;points=[[0,0.5],[1,0.5]];portConstraint=eastwest;top=0;left=0;right=0;bottom=0;labelBackgroundColor=none;labelBorderColor=none;fontSize=20;fontColor=#000000;strokeColor=#D6B656;strokeWidth=4;" vertex="1" parent="RLxwgoSpKKGLo3sov7BY-73">
          <mxGeometry y="120" width="180" height="30" as="geometry" />
        </mxCell>
        <mxCell id="RLxwgoSpKKGLo3sov7BY-81" value="" style="shape=partialRectangle;connectable=0;fillColor=none;top=0;left=0;bottom=0;right=0;editable=1;overflow=hidden;labelBackgroundColor=none;labelBorderColor=none;fontSize=20;fontColor=#000000;strokeColor=#D6B656;strokeWidth=4;" vertex="1" parent="RLxwgoSpKKGLo3sov7BY-80">
          <mxGeometry width="30" height="30" as="geometry">
            <mxRectangle width="30" height="30" as="alternateBounds" />
          </mxGeometry>
        </mxCell>
        <mxCell id="RLxwgoSpKKGLo3sov7BY-82" value="" style="shape=partialRectangle;connectable=0;fillColor=none;top=0;left=0;bottom=0;right=0;align=left;spacingLeft=6;overflow=hidden;labelBackgroundColor=none;labelBorderColor=none;fontSize=20;fontColor=#000000;strokeColor=#D6B656;strokeWidth=4;" vertex="1" parent="RLxwgoSpKKGLo3sov7BY-80">
          <mxGeometry x="30" width="150" height="30" as="geometry">
            <mxRectangle width="150" height="30" as="alternateBounds" />
          </mxGeometry>
        </mxCell>
        <mxCell id="RLxwgoSpKKGLo3sov7BY-86" value="Professor" style="shape=table;startSize=30;container=1;collapsible=1;childLayout=tableLayout;fixedRows=1;rowLines=0;fontStyle=1;align=center;resizeLast=1;labelBackgroundColor=none;labelBorderColor=none;fontSize=20;fontColor=#000000;strokeColor=#D6B656;strokeWidth=4;" vertex="1" parent="1">
          <mxGeometry x="-672.25" y="7200" width="180" height="220" as="geometry" />
        </mxCell>
        <mxCell id="RLxwgoSpKKGLo3sov7BY-87" value="" style="shape=tableRow;horizontal=0;startSize=0;swimlaneHead=0;swimlaneBody=0;fillColor=none;collapsible=0;dropTarget=0;points=[[0,0.5],[1,0.5]];portConstraint=eastwest;top=0;left=0;right=0;bottom=1;labelBackgroundColor=none;labelBorderColor=none;fontSize=20;fontColor=#000000;strokeColor=#D6B656;strokeWidth=4;" vertex="1" parent="RLxwgoSpKKGLo3sov7BY-86">
          <mxGeometry y="30" width="180" height="30" as="geometry" />
        </mxCell>
        <mxCell id="RLxwgoSpKKGLo3sov7BY-88" value="PK" style="shape=partialRectangle;connectable=0;fillColor=none;top=0;left=0;bottom=0;right=0;fontStyle=1;overflow=hidden;labelBackgroundColor=none;labelBorderColor=none;fontSize=20;fontColor=#000000;strokeColor=#D6B656;strokeWidth=4;" vertex="1" parent="RLxwgoSpKKGLo3sov7BY-87">
          <mxGeometry width="30" height="30" as="geometry">
            <mxRectangle width="30" height="30" as="alternateBounds" />
          </mxGeometry>
        </mxCell>
        <mxCell id="RLxwgoSpKKGLo3sov7BY-89" value="Id_Prof" style="shape=partialRectangle;connectable=0;fillColor=none;top=0;left=0;bottom=0;right=0;align=left;spacingLeft=6;fontStyle=5;overflow=hidden;labelBackgroundColor=none;labelBorderColor=none;fontSize=20;fontColor=#000000;strokeColor=#D6B656;strokeWidth=4;" vertex="1" parent="RLxwgoSpKKGLo3sov7BY-87">
          <mxGeometry x="30" width="150" height="30" as="geometry">
            <mxRectangle width="150" height="30" as="alternateBounds" />
          </mxGeometry>
        </mxCell>
        <mxCell id="RLxwgoSpKKGLo3sov7BY-90" value="" style="shape=tableRow;horizontal=0;startSize=0;swimlaneHead=0;swimlaneBody=0;fillColor=none;collapsible=0;dropTarget=0;points=[[0,0.5],[1,0.5]];portConstraint=eastwest;top=0;left=0;right=0;bottom=0;labelBackgroundColor=none;labelBorderColor=none;fontSize=20;fontColor=#000000;strokeColor=#D6B656;strokeWidth=4;" vertex="1" parent="RLxwgoSpKKGLo3sov7BY-86">
          <mxGeometry y="60" width="180" height="30" as="geometry" />
        </mxCell>
        <mxCell id="RLxwgoSpKKGLo3sov7BY-91" value="" style="shape=partialRectangle;connectable=0;fillColor=none;top=0;left=0;bottom=0;right=0;editable=1;overflow=hidden;labelBackgroundColor=none;labelBorderColor=none;fontSize=20;fontColor=#000000;strokeColor=#D6B656;strokeWidth=4;" vertex="1" parent="RLxwgoSpKKGLo3sov7BY-90">
          <mxGeometry width="30" height="30" as="geometry">
            <mxRectangle width="30" height="30" as="alternateBounds" />
          </mxGeometry>
        </mxCell>
        <mxCell id="RLxwgoSpKKGLo3sov7BY-92" value="Nome" style="shape=partialRectangle;connectable=0;fillColor=none;top=0;left=0;bottom=0;right=0;align=left;spacingLeft=6;overflow=hidden;labelBackgroundColor=none;labelBorderColor=none;fontSize=20;fontColor=#000000;strokeColor=#D6B656;strokeWidth=4;" vertex="1" parent="RLxwgoSpKKGLo3sov7BY-90">
          <mxGeometry x="30" width="150" height="30" as="geometry">
            <mxRectangle width="150" height="30" as="alternateBounds" />
          </mxGeometry>
        </mxCell>
        <mxCell id="RLxwgoSpKKGLo3sov7BY-93" value="" style="shape=tableRow;horizontal=0;startSize=0;swimlaneHead=0;swimlaneBody=0;fillColor=none;collapsible=0;dropTarget=0;points=[[0,0.5],[1,0.5]];portConstraint=eastwest;top=0;left=0;right=0;bottom=0;labelBackgroundColor=none;labelBorderColor=none;fontSize=20;fontColor=#000000;strokeColor=#D6B656;strokeWidth=4;" vertex="1" parent="RLxwgoSpKKGLo3sov7BY-86">
          <mxGeometry y="90" width="180" height="30" as="geometry" />
        </mxCell>
        <mxCell id="RLxwgoSpKKGLo3sov7BY-94" value="" style="shape=partialRectangle;connectable=0;fillColor=none;top=0;left=0;bottom=0;right=0;editable=1;overflow=hidden;labelBackgroundColor=none;labelBorderColor=none;fontSize=20;fontColor=#000000;strokeColor=#D6B656;strokeWidth=4;" vertex="1" parent="RLxwgoSpKKGLo3sov7BY-93">
          <mxGeometry width="30" height="30" as="geometry">
            <mxRectangle width="30" height="30" as="alternateBounds" />
          </mxGeometry>
        </mxCell>
        <mxCell id="RLxwgoSpKKGLo3sov7BY-95" value="Formacao" style="shape=partialRectangle;connectable=0;fillColor=none;top=0;left=0;bottom=0;right=0;align=left;spacingLeft=6;overflow=hidden;labelBackgroundColor=none;labelBorderColor=none;fontSize=20;fontColor=#000000;strokeColor=#D6B656;strokeWidth=4;" vertex="1" parent="RLxwgoSpKKGLo3sov7BY-93">
          <mxGeometry x="30" width="150" height="30" as="geometry">
            <mxRectangle width="150" height="30" as="alternateBounds" />
          </mxGeometry>
        </mxCell>
        <mxCell id="RLxwgoSpKKGLo3sov7BY-96" value="" style="shape=tableRow;horizontal=0;startSize=0;swimlaneHead=0;swimlaneBody=0;fillColor=none;collapsible=0;dropTarget=0;points=[[0,0.5],[1,0.5]];portConstraint=eastwest;top=0;left=0;right=0;bottom=0;labelBackgroundColor=none;labelBorderColor=none;fontSize=20;fontColor=#000000;strokeColor=#D6B656;strokeWidth=4;" vertex="1" parent="RLxwgoSpKKGLo3sov7BY-86">
          <mxGeometry y="120" width="180" height="30" as="geometry" />
        </mxCell>
        <mxCell id="RLxwgoSpKKGLo3sov7BY-97" value="" style="shape=partialRectangle;connectable=0;fillColor=none;top=0;left=0;bottom=0;right=0;editable=1;overflow=hidden;labelBackgroundColor=none;labelBorderColor=none;fontSize=20;fontColor=#000000;strokeColor=#D6B656;strokeWidth=4;" vertex="1" parent="RLxwgoSpKKGLo3sov7BY-96">
          <mxGeometry width="30" height="30" as="geometry">
            <mxRectangle width="30" height="30" as="alternateBounds" />
          </mxGeometry>
        </mxCell>
        <mxCell id="RLxwgoSpKKGLo3sov7BY-98" value="Endereco" style="shape=partialRectangle;connectable=0;fillColor=none;top=0;left=0;bottom=0;right=0;align=left;spacingLeft=6;overflow=hidden;labelBackgroundColor=none;labelBorderColor=none;fontSize=20;fontColor=#000000;strokeColor=#D6B656;strokeWidth=4;" vertex="1" parent="RLxwgoSpKKGLo3sov7BY-96">
          <mxGeometry x="30" width="150" height="30" as="geometry">
            <mxRectangle width="150" height="30" as="alternateBounds" />
          </mxGeometry>
        </mxCell>
        <mxCell id="RLxwgoSpKKGLo3sov7BY-218" style="shape=tableRow;horizontal=0;startSize=0;swimlaneHead=0;swimlaneBody=0;fillColor=none;collapsible=0;dropTarget=0;points=[[0,0.5],[1,0.5]];portConstraint=eastwest;top=0;left=0;right=0;bottom=0;labelBackgroundColor=none;labelBorderColor=none;fontSize=20;fontColor=#000000;strokeColor=#D6B656;strokeWidth=4;" vertex="1" parent="RLxwgoSpKKGLo3sov7BY-86">
          <mxGeometry y="150" width="180" height="30" as="geometry" />
        </mxCell>
        <mxCell id="RLxwgoSpKKGLo3sov7BY-219" style="shape=partialRectangle;connectable=0;fillColor=none;top=0;left=0;bottom=0;right=0;editable=1;overflow=hidden;labelBackgroundColor=none;labelBorderColor=none;fontSize=20;fontColor=#000000;strokeColor=#D6B656;strokeWidth=4;" vertex="1" parent="RLxwgoSpKKGLo3sov7BY-218">
          <mxGeometry width="30" height="30" as="geometry">
            <mxRectangle width="30" height="30" as="alternateBounds" />
          </mxGeometry>
        </mxCell>
        <mxCell id="RLxwgoSpKKGLo3sov7BY-220" value="Telefone" style="shape=partialRectangle;connectable=0;fillColor=none;top=0;left=0;bottom=0;right=0;align=left;spacingLeft=6;overflow=hidden;labelBackgroundColor=none;labelBorderColor=none;fontSize=20;fontColor=#000000;strokeColor=#D6B656;strokeWidth=4;" vertex="1" parent="RLxwgoSpKKGLo3sov7BY-218">
          <mxGeometry x="30" width="150" height="30" as="geometry">
            <mxRectangle width="150" height="30" as="alternateBounds" />
          </mxGeometry>
        </mxCell>
        <mxCell id="RLxwgoSpKKGLo3sov7BY-221" style="shape=tableRow;horizontal=0;startSize=0;swimlaneHead=0;swimlaneBody=0;fillColor=none;collapsible=0;dropTarget=0;points=[[0,0.5],[1,0.5]];portConstraint=eastwest;top=0;left=0;right=0;bottom=0;labelBackgroundColor=none;labelBorderColor=none;fontSize=20;fontColor=#000000;strokeColor=#D6B656;strokeWidth=4;" vertex="1" parent="RLxwgoSpKKGLo3sov7BY-86">
          <mxGeometry y="180" width="180" height="30" as="geometry" />
        </mxCell>
        <mxCell id="RLxwgoSpKKGLo3sov7BY-222" value="FK" style="shape=partialRectangle;connectable=0;fillColor=none;top=0;left=0;bottom=0;right=0;editable=1;overflow=hidden;labelBackgroundColor=none;labelBorderColor=none;fontSize=20;fontColor=#000000;strokeColor=#D6B656;strokeWidth=4;" vertex="1" parent="RLxwgoSpKKGLo3sov7BY-221">
          <mxGeometry width="30" height="30" as="geometry">
            <mxRectangle width="30" height="30" as="alternateBounds" />
          </mxGeometry>
        </mxCell>
        <mxCell id="RLxwgoSpKKGLo3sov7BY-223" value="Id_Dep" style="shape=partialRectangle;connectable=0;fillColor=none;top=0;left=0;bottom=0;right=0;align=left;spacingLeft=6;overflow=hidden;labelBackgroundColor=none;labelBorderColor=none;fontSize=20;fontColor=#000000;strokeColor=#D6B656;strokeWidth=4;" vertex="1" parent="RLxwgoSpKKGLo3sov7BY-221">
          <mxGeometry x="30" width="150" height="30" as="geometry">
            <mxRectangle width="150" height="30" as="alternateBounds" />
          </mxGeometry>
        </mxCell>
        <mxCell id="RLxwgoSpKKGLo3sov7BY-99" value="Aluno" style="shape=table;startSize=30;container=1;collapsible=1;childLayout=tableLayout;fixedRows=1;rowLines=0;fontStyle=1;align=center;resizeLast=1;labelBackgroundColor=none;labelBorderColor=none;fontSize=20;fontColor=#000000;strokeColor=#D6B656;strokeWidth=4;" vertex="1" parent="1">
          <mxGeometry x="57.5" y="6850" width="180" height="250" as="geometry" />
        </mxCell>
        <mxCell id="RLxwgoSpKKGLo3sov7BY-100" value="" style="shape=tableRow;horizontal=0;startSize=0;swimlaneHead=0;swimlaneBody=0;fillColor=none;collapsible=0;dropTarget=0;points=[[0,0.5],[1,0.5]];portConstraint=eastwest;top=0;left=0;right=0;bottom=1;labelBackgroundColor=none;labelBorderColor=none;fontSize=20;fontColor=#000000;strokeColor=#D6B656;strokeWidth=4;" vertex="1" parent="RLxwgoSpKKGLo3sov7BY-99">
          <mxGeometry y="30" width="180" height="30" as="geometry" />
        </mxCell>
        <mxCell id="RLxwgoSpKKGLo3sov7BY-101" value="PK" style="shape=partialRectangle;connectable=0;fillColor=none;top=0;left=0;bottom=0;right=0;fontStyle=1;overflow=hidden;labelBackgroundColor=none;labelBorderColor=none;fontSize=20;fontColor=#000000;strokeColor=#D6B656;strokeWidth=4;" vertex="1" parent="RLxwgoSpKKGLo3sov7BY-100">
          <mxGeometry width="30" height="30" as="geometry">
            <mxRectangle width="30" height="30" as="alternateBounds" />
          </mxGeometry>
        </mxCell>
        <mxCell id="RLxwgoSpKKGLo3sov7BY-102" value="Matricula" style="shape=partialRectangle;connectable=0;fillColor=none;top=0;left=0;bottom=0;right=0;align=left;spacingLeft=6;fontStyle=5;overflow=hidden;labelBackgroundColor=none;labelBorderColor=none;fontSize=20;fontColor=#000000;strokeColor=#D6B656;strokeWidth=4;" vertex="1" parent="RLxwgoSpKKGLo3sov7BY-100">
          <mxGeometry x="30" width="150" height="30" as="geometry">
            <mxRectangle width="150" height="30" as="alternateBounds" />
          </mxGeometry>
        </mxCell>
        <mxCell id="RLxwgoSpKKGLo3sov7BY-103" value="" style="shape=tableRow;horizontal=0;startSize=0;swimlaneHead=0;swimlaneBody=0;fillColor=none;collapsible=0;dropTarget=0;points=[[0,0.5],[1,0.5]];portConstraint=eastwest;top=0;left=0;right=0;bottom=0;labelBackgroundColor=none;labelBorderColor=none;fontSize=20;fontColor=#000000;strokeColor=#D6B656;strokeWidth=4;" vertex="1" parent="RLxwgoSpKKGLo3sov7BY-99">
          <mxGeometry y="60" width="180" height="30" as="geometry" />
        </mxCell>
        <mxCell id="RLxwgoSpKKGLo3sov7BY-104" value="" style="shape=partialRectangle;connectable=0;fillColor=none;top=0;left=0;bottom=0;right=0;editable=1;overflow=hidden;labelBackgroundColor=none;labelBorderColor=none;fontSize=20;fontColor=#000000;strokeColor=#D6B656;strokeWidth=4;" vertex="1" parent="RLxwgoSpKKGLo3sov7BY-103">
          <mxGeometry width="30" height="30" as="geometry">
            <mxRectangle width="30" height="30" as="alternateBounds" />
          </mxGeometry>
        </mxCell>
        <mxCell id="RLxwgoSpKKGLo3sov7BY-105" value="Nome" style="shape=partialRectangle;connectable=0;fillColor=none;top=0;left=0;bottom=0;right=0;align=left;spacingLeft=6;overflow=hidden;labelBackgroundColor=none;labelBorderColor=none;fontSize=20;fontColor=#000000;strokeColor=#D6B656;strokeWidth=4;" vertex="1" parent="RLxwgoSpKKGLo3sov7BY-103">
          <mxGeometry x="30" width="150" height="30" as="geometry">
            <mxRectangle width="150" height="30" as="alternateBounds" />
          </mxGeometry>
        </mxCell>
        <mxCell id="RLxwgoSpKKGLo3sov7BY-106" value="" style="shape=tableRow;horizontal=0;startSize=0;swimlaneHead=0;swimlaneBody=0;fillColor=none;collapsible=0;dropTarget=0;points=[[0,0.5],[1,0.5]];portConstraint=eastwest;top=0;left=0;right=0;bottom=0;labelBackgroundColor=none;labelBorderColor=none;fontSize=20;fontColor=#000000;strokeColor=#D6B656;strokeWidth=4;" vertex="1" parent="RLxwgoSpKKGLo3sov7BY-99">
          <mxGeometry y="90" width="180" height="30" as="geometry" />
        </mxCell>
        <mxCell id="RLxwgoSpKKGLo3sov7BY-107" value="" style="shape=partialRectangle;connectable=0;fillColor=none;top=0;left=0;bottom=0;right=0;editable=1;overflow=hidden;labelBackgroundColor=none;labelBorderColor=none;fontSize=20;fontColor=#000000;strokeColor=#D6B656;strokeWidth=4;" vertex="1" parent="RLxwgoSpKKGLo3sov7BY-106">
          <mxGeometry width="30" height="30" as="geometry">
            <mxRectangle width="30" height="30" as="alternateBounds" />
          </mxGeometry>
        </mxCell>
        <mxCell id="RLxwgoSpKKGLo3sov7BY-108" value="Endereço" style="shape=partialRectangle;connectable=0;fillColor=none;top=0;left=0;bottom=0;right=0;align=left;spacingLeft=6;overflow=hidden;labelBackgroundColor=none;labelBorderColor=none;fontSize=20;fontColor=#000000;strokeColor=#D6B656;strokeWidth=4;" vertex="1" parent="RLxwgoSpKKGLo3sov7BY-106">
          <mxGeometry x="30" width="150" height="30" as="geometry">
            <mxRectangle width="150" height="30" as="alternateBounds" />
          </mxGeometry>
        </mxCell>
        <mxCell id="RLxwgoSpKKGLo3sov7BY-109" value="" style="shape=tableRow;horizontal=0;startSize=0;swimlaneHead=0;swimlaneBody=0;fillColor=none;collapsible=0;dropTarget=0;points=[[0,0.5],[1,0.5]];portConstraint=eastwest;top=0;left=0;right=0;bottom=0;labelBackgroundColor=none;labelBorderColor=none;fontSize=20;fontColor=#000000;strokeColor=#D6B656;strokeWidth=4;" vertex="1" parent="RLxwgoSpKKGLo3sov7BY-99">
          <mxGeometry y="120" width="180" height="30" as="geometry" />
        </mxCell>
        <mxCell id="RLxwgoSpKKGLo3sov7BY-110" value="" style="shape=partialRectangle;connectable=0;fillColor=none;top=0;left=0;bottom=0;right=0;editable=1;overflow=hidden;labelBackgroundColor=none;labelBorderColor=none;fontSize=20;fontColor=#000000;strokeColor=#D6B656;strokeWidth=4;" vertex="1" parent="RLxwgoSpKKGLo3sov7BY-109">
          <mxGeometry width="30" height="30" as="geometry">
            <mxRectangle width="30" height="30" as="alternateBounds" />
          </mxGeometry>
        </mxCell>
        <mxCell id="RLxwgoSpKKGLo3sov7BY-111" value="Telefone" style="shape=partialRectangle;connectable=0;fillColor=none;top=0;left=0;bottom=0;right=0;align=left;spacingLeft=6;overflow=hidden;labelBackgroundColor=none;labelBorderColor=none;fontSize=20;fontColor=#000000;strokeColor=#D6B656;strokeWidth=4;" vertex="1" parent="RLxwgoSpKKGLo3sov7BY-109">
          <mxGeometry x="30" width="150" height="30" as="geometry">
            <mxRectangle width="150" height="30" as="alternateBounds" />
          </mxGeometry>
        </mxCell>
        <mxCell id="RLxwgoSpKKGLo3sov7BY-212" style="shape=tableRow;horizontal=0;startSize=0;swimlaneHead=0;swimlaneBody=0;fillColor=none;collapsible=0;dropTarget=0;points=[[0,0.5],[1,0.5]];portConstraint=eastwest;top=0;left=0;right=0;bottom=0;labelBackgroundColor=none;labelBorderColor=none;fontSize=20;fontColor=#000000;strokeColor=#D6B656;strokeWidth=4;" vertex="1" parent="RLxwgoSpKKGLo3sov7BY-99">
          <mxGeometry y="150" width="180" height="30" as="geometry" />
        </mxCell>
        <mxCell id="RLxwgoSpKKGLo3sov7BY-213" style="shape=partialRectangle;connectable=0;fillColor=none;top=0;left=0;bottom=0;right=0;editable=1;overflow=hidden;labelBackgroundColor=none;labelBorderColor=none;fontSize=20;fontColor=#000000;strokeColor=#D6B656;strokeWidth=4;" vertex="1" parent="RLxwgoSpKKGLo3sov7BY-212">
          <mxGeometry width="30" height="30" as="geometry">
            <mxRectangle width="30" height="30" as="alternateBounds" />
          </mxGeometry>
        </mxCell>
        <mxCell id="RLxwgoSpKKGLo3sov7BY-214" value="Filiação" style="shape=partialRectangle;connectable=0;fillColor=none;top=0;left=0;bottom=0;right=0;align=left;spacingLeft=6;overflow=hidden;labelBackgroundColor=none;labelBorderColor=none;fontSize=20;fontColor=#000000;strokeColor=#D6B656;strokeWidth=4;" vertex="1" parent="RLxwgoSpKKGLo3sov7BY-212">
          <mxGeometry x="30" width="150" height="30" as="geometry">
            <mxRectangle width="150" height="30" as="alternateBounds" />
          </mxGeometry>
        </mxCell>
        <mxCell id="RLxwgoSpKKGLo3sov7BY-209" style="shape=tableRow;horizontal=0;startSize=0;swimlaneHead=0;swimlaneBody=0;fillColor=none;collapsible=0;dropTarget=0;points=[[0,0.5],[1,0.5]];portConstraint=eastwest;top=0;left=0;right=0;bottom=0;labelBackgroundColor=none;labelBorderColor=none;fontSize=20;fontColor=#000000;strokeColor=#D6B656;strokeWidth=4;" vertex="1" parent="RLxwgoSpKKGLo3sov7BY-99">
          <mxGeometry y="180" width="180" height="30" as="geometry" />
        </mxCell>
        <mxCell id="RLxwgoSpKKGLo3sov7BY-210" style="shape=partialRectangle;connectable=0;fillColor=none;top=0;left=0;bottom=0;right=0;editable=1;overflow=hidden;labelBackgroundColor=none;labelBorderColor=none;fontSize=20;fontColor=#000000;strokeColor=#D6B656;strokeWidth=4;" vertex="1" parent="RLxwgoSpKKGLo3sov7BY-209">
          <mxGeometry width="30" height="30" as="geometry">
            <mxRectangle width="30" height="30" as="alternateBounds" />
          </mxGeometry>
        </mxCell>
        <mxCell id="RLxwgoSpKKGLo3sov7BY-211" value="Dt_Nasc" style="shape=partialRectangle;connectable=0;fillColor=none;top=0;left=0;bottom=0;right=0;align=left;spacingLeft=6;overflow=hidden;labelBackgroundColor=none;labelBorderColor=none;fontSize=20;fontColor=#000000;strokeColor=#D6B656;strokeWidth=4;" vertex="1" parent="RLxwgoSpKKGLo3sov7BY-209">
          <mxGeometry x="30" width="150" height="30" as="geometry">
            <mxRectangle width="150" height="30" as="alternateBounds" />
          </mxGeometry>
        </mxCell>
        <mxCell id="RLxwgoSpKKGLo3sov7BY-215" style="shape=tableRow;horizontal=0;startSize=0;swimlaneHead=0;swimlaneBody=0;fillColor=none;collapsible=0;dropTarget=0;points=[[0,0.5],[1,0.5]];portConstraint=eastwest;top=0;left=0;right=0;bottom=0;labelBackgroundColor=none;labelBorderColor=none;fontSize=20;fontColor=#000000;strokeColor=#D6B656;strokeWidth=4;" vertex="1" parent="RLxwgoSpKKGLo3sov7BY-99">
          <mxGeometry y="210" width="180" height="30" as="geometry" />
        </mxCell>
        <mxCell id="RLxwgoSpKKGLo3sov7BY-216" value="FK" style="shape=partialRectangle;connectable=0;fillColor=none;top=0;left=0;bottom=0;right=0;editable=1;overflow=hidden;labelBackgroundColor=none;labelBorderColor=none;fontSize=20;fontColor=#000000;strokeColor=#D6B656;strokeWidth=4;" vertex="1" parent="RLxwgoSpKKGLo3sov7BY-215">
          <mxGeometry width="30" height="30" as="geometry">
            <mxRectangle width="30" height="30" as="alternateBounds" />
          </mxGeometry>
        </mxCell>
        <mxCell id="RLxwgoSpKKGLo3sov7BY-217" value="Id_Cursos" style="shape=partialRectangle;connectable=0;fillColor=none;top=0;left=0;bottom=0;right=0;align=left;spacingLeft=6;overflow=hidden;labelBackgroundColor=none;labelBorderColor=none;fontSize=20;fontColor=#000000;strokeColor=#D6B656;strokeWidth=4;" vertex="1" parent="RLxwgoSpKKGLo3sov7BY-215">
          <mxGeometry x="30" width="150" height="30" as="geometry">
            <mxRectangle width="150" height="30" as="alternateBounds" />
          </mxGeometry>
        </mxCell>
        <mxCell id="RLxwgoSpKKGLo3sov7BY-112" value="Departamento" style="whiteSpace=wrap;html=1;labelBackgroundColor=none;labelBorderColor=none;fontSize=20;fontColor=#000000;strokeColor=#D6B656;strokeWidth=4;" vertex="1" parent="1">
          <mxGeometry x="-762.5" y="5765" width="137.75" height="60" as="geometry" />
        </mxCell>
        <mxCell id="RLxwgoSpKKGLo3sov7BY-125" style="edgeStyle=orthogonalEdgeStyle;rounded=0;orthogonalLoop=1;jettySize=auto;html=1;entryX=0.5;entryY=0;entryDx=0;entryDy=0;fontSize=20;fontColor=#000000;endArrow=none;endFill=0;strokeWidth=4;exitX=0.5;exitY=1;exitDx=0;exitDy=0;fillColor=#008a00;strokeColor=#005700;" edge="1" parent="1" source="RLxwgoSpKKGLo3sov7BY-113" target="RLxwgoSpKKGLo3sov7BY-121">
          <mxGeometry relative="1" as="geometry">
            <Array as="points">
              <mxPoint x="-147" y="5880" />
              <mxPoint x="-250" y="5880" />
            </Array>
          </mxGeometry>
        </mxCell>
        <mxCell id="RLxwgoSpKKGLo3sov7BY-161" style="edgeStyle=orthogonalEdgeStyle;rounded=0;orthogonalLoop=1;jettySize=auto;html=1;fontSize=20;fontColor=#000000;endArrow=none;endFill=0;strokeColor=#000000;strokeWidth=4;exitX=0.5;exitY=0;exitDx=0;exitDy=0;entryX=0.5;entryY=0;entryDx=0;entryDy=0;" edge="1" parent="1" source="RLxwgoSpKKGLo3sov7BY-113" target="RLxwgoSpKKGLo3sov7BY-112">
          <mxGeometry relative="1" as="geometry">
            <mxPoint x="-370" y="5700" as="targetPoint" />
          </mxGeometry>
        </mxCell>
        <mxCell id="RLxwgoSpKKGLo3sov7BY-113" value="Cursos" style="whiteSpace=wrap;html=1;labelBackgroundColor=none;labelBorderColor=none;fontSize=20;fontColor=#000000;strokeColor=#D6B656;strokeWidth=4;" vertex="1" parent="1">
          <mxGeometry x="-207.25" y="5765" width="120" height="60" as="geometry" />
        </mxCell>
        <mxCell id="RLxwgoSpKKGLo3sov7BY-145" style="edgeStyle=orthogonalEdgeStyle;rounded=0;orthogonalLoop=1;jettySize=auto;html=1;fontSize=20;fontColor=#000000;endArrow=none;endFill=0;strokeWidth=4;exitX=0;exitY=0.5;exitDx=0;exitDy=0;" edge="1" parent="1" source="RLxwgoSpKKGLo3sov7BY-116">
          <mxGeometry relative="1" as="geometry">
            <mxPoint x="-710" y="5830" as="targetPoint" />
            <mxPoint x="-740" y="6180" as="sourcePoint" />
            <Array as="points">
              <mxPoint x="-710" y="6130" />
              <mxPoint x="-710" y="5830" />
            </Array>
          </mxGeometry>
        </mxCell>
        <mxCell id="RLxwgoSpKKGLo3sov7BY-153" style="edgeStyle=orthogonalEdgeStyle;rounded=0;orthogonalLoop=1;jettySize=auto;html=1;entryX=0;entryY=0.5;entryDx=0;entryDy=0;fontSize=20;fontColor=#000000;endArrow=none;endFill=0;strokeWidth=4;fillColor=#008a00;strokeColor=#005700;" edge="1" parent="1" source="RLxwgoSpKKGLo3sov7BY-116" target="RLxwgoSpKKGLo3sov7BY-121">
          <mxGeometry relative="1" as="geometry">
            <Array as="points">
              <mxPoint x="-420" y="6140" />
              <mxPoint x="-420" y="6030" />
            </Array>
          </mxGeometry>
        </mxCell>
        <mxCell id="RLxwgoSpKKGLo3sov7BY-116" value="Professor" style="whiteSpace=wrap;html=1;labelBackgroundColor=none;labelBorderColor=none;fontSize=20;fontColor=#000000;strokeColor=#D6B656;strokeWidth=4;" vertex="1" parent="1">
          <mxGeometry x="-712.5" y="6130" width="120" height="60" as="geometry" />
        </mxCell>
        <mxCell id="RLxwgoSpKKGLo3sov7BY-123" style="edgeStyle=orthogonalEdgeStyle;rounded=0;orthogonalLoop=1;jettySize=auto;html=1;entryX=0.5;entryY=1;entryDx=0;entryDy=0;fontSize=20;fontColor=#000000;endArrow=none;endFill=0;strokeWidth=4;fillColor=#008a00;strokeColor=#005700;exitX=0.5;exitY=0;exitDx=0;exitDy=0;" edge="1" parent="1" source="RLxwgoSpKKGLo3sov7BY-117" target="RLxwgoSpKKGLo3sov7BY-121">
          <mxGeometry relative="1" as="geometry">
            <mxPoint x="-370" y="6205" as="sourcePoint" />
            <Array as="points">
              <mxPoint x="-372" y="6080" />
            </Array>
          </mxGeometry>
        </mxCell>
        <mxCell id="RLxwgoSpKKGLo3sov7BY-142" style="edgeStyle=orthogonalEdgeStyle;rounded=0;orthogonalLoop=1;jettySize=auto;html=1;fontSize=20;fontColor=#000000;endArrow=none;endFill=0;strokeWidth=4;entryX=0;entryY=0.5;entryDx=0;entryDy=0;exitX=0.5;exitY=1;exitDx=0;exitDy=0;" edge="1" parent="1" source="RLxwgoSpKKGLo3sov7BY-117" target="RLxwgoSpKKGLo3sov7BY-112">
          <mxGeometry relative="1" as="geometry">
            <mxPoint x="-657" y="5830" as="targetPoint" />
            <Array as="points">
              <mxPoint x="-372" y="6300" />
              <mxPoint x="-790" y="6300" />
              <mxPoint x="-790" y="5800" />
              <mxPoint x="-763" y="5800" />
            </Array>
          </mxGeometry>
        </mxCell>
        <mxCell id="RLxwgoSpKKGLo3sov7BY-160" style="edgeStyle=orthogonalEdgeStyle;rounded=0;orthogonalLoop=1;jettySize=auto;html=1;entryX=0;entryY=0.5;entryDx=0;entryDy=0;fontSize=20;fontColor=#000000;endArrow=none;endFill=0;strokeColor=#FF6666;strokeWidth=4;" edge="1" parent="1" source="RLxwgoSpKKGLo3sov7BY-117" target="RLxwgoSpKKGLo3sov7BY-156">
          <mxGeometry relative="1" as="geometry" />
        </mxCell>
        <mxCell id="RLxwgoSpKKGLo3sov7BY-117" value="Disciplinas" style="whiteSpace=wrap;html=1;labelBackgroundColor=none;labelBorderColor=none;fontSize=20;fontColor=#000000;strokeColor=#D6B656;strokeWidth=4;" vertex="1" parent="1">
          <mxGeometry x="-432" y="6210" width="120" height="60" as="geometry" />
        </mxCell>
        <mxCell id="RLxwgoSpKKGLo3sov7BY-121" value="Grade" style="rhombus;whiteSpace=wrap;html=1;labelBackgroundColor=none;labelBorderColor=none;fontSize=20;fontColor=#000000;strokeColor=#D6B656;strokeWidth=4;" vertex="1" parent="1">
          <mxGeometry x="-325.25" y="5980" width="150" height="100" as="geometry" />
        </mxCell>
        <mxCell id="RLxwgoSpKKGLo3sov7BY-126" value="&lt;b&gt;1&lt;/b&gt;" style="text;html=1;align=center;verticalAlign=middle;resizable=0;points=[];autosize=1;strokeColor=none;fillColor=none;fontSize=20;fontColor=#000000;" vertex="1" parent="1">
          <mxGeometry x="-697.25" y="5710" width="30" height="30" as="geometry" />
        </mxCell>
        <mxCell id="RLxwgoSpKKGLo3sov7BY-128" value="&lt;b&gt;N&lt;/b&gt;" style="text;html=1;align=center;verticalAlign=middle;resizable=0;points=[];autosize=1;strokeColor=none;fillColor=none;fontSize=20;fontColor=#000000;" vertex="1" parent="1">
          <mxGeometry x="-175.25" y="5700" width="30" height="30" as="geometry" />
        </mxCell>
        <mxCell id="RLxwgoSpKKGLo3sov7BY-130" value="&lt;b&gt;1&lt;/b&gt;" style="text;html=1;align=center;verticalAlign=middle;resizable=0;points=[];autosize=1;strokeColor=none;fillColor=none;fontSize=20;fontColor=#000000;" vertex="1" parent="1">
          <mxGeometry x="-182.5" y="5825" width="30" height="30" as="geometry" />
        </mxCell>
        <mxCell id="RLxwgoSpKKGLo3sov7BY-132" value="&lt;b&gt;1&lt;/b&gt;" style="text;html=1;align=center;verticalAlign=middle;resizable=0;points=[];autosize=1;strokeColor=none;fillColor=none;fontSize=20;fontColor=#000000;" vertex="1" parent="1">
          <mxGeometry x="-792.25" y="5765" width="30" height="30" as="geometry" />
        </mxCell>
        <mxCell id="RLxwgoSpKKGLo3sov7BY-133" value="&lt;b&gt;N&lt;/b&gt;" style="text;html=1;align=center;verticalAlign=middle;resizable=0;points=[];autosize=1;strokeColor=none;fillColor=none;fontSize=20;fontColor=#000000;" vertex="1" parent="1">
          <mxGeometry x="-402.5" y="6270" width="30" height="30" as="geometry" />
        </mxCell>
        <mxCell id="RLxwgoSpKKGLo3sov7BY-134" value="&lt;b&gt;N&lt;/b&gt;" style="text;html=1;align=center;verticalAlign=middle;resizable=0;points=[];autosize=1;strokeColor=none;fillColor=none;fontSize=20;fontColor=#000000;" vertex="1" parent="1">
          <mxGeometry x="-252" y="6080" width="30" height="30" as="geometry" />
        </mxCell>
        <mxCell id="RLxwgoSpKKGLo3sov7BY-135" value="&lt;b&gt;N&lt;/b&gt;" style="text;html=1;align=center;verticalAlign=middle;resizable=0;points=[];autosize=1;strokeColor=none;fillColor=none;fontSize=20;fontColor=#000000;" vertex="1" parent="1">
          <mxGeometry x="27.5" y="5960" width="30" height="30" as="geometry" />
        </mxCell>
        <mxCell id="RLxwgoSpKKGLo3sov7BY-137" value="&lt;b&gt;N&lt;/b&gt;" style="text;html=1;align=center;verticalAlign=middle;resizable=0;points=[];autosize=1;strokeColor=none;fillColor=none;fontSize=20;fontColor=#000000;" vertex="1" parent="1">
          <mxGeometry x="-30" y="6300" width="30" height="30" as="geometry" />
        </mxCell>
        <mxCell id="RLxwgoSpKKGLo3sov7BY-138" value="&lt;b&gt;N&lt;/b&gt;" style="text;html=1;align=center;verticalAlign=middle;resizable=0;points=[];autosize=1;strokeColor=none;fillColor=none;fontSize=20;fontColor=#000000;" vertex="1" parent="1">
          <mxGeometry x="-247.25" y="5950" width="30" height="30" as="geometry" />
        </mxCell>
        <mxCell id="RLxwgoSpKKGLo3sov7BY-141" value="&lt;b&gt;1&lt;/b&gt;" style="text;html=1;align=center;verticalAlign=middle;resizable=0;points=[];autosize=1;strokeColor=none;fillColor=none;fontSize=20;fontColor=#000000;" vertex="1" parent="1">
          <mxGeometry x="-310" y="6190" width="30" height="30" as="geometry" />
        </mxCell>
        <mxCell id="RLxwgoSpKKGLo3sov7BY-143" value="&lt;b&gt;1&lt;/b&gt;" style="text;html=1;align=center;verticalAlign=middle;resizable=0;points=[];autosize=1;strokeColor=none;fillColor=none;fontSize=20;fontColor=#000000;" vertex="1" parent="1">
          <mxGeometry x="-742.25" y="5825" width="30" height="30" as="geometry" />
        </mxCell>
        <mxCell id="RLxwgoSpKKGLo3sov7BY-144" value="&lt;b&gt;N&lt;/b&gt;" style="text;html=1;align=center;verticalAlign=middle;resizable=0;points=[];autosize=1;strokeColor=none;fillColor=none;fontSize=20;fontColor=#000000;" vertex="1" parent="1">
          <mxGeometry x="-742.25" y="6100" width="30" height="30" as="geometry" />
        </mxCell>
        <mxCell id="RLxwgoSpKKGLo3sov7BY-163" style="edgeStyle=orthogonalEdgeStyle;rounded=0;orthogonalLoop=1;jettySize=auto;html=1;fontSize=20;fontColor=#000000;endArrow=none;endFill=0;strokeColor=#000000;strokeWidth=4;entryX=1;entryY=0.5;entryDx=0;entryDy=0;" edge="1" parent="1" source="RLxwgoSpKKGLo3sov7BY-149" target="RLxwgoSpKKGLo3sov7BY-113">
          <mxGeometry relative="1" as="geometry">
            <mxPoint x="-260" y="5800" as="targetPoint" />
          </mxGeometry>
        </mxCell>
        <mxCell id="RLxwgoSpKKGLo3sov7BY-149" value="Aluno" style="whiteSpace=wrap;html=1;labelBackgroundColor=none;labelBorderColor=none;fontSize=20;fontColor=#000000;strokeColor=#D6B656;strokeWidth=4;" vertex="1" parent="1">
          <mxGeometry x="54.75" y="5960" width="120" height="60" as="geometry" />
        </mxCell>
        <mxCell id="RLxwgoSpKKGLo3sov7BY-159" style="edgeStyle=orthogonalEdgeStyle;rounded=0;orthogonalLoop=1;jettySize=auto;html=1;entryX=0.5;entryY=1;entryDx=0;entryDy=0;fontSize=20;fontColor=#000000;endArrow=none;endFill=0;strokeColor=#FF6666;strokeWidth=4;" edge="1" parent="1" source="RLxwgoSpKKGLo3sov7BY-156" target="RLxwgoSpKKGLo3sov7BY-149">
          <mxGeometry relative="1" as="geometry" />
        </mxCell>
        <mxCell id="RLxwgoSpKKGLo3sov7BY-156" value="Grade2" style="rhombus;whiteSpace=wrap;html=1;labelBackgroundColor=none;labelBorderColor=none;fontSize=20;fontColor=#000000;strokeColor=#D6B656;strokeWidth=4;" vertex="1" parent="1">
          <mxGeometry x="-10" y="6250" width="120" height="90" as="geometry" />
        </mxCell>
        <mxCell id="RLxwgoSpKKGLo3sov7BY-162" value="&lt;b&gt;N&lt;/b&gt;" style="text;html=1;align=center;verticalAlign=middle;resizable=0;points=[];autosize=1;strokeColor=none;fillColor=none;fontSize=20;fontColor=#000000;" vertex="1" parent="1">
          <mxGeometry x="-350" y="6000" width="30" height="30" as="geometry" />
        </mxCell>
        <mxCell id="RLxwgoSpKKGLo3sov7BY-164" value="&lt;b&gt;N&lt;/b&gt;" style="text;html=1;align=center;verticalAlign=middle;resizable=0;points=[];autosize=1;strokeColor=none;fillColor=none;fontSize=20;fontColor=#000000;" vertex="1" parent="1">
          <mxGeometry x="24.75" y="6225" width="30" height="30" as="geometry" />
        </mxCell>
        <mxCell id="RLxwgoSpKKGLo3sov7BY-165" value="&lt;b&gt;1&lt;/b&gt;" style="text;html=1;align=center;verticalAlign=middle;resizable=0;points=[];autosize=1;strokeColor=none;fillColor=none;fontSize=20;fontColor=#000000;" vertex="1" parent="1">
          <mxGeometry x="117.5" y="6020" width="30" height="30" as="geometry" />
        </mxCell>
        <mxCell id="RLxwgoSpKKGLo3sov7BY-166" value="&lt;b&gt;1&lt;/b&gt;" style="text;html=1;align=center;verticalAlign=middle;resizable=0;points=[];autosize=1;strokeColor=none;fillColor=none;fontSize=20;fontColor=#000000;" vertex="1" parent="1">
          <mxGeometry x="-87.25" y="5800" width="30" height="30" as="geometry" />
        </mxCell>
        <mxCell id="RLxwgoSpKKGLo3sov7BY-168" value="&lt;b&gt;1&lt;/b&gt;" style="text;html=1;align=center;verticalAlign=middle;resizable=0;points=[];autosize=1;strokeColor=none;fillColor=none;fontSize=20;fontColor=#000000;" vertex="1" parent="1">
          <mxGeometry x="-597.25" y="6145" width="30" height="30" as="geometry" />
        </mxCell>
        <mxCell id="RLxwgoSpKKGLo3sov7BY-169" value="&lt;b&gt;1&lt;/b&gt;" style="text;html=1;align=center;verticalAlign=middle;resizable=0;points=[];autosize=1;strokeColor=none;fillColor=none;fontSize=20;fontColor=#000000;" vertex="1" parent="1">
          <mxGeometry x="-310" y="6250" width="30" height="30" as="geometry" />
        </mxCell>
        <mxCell id="RLxwgoSpKKGLo3sov7BY-183" value="Disciplinas" style="shape=table;startSize=30;container=1;collapsible=1;childLayout=tableLayout;fixedRows=1;rowLines=0;fontStyle=1;align=center;resizeLast=1;labelBackgroundColor=none;labelBorderColor=none;fontSize=20;fontColor=#000000;strokeColor=#D6B656;strokeWidth=4;" vertex="1" parent="1">
          <mxGeometry x="-270" y="6850" width="180" height="220" as="geometry" />
        </mxCell>
        <mxCell id="RLxwgoSpKKGLo3sov7BY-184" value="" style="shape=tableRow;horizontal=0;startSize=0;swimlaneHead=0;swimlaneBody=0;fillColor=none;collapsible=0;dropTarget=0;points=[[0,0.5],[1,0.5]];portConstraint=eastwest;top=0;left=0;right=0;bottom=1;labelBackgroundColor=none;labelBorderColor=none;fontSize=20;fontColor=#000000;strokeColor=#D6B656;strokeWidth=4;" vertex="1" parent="RLxwgoSpKKGLo3sov7BY-183">
          <mxGeometry y="30" width="180" height="30" as="geometry" />
        </mxCell>
        <mxCell id="RLxwgoSpKKGLo3sov7BY-185" value="PK" style="shape=partialRectangle;connectable=0;fillColor=none;top=0;left=0;bottom=0;right=0;fontStyle=1;overflow=hidden;labelBackgroundColor=none;labelBorderColor=none;fontSize=20;fontColor=#000000;strokeColor=#D6B656;strokeWidth=4;" vertex="1" parent="RLxwgoSpKKGLo3sov7BY-184">
          <mxGeometry width="30" height="30" as="geometry">
            <mxRectangle width="30" height="30" as="alternateBounds" />
          </mxGeometry>
        </mxCell>
        <mxCell id="RLxwgoSpKKGLo3sov7BY-186" value="Id_Disciplina" style="shape=partialRectangle;connectable=0;fillColor=none;top=0;left=0;bottom=0;right=0;align=left;spacingLeft=6;fontStyle=5;overflow=hidden;labelBackgroundColor=none;labelBorderColor=none;fontSize=20;fontColor=#000000;strokeColor=#D6B656;strokeWidth=4;" vertex="1" parent="RLxwgoSpKKGLo3sov7BY-184">
          <mxGeometry x="30" width="150" height="30" as="geometry">
            <mxRectangle width="150" height="30" as="alternateBounds" />
          </mxGeometry>
        </mxCell>
        <mxCell id="RLxwgoSpKKGLo3sov7BY-187" value="" style="shape=tableRow;horizontal=0;startSize=0;swimlaneHead=0;swimlaneBody=0;fillColor=none;collapsible=0;dropTarget=0;points=[[0,0.5],[1,0.5]];portConstraint=eastwest;top=0;left=0;right=0;bottom=0;labelBackgroundColor=none;labelBorderColor=none;fontSize=20;fontColor=#000000;strokeColor=#D6B656;strokeWidth=4;" vertex="1" parent="RLxwgoSpKKGLo3sov7BY-183">
          <mxGeometry y="60" width="180" height="30" as="geometry" />
        </mxCell>
        <mxCell id="RLxwgoSpKKGLo3sov7BY-188" value="" style="shape=partialRectangle;connectable=0;fillColor=none;top=0;left=0;bottom=0;right=0;editable=1;overflow=hidden;labelBackgroundColor=none;labelBorderColor=none;fontSize=20;fontColor=#000000;strokeColor=#D6B656;strokeWidth=4;" vertex="1" parent="RLxwgoSpKKGLo3sov7BY-187">
          <mxGeometry width="30" height="30" as="geometry">
            <mxRectangle width="30" height="30" as="alternateBounds" />
          </mxGeometry>
        </mxCell>
        <mxCell id="RLxwgoSpKKGLo3sov7BY-189" value="Denominacao" style="shape=partialRectangle;connectable=0;fillColor=none;top=0;left=0;bottom=0;right=0;align=left;spacingLeft=6;overflow=hidden;labelBackgroundColor=none;labelBorderColor=none;fontSize=20;fontColor=#000000;strokeColor=#D6B656;strokeWidth=4;" vertex="1" parent="RLxwgoSpKKGLo3sov7BY-187">
          <mxGeometry x="30" width="150" height="30" as="geometry">
            <mxRectangle width="150" height="30" as="alternateBounds" />
          </mxGeometry>
        </mxCell>
        <mxCell id="RLxwgoSpKKGLo3sov7BY-190" value="" style="shape=tableRow;horizontal=0;startSize=0;swimlaneHead=0;swimlaneBody=0;fillColor=none;collapsible=0;dropTarget=0;points=[[0,0.5],[1,0.5]];portConstraint=eastwest;top=0;left=0;right=0;bottom=0;labelBackgroundColor=none;labelBorderColor=none;fontSize=20;fontColor=#000000;strokeColor=#D6B656;strokeWidth=4;" vertex="1" parent="RLxwgoSpKKGLo3sov7BY-183">
          <mxGeometry y="90" width="180" height="30" as="geometry" />
        </mxCell>
        <mxCell id="RLxwgoSpKKGLo3sov7BY-191" value="" style="shape=partialRectangle;connectable=0;fillColor=none;top=0;left=0;bottom=0;right=0;editable=1;overflow=hidden;labelBackgroundColor=none;labelBorderColor=none;fontSize=20;fontColor=#000000;strokeColor=#D6B656;strokeWidth=4;" vertex="1" parent="RLxwgoSpKKGLo3sov7BY-190">
          <mxGeometry width="30" height="30" as="geometry">
            <mxRectangle width="30" height="30" as="alternateBounds" />
          </mxGeometry>
        </mxCell>
        <mxCell id="RLxwgoSpKKGLo3sov7BY-192" value="Sigla" style="shape=partialRectangle;connectable=0;fillColor=none;top=0;left=0;bottom=0;right=0;align=left;spacingLeft=6;overflow=hidden;labelBackgroundColor=none;labelBorderColor=none;fontSize=20;fontColor=#000000;strokeColor=#D6B656;strokeWidth=4;" vertex="1" parent="RLxwgoSpKKGLo3sov7BY-190">
          <mxGeometry x="30" width="150" height="30" as="geometry">
            <mxRectangle width="150" height="30" as="alternateBounds" />
          </mxGeometry>
        </mxCell>
        <mxCell id="RLxwgoSpKKGLo3sov7BY-193" value="" style="shape=tableRow;horizontal=0;startSize=0;swimlaneHead=0;swimlaneBody=0;fillColor=none;collapsible=0;dropTarget=0;points=[[0,0.5],[1,0.5]];portConstraint=eastwest;top=0;left=0;right=0;bottom=0;labelBackgroundColor=none;labelBorderColor=none;fontSize=20;fontColor=#000000;strokeColor=#D6B656;strokeWidth=4;" vertex="1" parent="RLxwgoSpKKGLo3sov7BY-183">
          <mxGeometry y="120" width="180" height="30" as="geometry" />
        </mxCell>
        <mxCell id="RLxwgoSpKKGLo3sov7BY-194" value="FK" style="shape=partialRectangle;connectable=0;fillColor=none;top=0;left=0;bottom=0;right=0;editable=1;overflow=hidden;labelBackgroundColor=none;labelBorderColor=none;fontSize=20;fontColor=#000000;strokeColor=#D6B656;strokeWidth=4;" vertex="1" parent="RLxwgoSpKKGLo3sov7BY-193">
          <mxGeometry width="30" height="30" as="geometry">
            <mxRectangle width="30" height="30" as="alternateBounds" />
          </mxGeometry>
        </mxCell>
        <mxCell id="RLxwgoSpKKGLo3sov7BY-195" value="Id_Dep" style="shape=partialRectangle;connectable=0;fillColor=none;top=0;left=0;bottom=0;right=0;align=left;spacingLeft=6;overflow=hidden;labelBackgroundColor=none;labelBorderColor=none;fontSize=20;fontColor=#000000;strokeColor=#D6B656;strokeWidth=4;" vertex="1" parent="RLxwgoSpKKGLo3sov7BY-193">
          <mxGeometry x="30" width="150" height="30" as="geometry">
            <mxRectangle width="150" height="30" as="alternateBounds" />
          </mxGeometry>
        </mxCell>
        <mxCell id="RLxwgoSpKKGLo3sov7BY-196" style="shape=tableRow;horizontal=0;startSize=0;swimlaneHead=0;swimlaneBody=0;fillColor=none;collapsible=0;dropTarget=0;points=[[0,0.5],[1,0.5]];portConstraint=eastwest;top=0;left=0;right=0;bottom=0;labelBackgroundColor=none;labelBorderColor=none;fontSize=20;fontColor=#000000;strokeColor=#D6B656;strokeWidth=4;" vertex="1" parent="RLxwgoSpKKGLo3sov7BY-183">
          <mxGeometry y="150" width="180" height="30" as="geometry" />
        </mxCell>
        <mxCell id="RLxwgoSpKKGLo3sov7BY-197" style="shape=partialRectangle;connectable=0;fillColor=none;top=0;left=0;bottom=0;right=0;editable=1;overflow=hidden;labelBackgroundColor=none;labelBorderColor=none;fontSize=20;fontColor=#000000;strokeColor=#D6B656;strokeWidth=4;" vertex="1" parent="RLxwgoSpKKGLo3sov7BY-196">
          <mxGeometry width="30" height="30" as="geometry">
            <mxRectangle width="30" height="30" as="alternateBounds" />
          </mxGeometry>
        </mxCell>
        <mxCell id="RLxwgoSpKKGLo3sov7BY-198" style="shape=partialRectangle;connectable=0;fillColor=none;top=0;left=0;bottom=0;right=0;align=left;spacingLeft=6;overflow=hidden;labelBackgroundColor=none;labelBorderColor=none;fontSize=20;fontColor=#000000;strokeColor=#D6B656;strokeWidth=4;" vertex="1" parent="RLxwgoSpKKGLo3sov7BY-196">
          <mxGeometry x="30" width="150" height="30" as="geometry">
            <mxRectangle width="150" height="30" as="alternateBounds" />
          </mxGeometry>
        </mxCell>
        <mxCell id="RLxwgoSpKKGLo3sov7BY-199" style="shape=tableRow;horizontal=0;startSize=0;swimlaneHead=0;swimlaneBody=0;fillColor=none;collapsible=0;dropTarget=0;points=[[0,0.5],[1,0.5]];portConstraint=eastwest;top=0;left=0;right=0;bottom=0;labelBackgroundColor=none;labelBorderColor=none;fontSize=20;fontColor=#000000;strokeColor=#D6B656;strokeWidth=4;" vertex="1" parent="RLxwgoSpKKGLo3sov7BY-183">
          <mxGeometry y="180" width="180" height="30" as="geometry" />
        </mxCell>
        <mxCell id="RLxwgoSpKKGLo3sov7BY-200" style="shape=partialRectangle;connectable=0;fillColor=none;top=0;left=0;bottom=0;right=0;editable=1;overflow=hidden;labelBackgroundColor=none;labelBorderColor=none;fontSize=20;fontColor=#000000;strokeColor=#D6B656;strokeWidth=4;" vertex="1" parent="RLxwgoSpKKGLo3sov7BY-199">
          <mxGeometry width="30" height="30" as="geometry">
            <mxRectangle width="30" height="30" as="alternateBounds" />
          </mxGeometry>
        </mxCell>
        <mxCell id="RLxwgoSpKKGLo3sov7BY-201" style="shape=partialRectangle;connectable=0;fillColor=none;top=0;left=0;bottom=0;right=0;align=left;spacingLeft=6;overflow=hidden;labelBackgroundColor=none;labelBorderColor=none;fontSize=20;fontColor=#000000;strokeColor=#D6B656;strokeWidth=4;" vertex="1" parent="RLxwgoSpKKGLo3sov7BY-199">
          <mxGeometry x="30" width="150" height="30" as="geometry">
            <mxRectangle width="150" height="30" as="alternateBounds" />
          </mxGeometry>
        </mxCell>
        <mxCell id="RLxwgoSpKKGLo3sov7BY-224" value="Grade" style="shape=table;startSize=30;container=1;collapsible=1;childLayout=tableLayout;fixedRows=1;rowLines=0;fontStyle=1;align=center;resizeLast=1;labelBackgroundColor=none;labelBorderColor=none;fontSize=20;fontColor=#000000;strokeColor=#D6B656;strokeWidth=4;" vertex="1" parent="1">
          <mxGeometry x="-650" y="7510" width="180" height="160" as="geometry" />
        </mxCell>
        <mxCell id="RLxwgoSpKKGLo3sov7BY-225" value="" style="shape=tableRow;horizontal=0;startSize=0;swimlaneHead=0;swimlaneBody=0;fillColor=none;collapsible=0;dropTarget=0;points=[[0,0.5],[1,0.5]];portConstraint=eastwest;top=0;left=0;right=0;bottom=1;labelBackgroundColor=none;labelBorderColor=none;fontSize=20;fontColor=#000000;strokeColor=#D6B656;strokeWidth=4;" vertex="1" parent="RLxwgoSpKKGLo3sov7BY-224">
          <mxGeometry y="30" width="180" height="30" as="geometry" />
        </mxCell>
        <mxCell id="RLxwgoSpKKGLo3sov7BY-226" value="PK" style="shape=partialRectangle;connectable=0;fillColor=none;top=0;left=0;bottom=0;right=0;fontStyle=1;overflow=hidden;labelBackgroundColor=none;labelBorderColor=none;fontSize=20;fontColor=#000000;strokeColor=#D6B656;strokeWidth=4;" vertex="1" parent="RLxwgoSpKKGLo3sov7BY-225">
          <mxGeometry width="30" height="30" as="geometry">
            <mxRectangle width="30" height="30" as="alternateBounds" />
          </mxGeometry>
        </mxCell>
        <mxCell id="RLxwgoSpKKGLo3sov7BY-227" value="Id_Grade" style="shape=partialRectangle;connectable=0;fillColor=none;top=0;left=0;bottom=0;right=0;align=left;spacingLeft=6;fontStyle=5;overflow=hidden;labelBackgroundColor=none;labelBorderColor=none;fontSize=20;fontColor=#000000;strokeColor=#D6B656;strokeWidth=4;" vertex="1" parent="RLxwgoSpKKGLo3sov7BY-225">
          <mxGeometry x="30" width="150" height="30" as="geometry">
            <mxRectangle width="150" height="30" as="alternateBounds" />
          </mxGeometry>
        </mxCell>
        <mxCell id="RLxwgoSpKKGLo3sov7BY-228" value="" style="shape=tableRow;horizontal=0;startSize=0;swimlaneHead=0;swimlaneBody=0;fillColor=none;collapsible=0;dropTarget=0;points=[[0,0.5],[1,0.5]];portConstraint=eastwest;top=0;left=0;right=0;bottom=0;labelBackgroundColor=none;labelBorderColor=none;fontSize=20;fontColor=#000000;strokeColor=#D6B656;strokeWidth=4;" vertex="1" parent="RLxwgoSpKKGLo3sov7BY-224">
          <mxGeometry y="60" width="180" height="30" as="geometry" />
        </mxCell>
        <mxCell id="RLxwgoSpKKGLo3sov7BY-229" value="FK" style="shape=partialRectangle;connectable=0;fillColor=none;top=0;left=0;bottom=0;right=0;editable=1;overflow=hidden;labelBackgroundColor=none;labelBorderColor=none;fontSize=20;fontColor=#000000;strokeColor=#D6B656;strokeWidth=4;" vertex="1" parent="RLxwgoSpKKGLo3sov7BY-228">
          <mxGeometry width="30" height="30" as="geometry">
            <mxRectangle width="30" height="30" as="alternateBounds" />
          </mxGeometry>
        </mxCell>
        <mxCell id="RLxwgoSpKKGLo3sov7BY-230" value="Id_Prof" style="shape=partialRectangle;connectable=0;fillColor=none;top=0;left=0;bottom=0;right=0;align=left;spacingLeft=6;overflow=hidden;labelBackgroundColor=none;labelBorderColor=none;fontSize=20;fontColor=#000000;strokeColor=#D6B656;strokeWidth=4;" vertex="1" parent="RLxwgoSpKKGLo3sov7BY-228">
          <mxGeometry x="30" width="150" height="30" as="geometry">
            <mxRectangle width="150" height="30" as="alternateBounds" />
          </mxGeometry>
        </mxCell>
        <mxCell id="RLxwgoSpKKGLo3sov7BY-231" value="" style="shape=tableRow;horizontal=0;startSize=0;swimlaneHead=0;swimlaneBody=0;fillColor=none;collapsible=0;dropTarget=0;points=[[0,0.5],[1,0.5]];portConstraint=eastwest;top=0;left=0;right=0;bottom=0;labelBackgroundColor=none;labelBorderColor=none;fontSize=20;fontColor=#000000;strokeColor=#D6B656;strokeWidth=4;" vertex="1" parent="RLxwgoSpKKGLo3sov7BY-224">
          <mxGeometry y="90" width="180" height="30" as="geometry" />
        </mxCell>
        <mxCell id="RLxwgoSpKKGLo3sov7BY-232" value="FK" style="shape=partialRectangle;connectable=0;fillColor=none;top=0;left=0;bottom=0;right=0;editable=1;overflow=hidden;labelBackgroundColor=none;labelBorderColor=none;fontSize=20;fontColor=#000000;strokeColor=#D6B656;strokeWidth=4;" vertex="1" parent="RLxwgoSpKKGLo3sov7BY-231">
          <mxGeometry width="30" height="30" as="geometry">
            <mxRectangle width="30" height="30" as="alternateBounds" />
          </mxGeometry>
        </mxCell>
        <mxCell id="RLxwgoSpKKGLo3sov7BY-233" value="Id_Curso" style="shape=partialRectangle;connectable=0;fillColor=none;top=0;left=0;bottom=0;right=0;align=left;spacingLeft=6;overflow=hidden;labelBackgroundColor=none;labelBorderColor=none;fontSize=20;fontColor=#000000;strokeColor=#D6B656;strokeWidth=4;" vertex="1" parent="RLxwgoSpKKGLo3sov7BY-231">
          <mxGeometry x="30" width="150" height="30" as="geometry">
            <mxRectangle width="150" height="30" as="alternateBounds" />
          </mxGeometry>
        </mxCell>
        <mxCell id="RLxwgoSpKKGLo3sov7BY-234" value="" style="shape=tableRow;horizontal=0;startSize=0;swimlaneHead=0;swimlaneBody=0;fillColor=none;collapsible=0;dropTarget=0;points=[[0,0.5],[1,0.5]];portConstraint=eastwest;top=0;left=0;right=0;bottom=0;labelBackgroundColor=none;labelBorderColor=none;fontSize=20;fontColor=#000000;strokeColor=#D6B656;strokeWidth=4;" vertex="1" parent="RLxwgoSpKKGLo3sov7BY-224">
          <mxGeometry y="120" width="180" height="30" as="geometry" />
        </mxCell>
        <mxCell id="RLxwgoSpKKGLo3sov7BY-235" value="FK" style="shape=partialRectangle;connectable=0;fillColor=none;top=0;left=0;bottom=0;right=0;editable=1;overflow=hidden;labelBackgroundColor=none;labelBorderColor=none;fontSize=20;fontColor=#000000;strokeColor=#D6B656;strokeWidth=4;" vertex="1" parent="RLxwgoSpKKGLo3sov7BY-234">
          <mxGeometry width="30" height="30" as="geometry">
            <mxRectangle width="30" height="30" as="alternateBounds" />
          </mxGeometry>
        </mxCell>
        <mxCell id="RLxwgoSpKKGLo3sov7BY-236" value="Id_Disciplina" style="shape=partialRectangle;connectable=0;fillColor=none;top=0;left=0;bottom=0;right=0;align=left;spacingLeft=6;overflow=hidden;labelBackgroundColor=none;labelBorderColor=none;fontSize=20;fontColor=#000000;strokeColor=#D6B656;strokeWidth=4;" vertex="1" parent="RLxwgoSpKKGLo3sov7BY-234">
          <mxGeometry x="30" width="150" height="30" as="geometry">
            <mxRectangle width="150" height="30" as="alternateBounds" />
          </mxGeometry>
        </mxCell>
        <mxCell id="RLxwgoSpKKGLo3sov7BY-237" value="Grade2" style="shape=table;startSize=30;container=1;collapsible=1;childLayout=tableLayout;fixedRows=1;rowLines=0;fontStyle=1;align=center;resizeLast=1;labelBackgroundColor=none;labelBorderColor=none;fontSize=20;fontColor=#000000;strokeColor=#D6B656;strokeWidth=4;" vertex="1" parent="1">
          <mxGeometry x="-817.25" y="6970" width="180" height="160" as="geometry" />
        </mxCell>
        <mxCell id="RLxwgoSpKKGLo3sov7BY-238" value="" style="shape=tableRow;horizontal=0;startSize=0;swimlaneHead=0;swimlaneBody=0;fillColor=none;collapsible=0;dropTarget=0;points=[[0,0.5],[1,0.5]];portConstraint=eastwest;top=0;left=0;right=0;bottom=1;labelBackgroundColor=none;labelBorderColor=none;fontSize=20;fontColor=#000000;strokeColor=#D6B656;strokeWidth=4;" vertex="1" parent="RLxwgoSpKKGLo3sov7BY-237">
          <mxGeometry y="30" width="180" height="30" as="geometry" />
        </mxCell>
        <mxCell id="RLxwgoSpKKGLo3sov7BY-239" value="PK" style="shape=partialRectangle;connectable=0;fillColor=none;top=0;left=0;bottom=0;right=0;fontStyle=1;overflow=hidden;labelBackgroundColor=none;labelBorderColor=none;fontSize=20;fontColor=#000000;strokeColor=#D6B656;strokeWidth=4;" vertex="1" parent="RLxwgoSpKKGLo3sov7BY-238">
          <mxGeometry width="30" height="30" as="geometry">
            <mxRectangle width="30" height="30" as="alternateBounds" />
          </mxGeometry>
        </mxCell>
        <mxCell id="RLxwgoSpKKGLo3sov7BY-240" value="Id_Grade2" style="shape=partialRectangle;connectable=0;fillColor=none;top=0;left=0;bottom=0;right=0;align=left;spacingLeft=6;fontStyle=5;overflow=hidden;labelBackgroundColor=none;labelBorderColor=none;fontSize=20;fontColor=#000000;strokeColor=#D6B656;strokeWidth=4;" vertex="1" parent="RLxwgoSpKKGLo3sov7BY-238">
          <mxGeometry x="30" width="150" height="30" as="geometry">
            <mxRectangle width="150" height="30" as="alternateBounds" />
          </mxGeometry>
        </mxCell>
        <mxCell id="RLxwgoSpKKGLo3sov7BY-241" value="" style="shape=tableRow;horizontal=0;startSize=0;swimlaneHead=0;swimlaneBody=0;fillColor=none;collapsible=0;dropTarget=0;points=[[0,0.5],[1,0.5]];portConstraint=eastwest;top=0;left=0;right=0;bottom=0;labelBackgroundColor=none;labelBorderColor=none;fontSize=20;fontColor=#000000;strokeColor=#D6B656;strokeWidth=4;" vertex="1" parent="RLxwgoSpKKGLo3sov7BY-237">
          <mxGeometry y="60" width="180" height="30" as="geometry" />
        </mxCell>
        <mxCell id="RLxwgoSpKKGLo3sov7BY-242" value="" style="shape=partialRectangle;connectable=0;fillColor=none;top=0;left=0;bottom=0;right=0;editable=1;overflow=hidden;labelBackgroundColor=none;labelBorderColor=none;fontSize=20;fontColor=#000000;strokeColor=#D6B656;strokeWidth=4;" vertex="1" parent="RLxwgoSpKKGLo3sov7BY-241">
          <mxGeometry width="30" height="30" as="geometry">
            <mxRectangle width="30" height="30" as="alternateBounds" />
          </mxGeometry>
        </mxCell>
        <mxCell id="RLxwgoSpKKGLo3sov7BY-243" value="Row 1" style="shape=partialRectangle;connectable=0;fillColor=none;top=0;left=0;bottom=0;right=0;align=left;spacingLeft=6;overflow=hidden;labelBackgroundColor=none;labelBorderColor=none;fontSize=20;fontColor=#000000;strokeColor=#D6B656;strokeWidth=4;" vertex="1" parent="RLxwgoSpKKGLo3sov7BY-241">
          <mxGeometry x="30" width="150" height="30" as="geometry">
            <mxRectangle width="150" height="30" as="alternateBounds" />
          </mxGeometry>
        </mxCell>
        <mxCell id="RLxwgoSpKKGLo3sov7BY-244" value="" style="shape=tableRow;horizontal=0;startSize=0;swimlaneHead=0;swimlaneBody=0;fillColor=none;collapsible=0;dropTarget=0;points=[[0,0.5],[1,0.5]];portConstraint=eastwest;top=0;left=0;right=0;bottom=0;labelBackgroundColor=none;labelBorderColor=none;fontSize=20;fontColor=#000000;strokeColor=#D6B656;strokeWidth=4;" vertex="1" parent="RLxwgoSpKKGLo3sov7BY-237">
          <mxGeometry y="90" width="180" height="30" as="geometry" />
        </mxCell>
        <mxCell id="RLxwgoSpKKGLo3sov7BY-245" value="" style="shape=partialRectangle;connectable=0;fillColor=none;top=0;left=0;bottom=0;right=0;editable=1;overflow=hidden;labelBackgroundColor=none;labelBorderColor=none;fontSize=20;fontColor=#000000;strokeColor=#D6B656;strokeWidth=4;" vertex="1" parent="RLxwgoSpKKGLo3sov7BY-244">
          <mxGeometry width="30" height="30" as="geometry">
            <mxRectangle width="30" height="30" as="alternateBounds" />
          </mxGeometry>
        </mxCell>
        <mxCell id="RLxwgoSpKKGLo3sov7BY-246" value="Row 2" style="shape=partialRectangle;connectable=0;fillColor=none;top=0;left=0;bottom=0;right=0;align=left;spacingLeft=6;overflow=hidden;labelBackgroundColor=none;labelBorderColor=none;fontSize=20;fontColor=#000000;strokeColor=#D6B656;strokeWidth=4;" vertex="1" parent="RLxwgoSpKKGLo3sov7BY-244">
          <mxGeometry x="30" width="150" height="30" as="geometry">
            <mxRectangle width="150" height="30" as="alternateBounds" />
          </mxGeometry>
        </mxCell>
        <mxCell id="RLxwgoSpKKGLo3sov7BY-247" value="" style="shape=tableRow;horizontal=0;startSize=0;swimlaneHead=0;swimlaneBody=0;fillColor=none;collapsible=0;dropTarget=0;points=[[0,0.5],[1,0.5]];portConstraint=eastwest;top=0;left=0;right=0;bottom=0;labelBackgroundColor=none;labelBorderColor=none;fontSize=20;fontColor=#000000;strokeColor=#D6B656;strokeWidth=4;" vertex="1" parent="RLxwgoSpKKGLo3sov7BY-237">
          <mxGeometry y="120" width="180" height="30" as="geometry" />
        </mxCell>
        <mxCell id="RLxwgoSpKKGLo3sov7BY-248" value="" style="shape=partialRectangle;connectable=0;fillColor=none;top=0;left=0;bottom=0;right=0;editable=1;overflow=hidden;labelBackgroundColor=none;labelBorderColor=none;fontSize=20;fontColor=#000000;strokeColor=#D6B656;strokeWidth=4;" vertex="1" parent="RLxwgoSpKKGLo3sov7BY-247">
          <mxGeometry width="30" height="30" as="geometry">
            <mxRectangle width="30" height="30" as="alternateBounds" />
          </mxGeometry>
        </mxCell>
        <mxCell id="RLxwgoSpKKGLo3sov7BY-249" value="Row 3" style="shape=partialRectangle;connectable=0;fillColor=none;top=0;left=0;bottom=0;right=0;align=left;spacingLeft=6;overflow=hidden;labelBackgroundColor=none;labelBorderColor=none;fontSize=20;fontColor=#000000;strokeColor=#D6B656;strokeWidth=4;" vertex="1" parent="RLxwgoSpKKGLo3sov7BY-247">
          <mxGeometry x="30" width="150" height="30" as="geometry">
            <mxRectangle width="150" height="30" as="alternateBounds" />
          </mxGeometry>
        </mxCell>
        <mxCell id="RLxwgoSpKKGLo3sov7BY-267" style="edgeStyle=orthogonalEdgeStyle;rounded=0;orthogonalLoop=1;jettySize=auto;html=1;fontSize=20;fontColor=#000000;endArrow=none;endFill=0;strokeColor=#000000;strokeWidth=4;" edge="1" parent="1" source="RLxwgoSpKKGLo3sov7BY-252" target="RLxwgoSpKKGLo3sov7BY-253">
          <mxGeometry relative="1" as="geometry" />
        </mxCell>
        <mxCell id="RLxwgoSpKKGLo3sov7BY-252" value="Departamento" style="rounded=1;whiteSpace=wrap;html=1;labelBackgroundColor=none;labelBorderColor=none;fontSize=20;fontColor=#000000;strokeColor=#D6B656;strokeWidth=4;" vertex="1" parent="1">
          <mxGeometry x="-598.88" y="7960" width="120" height="60" as="geometry" />
        </mxCell>
        <mxCell id="RLxwgoSpKKGLo3sov7BY-265" style="edgeStyle=orthogonalEdgeStyle;rounded=0;orthogonalLoop=1;jettySize=auto;html=1;entryX=0.5;entryY=0;entryDx=0;entryDy=0;fontSize=20;fontColor=#000000;endArrow=none;endFill=0;strokeColor=#000000;strokeWidth=4;" edge="1" parent="1" source="RLxwgoSpKKGLo3sov7BY-253" target="RLxwgoSpKKGLo3sov7BY-256">
          <mxGeometry relative="1" as="geometry">
            <Array as="points">
              <mxPoint x="246.12" y="8170" />
            </Array>
          </mxGeometry>
        </mxCell>
        <mxCell id="RLxwgoSpKKGLo3sov7BY-268" style="edgeStyle=orthogonalEdgeStyle;rounded=0;orthogonalLoop=1;jettySize=auto;html=1;entryX=0.5;entryY=0;entryDx=0;entryDy=0;fontSize=20;fontColor=#000000;endArrow=none;endFill=0;strokeColor=#000000;strokeWidth=4;" edge="1" parent="1" source="RLxwgoSpKKGLo3sov7BY-253" target="RLxwgoSpKKGLo3sov7BY-257">
          <mxGeometry relative="1" as="geometry" />
        </mxCell>
        <mxCell id="RLxwgoSpKKGLo3sov7BY-253" value="Cursos" style="rounded=1;whiteSpace=wrap;html=1;labelBackgroundColor=none;labelBorderColor=none;fontSize=20;fontColor=#000000;strokeColor=#D6B656;strokeWidth=4;" vertex="1" parent="1">
          <mxGeometry x="196.12" y="7960" width="120" height="60" as="geometry" />
        </mxCell>
        <mxCell id="RLxwgoSpKKGLo3sov7BY-262" style="edgeStyle=orthogonalEdgeStyle;rounded=0;orthogonalLoop=1;jettySize=auto;html=1;entryX=0.5;entryY=1;entryDx=0;entryDy=0;fontSize=20;fontColor=#000000;endArrow=none;endFill=0;strokeColor=#000000;strokeWidth=4;" edge="1" parent="1" source="RLxwgoSpKKGLo3sov7BY-254" target="RLxwgoSpKKGLo3sov7BY-252">
          <mxGeometry relative="1" as="geometry">
            <Array as="points">
              <mxPoint x="-427" y="8410" />
              <mxPoint x="-540" y="8410" />
              <mxPoint x="-540" y="8020" />
            </Array>
          </mxGeometry>
        </mxCell>
        <mxCell id="RLxwgoSpKKGLo3sov7BY-254" value="Professor" style="rounded=1;whiteSpace=wrap;html=1;labelBackgroundColor=none;labelBorderColor=none;fontSize=20;fontColor=#000000;strokeColor=#D6B656;strokeWidth=4;" vertex="1" parent="1">
          <mxGeometry x="-486.63" y="8505" width="120" height="60" as="geometry" />
        </mxCell>
        <mxCell id="RLxwgoSpKKGLo3sov7BY-261" style="edgeStyle=orthogonalEdgeStyle;rounded=0;orthogonalLoop=1;jettySize=auto;html=1;entryX=1;entryY=0.5;entryDx=0;entryDy=0;fontSize=20;fontColor=#000000;endArrow=none;endFill=0;strokeColor=#000000;strokeWidth=4;" edge="1" parent="1" source="RLxwgoSpKKGLo3sov7BY-255" target="RLxwgoSpKKGLo3sov7BY-254">
          <mxGeometry relative="1" as="geometry" />
        </mxCell>
        <mxCell id="RLxwgoSpKKGLo3sov7BY-255" value="Grade" style="rhombus;whiteSpace=wrap;html=1;labelBackgroundColor=none;labelBorderColor=none;fontSize=20;fontColor=#000000;strokeColor=#D6B656;strokeWidth=4;" vertex="1" parent="1">
          <mxGeometry x="-267.38" y="8480" width="115" height="110" as="geometry" />
        </mxCell>
        <mxCell id="RLxwgoSpKKGLo3sov7BY-266" style="edgeStyle=orthogonalEdgeStyle;rounded=0;orthogonalLoop=1;jettySize=auto;html=1;entryX=0.75;entryY=0;entryDx=0;entryDy=0;fontSize=20;fontColor=#000000;endArrow=none;endFill=0;strokeColor=#000000;strokeWidth=4;exitX=0.5;exitY=1;exitDx=0;exitDy=0;" edge="1" parent="1" source="RLxwgoSpKKGLo3sov7BY-256" target="RLxwgoSpKKGLo3sov7BY-258">
          <mxGeometry relative="1" as="geometry">
            <Array as="points">
              <mxPoint x="119.12" y="8505" />
            </Array>
          </mxGeometry>
        </mxCell>
        <mxCell id="RLxwgoSpKKGLo3sov7BY-256" value="Curriculo" style="rhombus;whiteSpace=wrap;html=1;labelBackgroundColor=none;labelBorderColor=none;fontSize=20;fontColor=#000000;strokeColor=#D6B656;strokeWidth=4;" vertex="1" parent="1">
          <mxGeometry x="60.36999999999999" y="8170" width="118" height="113" as="geometry" />
        </mxCell>
        <mxCell id="RLxwgoSpKKGLo3sov7BY-257" value="Aluno" style="rounded=1;whiteSpace=wrap;html=1;labelBackgroundColor=none;labelBorderColor=none;fontSize=20;fontColor=#000000;strokeColor=#D6B656;strokeWidth=4;" vertex="1" parent="1">
          <mxGeometry x="546.12" y="8310" width="120" height="60" as="geometry" />
        </mxCell>
        <mxCell id="RLxwgoSpKKGLo3sov7BY-260" style="edgeStyle=orthogonalEdgeStyle;rounded=0;orthogonalLoop=1;jettySize=auto;html=1;entryX=1;entryY=0.5;entryDx=0;entryDy=0;fontSize=20;fontColor=#000000;endArrow=none;endFill=0;strokeColor=#000000;strokeWidth=4;" edge="1" parent="1" source="RLxwgoSpKKGLo3sov7BY-258" target="RLxwgoSpKKGLo3sov7BY-255">
          <mxGeometry relative="1" as="geometry" />
        </mxCell>
        <mxCell id="RLxwgoSpKKGLo3sov7BY-258" value="Disciplina" style="rounded=1;whiteSpace=wrap;html=1;labelBackgroundColor=none;labelBorderColor=none;fontSize=20;fontColor=#000000;strokeColor=#D6B656;strokeWidth=4;" vertex="1" parent="1">
          <mxGeometry x="41.12" y="8505" width="120" height="60" as="geometry" />
        </mxCell>
        <mxCell id="RLxwgoSpKKGLo3sov7BY-270" style="edgeStyle=orthogonalEdgeStyle;rounded=0;orthogonalLoop=1;jettySize=auto;html=1;entryX=1;entryY=0.5;entryDx=0;entryDy=0;fontSize=20;fontColor=#000000;endArrow=none;endFill=0;strokeColor=#000000;strokeWidth=4;" edge="1" parent="1" source="RLxwgoSpKKGLo3sov7BY-269" target="RLxwgoSpKKGLo3sov7BY-258">
          <mxGeometry relative="1" as="geometry" />
        </mxCell>
        <mxCell id="RLxwgoSpKKGLo3sov7BY-271" style="edgeStyle=orthogonalEdgeStyle;rounded=0;orthogonalLoop=1;jettySize=auto;html=1;entryX=0.5;entryY=1;entryDx=0;entryDy=0;fontSize=20;fontColor=#000000;endArrow=none;endFill=0;strokeColor=#000000;strokeWidth=4;" edge="1" parent="1" source="RLxwgoSpKKGLo3sov7BY-269" target="RLxwgoSpKKGLo3sov7BY-257">
          <mxGeometry relative="1" as="geometry" />
        </mxCell>
        <mxCell id="RLxwgoSpKKGLo3sov7BY-269" value="Boletim" style="rhombus;whiteSpace=wrap;html=1;labelBackgroundColor=none;labelBorderColor=none;fontSize=20;fontColor=#000000;strokeColor=#D6B656;strokeWidth=4;" vertex="1" parent="1">
          <mxGeometry x="389.75" y="8485" width="90" height="100" as="geometry" />
        </mxCell>
        <mxCell id="RLxwgoSpKKGLo3sov7BY-273" value="&lt;b&gt;1&lt;/b&gt;" style="text;html=1;align=center;verticalAlign=middle;resizable=0;points=[];autosize=1;strokeColor=none;fillColor=none;fontSize=20;fontColor=#000000;" vertex="1" parent="1">
          <mxGeometry x="-581.13" y="8020" width="30" height="30" as="geometry" />
        </mxCell>
        <mxCell id="RLxwgoSpKKGLo3sov7BY-274" value="&lt;b&gt;1&lt;/b&gt;" style="text;html=1;align=center;verticalAlign=middle;resizable=0;points=[];autosize=1;strokeColor=none;fillColor=none;fontSize=20;fontColor=#000000;" vertex="1" parent="1">
          <mxGeometry x="-476.38" y="8020" width="30" height="30" as="geometry" />
        </mxCell>
        <mxCell id="RLxwgoSpKKGLo3sov7BY-275" value="&lt;b&gt;1&lt;/b&gt;" style="text;html=1;align=center;verticalAlign=middle;resizable=0;points=[];autosize=1;strokeColor=none;fillColor=none;fontSize=20;fontColor=#000000;" vertex="1" parent="1">
          <mxGeometry x="-476.38" y="7960" width="30" height="30" as="geometry" />
        </mxCell>
        <mxCell id="RLxwgoSpKKGLo3sov7BY-276" value="&lt;b&gt;1&lt;/b&gt;" style="text;html=1;align=center;verticalAlign=middle;resizable=0;points=[];autosize=1;strokeColor=none;fillColor=none;fontSize=20;fontColor=#000000;" vertex="1" parent="1">
          <mxGeometry x="161.12" y="8535" width="30" height="30" as="geometry" />
        </mxCell>
        <mxCell id="RLxwgoSpKKGLo3sov7BY-277" value="&lt;b&gt;1&lt;/b&gt;" style="text;html=1;align=center;verticalAlign=middle;resizable=0;points=[];autosize=1;strokeColor=none;fillColor=none;fontSize=20;fontColor=#000000;" vertex="1" parent="1">
          <mxGeometry x="-372.25" y="8505" width="30" height="30" as="geometry" />
        </mxCell>
        <mxCell id="RLxwgoSpKKGLo3sov7BY-278" value="&lt;b&gt;N&lt;/b&gt;" style="text;html=1;align=center;verticalAlign=middle;resizable=0;points=[];autosize=1;strokeColor=none;fillColor=none;fontSize=20;fontColor=#000000;" vertex="1" parent="1">
          <mxGeometry x="116.12" y="8280" width="30" height="30" as="geometry" />
        </mxCell>
        <mxCell id="RLxwgoSpKKGLo3sov7BY-280" value="&lt;b&gt;N&lt;/b&gt;" style="text;html=1;align=center;verticalAlign=middle;resizable=0;points=[];autosize=1;strokeColor=none;fillColor=none;fontSize=20;fontColor=#000000;" vertex="1" parent="1">
          <mxGeometry x="-286.38" y="8505" width="30" height="30" as="geometry" />
        </mxCell>
        <mxCell id="RLxwgoSpKKGLo3sov7BY-281" value="&lt;b&gt;N&lt;/b&gt;" style="text;html=1;align=center;verticalAlign=middle;resizable=0;points=[];autosize=1;strokeColor=none;fillColor=none;fontSize=20;fontColor=#000000;" vertex="1" parent="1">
          <mxGeometry x="-156.13" y="8505" width="30" height="30" as="geometry" />
        </mxCell>
        <mxCell id="RLxwgoSpKKGLo3sov7BY-282" value="&lt;b&gt;1&lt;/b&gt;" style="text;html=1;align=center;verticalAlign=middle;resizable=0;points=[];autosize=1;strokeColor=none;fillColor=none;fontSize=20;fontColor=#000000;" vertex="1" parent="1">
          <mxGeometry x="120.87" y="8475" width="30" height="30" as="geometry" />
        </mxCell>
        <mxCell id="RLxwgoSpKKGLo3sov7BY-279" value="&lt;b&gt;N&lt;/b&gt;" style="text;html=1;align=center;verticalAlign=middle;resizable=0;points=[];autosize=1;strokeColor=none;fillColor=none;fontSize=20;fontColor=#000000;" vertex="1" parent="1">
          <mxGeometry x="36.86999999999999" y="8475" width="30" height="30" as="geometry" />
        </mxCell>
        <mxCell id="RLxwgoSpKKGLo3sov7BY-283" value="" style="edgeStyle=orthogonalEdgeStyle;rounded=0;orthogonalLoop=1;jettySize=auto;html=1;fontSize=20;fontColor=#000000;endArrow=none;endFill=0;strokeColor=#000000;strokeWidth=4;exitX=1;exitY=1;exitDx=0;exitDy=0;entryX=0;entryY=0;entryDx=0;entryDy=0;" edge="1" parent="1" source="RLxwgoSpKKGLo3sov7BY-252" target="RLxwgoSpKKGLo3sov7BY-258">
          <mxGeometry relative="1" as="geometry">
            <mxPoint x="-376.3800000000001" y="8080" as="sourcePoint" />
            <mxPoint x="19.79999999999972" y="8397" as="targetPoint" />
            <Array as="points">
              <mxPoint x="-478.88" y="8262" />
              <mxPoint x="41.12" y="8262" />
            </Array>
          </mxGeometry>
        </mxCell>
        <mxCell id="RLxwgoSpKKGLo3sov7BY-284" value="&lt;b&gt;N&lt;/b&gt;" style="text;html=1;align=center;verticalAlign=middle;resizable=0;points=[];autosize=1;strokeColor=none;fillColor=none;fontSize=20;fontColor=#000000;" vertex="1" parent="1">
          <mxGeometry x="-462" y="8475" width="30" height="30" as="geometry" />
        </mxCell>
        <mxCell id="RLxwgoSpKKGLo3sov7BY-285" value="&lt;b&gt;N&lt;/b&gt;" style="text;html=1;align=center;verticalAlign=middle;resizable=0;points=[];autosize=1;strokeColor=none;fillColor=none;fontSize=20;fontColor=#000000;" vertex="1" parent="1">
          <mxGeometry x="166.12" y="7960" width="30" height="30" as="geometry" />
        </mxCell>
        <mxCell id="RLxwgoSpKKGLo3sov7BY-286" value="&lt;b&gt;1&lt;/b&gt;" style="text;html=1;align=center;verticalAlign=middle;resizable=0;points=[];autosize=1;strokeColor=none;fillColor=none;fontSize=20;fontColor=#000000;" vertex="1" parent="1">
          <mxGeometry x="218.62" y="8020" width="30" height="30" as="geometry" />
        </mxCell>
        <mxCell id="RLxwgoSpKKGLo3sov7BY-287" value="&lt;b&gt;1&lt;/b&gt;" style="text;html=1;align=center;verticalAlign=middle;resizable=0;points=[];autosize=1;strokeColor=none;fillColor=none;fontSize=20;fontColor=#000000;" vertex="1" parent="1">
          <mxGeometry x="576.12" y="8280" width="30" height="30" as="geometry" />
        </mxCell>
        <mxCell id="RLxwgoSpKKGLo3sov7BY-289" value="&lt;b&gt;N&lt;/b&gt;" style="text;html=1;align=center;verticalAlign=middle;resizable=0;points=[];autosize=1;strokeColor=none;fillColor=none;fontSize=20;fontColor=#000000;" vertex="1" parent="1">
          <mxGeometry x="121.12" y="8140" width="30" height="30" as="geometry" />
        </mxCell>
        <mxCell id="RLxwgoSpKKGLo3sov7BY-290" value="&lt;b&gt;N&lt;/b&gt;" style="text;html=1;align=center;verticalAlign=middle;resizable=0;points=[];autosize=1;strokeColor=none;fillColor=none;fontSize=20;fontColor=#000000;" vertex="1" parent="1">
          <mxGeometry x="470.12" y="8505" width="30" height="30" as="geometry" />
        </mxCell>
        <mxCell id="RLxwgoSpKKGLo3sov7BY-291" value="&lt;b&gt;N&lt;/b&gt;" style="text;html=1;align=center;verticalAlign=middle;resizable=0;points=[];autosize=1;strokeColor=none;fillColor=none;fontSize=20;fontColor=#000000;" vertex="1" parent="1">
          <mxGeometry x="359.75" y="8505" width="30" height="30" as="geometry" />
        </mxCell>
        <mxCell id="RLxwgoSpKKGLo3sov7BY-292" value="&lt;b&gt;1&lt;/b&gt;" style="text;html=1;align=center;verticalAlign=middle;resizable=0;points=[];autosize=1;strokeColor=none;fillColor=none;fontSize=20;fontColor=#000000;" vertex="1" parent="1">
          <mxGeometry x="576.12" y="8370" width="30" height="30" as="geometry" />
        </mxCell>
        <mxCell id="RLxwgoSpKKGLo3sov7BY-293" value="#IdCurso&lt;br&gt;Curso&lt;br&gt;&amp;amp;IdDep" style="text;html=1;align=left;verticalAlign=middle;resizable=0;points=[];autosize=1;strokeColor=none;fillColor=none;fontSize=20;fontColor=#000000;labelBorderColor=default;" vertex="1" parent="1">
          <mxGeometry x="280.87" y="7860" width="100" height="80" as="geometry" />
        </mxCell>
        <mxCell id="RLxwgoSpKKGLo3sov7BY-294" value="&lt;blockquote style=&quot;margin: 0 0 0 40px; border: none; padding: 0px;&quot;&gt;#Id_Dep&lt;/blockquote&gt;&lt;blockquote style=&quot;margin: 0 0 0 40px; border: none; padding: 0px;&quot;&gt;Nome&lt;/blockquote&gt;" style="text;html=1;align=left;verticalAlign=middle;resizable=0;points=[];autosize=1;strokeColor=none;fillColor=none;fontSize=20;fontColor=#000000;labelBorderColor=default;" vertex="1" parent="1">
          <mxGeometry x="-731.13" y="7965" width="130" height="50" as="geometry" />
        </mxCell>
        <mxCell id="RLxwgoSpKKGLo3sov7BY-298" value="#Id_Prof&lt;br&gt;Nome&lt;br&gt;&amp;amp;Id_Dep" style="text;html=1;align=left;verticalAlign=middle;resizable=0;points=[];autosize=1;strokeColor=none;fillColor=none;fontSize=20;fontColor=#000000;labelBorderColor=default;" vertex="1" parent="1">
          <mxGeometry x="-478.88" y="8610" width="90" height="80" as="geometry" />
        </mxCell>
        <mxCell id="RLxwgoSpKKGLo3sov7BY-299" value="#Id_Grade&lt;br&gt;&amp;amp;Id_prof&lt;br&gt;&amp;amp;Id_Disc" style="text;html=1;align=left;verticalAlign=middle;resizable=0;points=[];autosize=1;strokeColor=none;fillColor=none;fontSize=20;fontColor=#000000;labelBorderColor=default;" vertex="1" parent="1">
          <mxGeometry x="-256.38" y="8610" width="110" height="80" as="geometry" />
        </mxCell>
        <mxCell id="RLxwgoSpKKGLo3sov7BY-300" value="#Id_Disc&lt;br&gt;NomeDisc&lt;br&gt;Sigla&lt;br&gt;&amp;amp;Id_Dep" style="text;html=1;align=left;verticalAlign=middle;resizable=0;points=[];autosize=1;strokeColor=none;fillColor=none;fontSize=20;fontColor=#000000;labelBorderColor=default;" vertex="1" parent="1">
          <mxGeometry x="46.62" y="8600" width="110" height="100" as="geometry" />
        </mxCell>
        <mxCell id="RLxwgoSpKKGLo3sov7BY-301" value="#Matricula&lt;br&gt;Nome&lt;br&gt;Endereço&lt;br&gt;Telefone&lt;br&gt;Filiação&lt;br&gt;Dt_Nasc" style="text;html=1;align=left;verticalAlign=middle;resizable=0;points=[];autosize=1;strokeColor=none;fillColor=none;fontSize=20;fontColor=#000000;labelBorderColor=default;" vertex="1" parent="1">
          <mxGeometry x="706.12" y="8260" width="110" height="150" as="geometry" />
        </mxCell>
        <mxCell id="RLxwgoSpKKGLo3sov7BY-302" value="#Id_Boletim&lt;br&gt;&amp;amp;Matricula&lt;br&gt;&amp;amp;Id_Disc" style="text;html=1;align=center;verticalAlign=middle;resizable=0;points=[];autosize=1;strokeColor=none;fillColor=none;fontSize=20;fontColor=#000000;labelBorderColor=default;" vertex="1" parent="1">
          <mxGeometry x="383.87" y="8610" width="120" height="80" as="geometry" />
        </mxCell>
        <mxCell id="RLxwgoSpKKGLo3sov7BY-303" value="#IdCurriculo&lt;br&gt;&amp;amp;IdCurso&lt;br&gt;&amp;amp;Id_Disc" style="text;html=1;align=left;verticalAlign=middle;resizable=0;points=[];autosize=1;strokeColor=none;fillColor=none;fontSize=20;fontColor=#000000;labelBorderColor=default;" vertex="1" parent="1">
          <mxGeometry x="196.12" y="8190" width="120" height="80" as="geometry" />
        </mxCell>
        <mxCell id="RLxwgoSpKKGLo3sov7BY-309" style="edgeStyle=orthogonalEdgeStyle;rounded=0;orthogonalLoop=1;jettySize=auto;html=1;entryX=0;entryY=0.5;entryDx=0;entryDy=0;fontSize=20;fontColor=#000000;endArrow=none;endFill=0;strokeColor=#000000;strokeWidth=4;" edge="1" parent="1" source="RLxwgoSpKKGLo3sov7BY-304" target="RLxwgoSpKKGLo3sov7BY-254">
          <mxGeometry relative="1" as="geometry" />
        </mxCell>
        <mxCell id="RLxwgoSpKKGLo3sov7BY-304" value="Formação" style="rhombus;whiteSpace=wrap;html=1;labelBackgroundColor=none;labelBorderColor=none;fontSize=20;fontColor=#000000;strokeColor=#D6B656;strokeWidth=4;" vertex="1" parent="1">
          <mxGeometry x="-661.13" y="8475" width="101.13" height="85" as="geometry" />
        </mxCell>
        <mxCell id="RLxwgoSpKKGLo3sov7BY-308" style="edgeStyle=orthogonalEdgeStyle;rounded=0;orthogonalLoop=1;jettySize=auto;html=1;entryX=0.5;entryY=0;entryDx=0;entryDy=0;fontSize=20;fontColor=#000000;endArrow=none;endFill=0;strokeColor=#000000;strokeWidth=4;" edge="1" parent="1" source="RLxwgoSpKKGLo3sov7BY-305" target="RLxwgoSpKKGLo3sov7BY-304">
          <mxGeometry relative="1" as="geometry" />
        </mxCell>
        <mxCell id="RLxwgoSpKKGLo3sov7BY-305" value="Curso" style="rounded=1;whiteSpace=wrap;html=1;labelBackgroundColor=none;labelBorderColor=none;fontSize=20;fontColor=#000000;strokeColor=#D6B656;strokeWidth=4;" vertex="1" parent="1">
          <mxGeometry x="-790" y="8360" width="120" height="60" as="geometry" />
        </mxCell>
        <mxCell id="RLxwgoSpKKGLo3sov7BY-307" style="edgeStyle=orthogonalEdgeStyle;rounded=0;orthogonalLoop=1;jettySize=auto;html=1;entryX=0.5;entryY=1;entryDx=0;entryDy=0;fontSize=20;fontColor=#000000;endArrow=none;endFill=0;strokeColor=#000000;strokeWidth=4;" edge="1" parent="1" source="RLxwgoSpKKGLo3sov7BY-306" target="RLxwgoSpKKGLo3sov7BY-304">
          <mxGeometry relative="1" as="geometry" />
        </mxCell>
        <mxCell id="RLxwgoSpKKGLo3sov7BY-306" value="Instituição" style="rounded=1;whiteSpace=wrap;html=1;labelBackgroundColor=none;labelBorderColor=none;fontSize=20;fontColor=#000000;strokeColor=#D6B656;strokeWidth=4;" vertex="1" parent="1">
          <mxGeometry x="-797.75" y="8590" width="120" height="60" as="geometry" />
        </mxCell>
        <mxCell id="RLxwgoSpKKGLo3sov7BY-310" value="&lt;b&gt;N&lt;/b&gt;" style="text;html=1;align=center;verticalAlign=middle;resizable=0;points=[];autosize=1;strokeColor=none;fillColor=none;fontSize=20;fontColor=#000000;" vertex="1" parent="1">
          <mxGeometry x="-570" y="8485" width="30" height="30" as="geometry" />
        </mxCell>
        <mxCell id="RLxwgoSpKKGLo3sov7BY-311" value="&lt;b&gt;N&lt;/b&gt;" style="text;html=1;align=center;verticalAlign=middle;resizable=0;points=[];autosize=1;strokeColor=none;fillColor=none;fontSize=20;fontColor=#000000;" vertex="1" parent="1">
          <mxGeometry x="-640" y="8555" width="30" height="30" as="geometry" />
        </mxCell>
        <mxCell id="RLxwgoSpKKGLo3sov7BY-312" value="&lt;b&gt;N&lt;/b&gt;" style="text;html=1;align=center;verticalAlign=middle;resizable=0;points=[];autosize=1;strokeColor=none;fillColor=none;fontSize=20;fontColor=#000000;" vertex="1" parent="1">
          <mxGeometry x="-645" y="8455" width="30" height="30" as="geometry" />
        </mxCell>
        <mxCell id="RLxwgoSpKKGLo3sov7BY-313" value="&lt;b&gt;1&lt;/b&gt;" style="text;html=1;align=center;verticalAlign=middle;resizable=0;points=[];autosize=1;strokeColor=none;fillColor=none;fontSize=20;fontColor=#000000;" vertex="1" parent="1">
          <mxGeometry x="-681.13" y="8620" width="30" height="30" as="geometry" />
        </mxCell>
        <mxCell id="RLxwgoSpKKGLo3sov7BY-314" value="&lt;b&gt;1&lt;/b&gt;" style="text;html=1;align=center;verticalAlign=middle;resizable=0;points=[];autosize=1;strokeColor=none;fillColor=none;fontSize=20;fontColor=#000000;" vertex="1" parent="1">
          <mxGeometry x="-677.25" y="8390" width="30" height="30" as="geometry" />
        </mxCell>
        <mxCell id="RLxwgoSpKKGLo3sov7BY-315" value="&lt;b&gt;1&lt;/b&gt;" style="text;html=1;align=center;verticalAlign=middle;resizable=0;points=[];autosize=1;strokeColor=none;fillColor=none;fontSize=20;fontColor=#000000;" vertex="1" parent="1">
          <mxGeometry x="-516.63" y="8535" width="30" height="30" as="geometry" />
        </mxCell>
      </root>
    </mxGraphModel>
  </diagram>
</mxfile>
